G04 #@! TF.GenerationSoftware,KiCad,Pcbnew,(6.0.8)*
G04 #@! TF.CreationDate,2022-10-04T22:09:12+02:00*
G04 #@! TF.ProjectId,SofleKeyboard,536f666c-654b-4657-9962-6f6172642e6b,rev?*
G04 #@! TF.SameCoordinates,Original*
G04 #@! TF.FileFunction,Legend,Top*
G04 #@! TF.FilePolarity,Positive*
%FSLAX46Y46*%
G04 Gerber Fmt 4.6, Leading zero omitted, Abs format (unit mm)*
G04 Created by KiCad (PCBNEW (6.0.8)) date 2022-10-04 22:09:12*
%MOMM*%
%LPD*%
G01*
G04 APERTURE LIST*
%ADD10C,0.150000*%
%ADD11C,0.120000*%
%ADD12C,0.300000*%
%ADD13C,3.500000*%
%ADD14C,0.500000*%
%ADD15C,0.400000*%
%ADD16C,1.000000*%
%ADD17C,0.800000*%
%ADD18C,3.000000*%
%ADD19C,1.524000*%
%ADD20C,1.397000*%
G04 APERTURE END LIST*
D10*
X184301904Y-101043333D02*
X184301904Y-101424285D01*
X183501904Y-101424285D01*
X184301904Y-100776666D02*
X183768571Y-100776666D01*
X183501904Y-100776666D02*
X183540000Y-100814761D01*
X183578095Y-100776666D01*
X183540000Y-100738571D01*
X183501904Y-100776666D01*
X183578095Y-100776666D01*
X183768571Y-100052857D02*
X184416190Y-100052857D01*
X184492380Y-100090952D01*
X184530476Y-100129047D01*
X184568571Y-100205238D01*
X184568571Y-100319523D01*
X184530476Y-100395714D01*
X184263809Y-100052857D02*
X184301904Y-100129047D01*
X184301904Y-100281428D01*
X184263809Y-100357619D01*
X184225714Y-100395714D01*
X184149523Y-100433809D01*
X183920952Y-100433809D01*
X183844761Y-100395714D01*
X183806666Y-100357619D01*
X183768571Y-100281428D01*
X183768571Y-100129047D01*
X183806666Y-100052857D01*
X184301904Y-99671904D02*
X183501904Y-99671904D01*
X184301904Y-99329047D02*
X183882857Y-99329047D01*
X183806666Y-99367142D01*
X183768571Y-99443333D01*
X183768571Y-99557619D01*
X183806666Y-99633809D01*
X183844761Y-99671904D01*
X183768571Y-99062380D02*
X183768571Y-98757619D01*
X183501904Y-98948095D02*
X184187619Y-98948095D01*
X184263809Y-98910000D01*
X184301904Y-98833809D01*
X184301904Y-98757619D01*
X184263809Y-97919523D02*
X184301904Y-97805238D01*
X184301904Y-97614761D01*
X184263809Y-97538571D01*
X184225714Y-97500476D01*
X184149523Y-97462380D01*
X184073333Y-97462380D01*
X183997142Y-97500476D01*
X183959047Y-97538571D01*
X183920952Y-97614761D01*
X183882857Y-97767142D01*
X183844761Y-97843333D01*
X183806666Y-97881428D01*
X183730476Y-97919523D01*
X183654285Y-97919523D01*
X183578095Y-97881428D01*
X183540000Y-97843333D01*
X183501904Y-97767142D01*
X183501904Y-97576666D01*
X183540000Y-97462380D01*
X184263809Y-96814761D02*
X184301904Y-96890952D01*
X184301904Y-97043333D01*
X184263809Y-97119523D01*
X184187619Y-97157619D01*
X183882857Y-97157619D01*
X183806666Y-97119523D01*
X183768571Y-97043333D01*
X183768571Y-96890952D01*
X183806666Y-96814761D01*
X183882857Y-96776666D01*
X183959047Y-96776666D01*
X184035238Y-97157619D01*
X184301904Y-96319523D02*
X184263809Y-96395714D01*
X184187619Y-96433809D01*
X183501904Y-96433809D01*
X182306323Y-131368249D02*
X182064401Y-130397953D01*
X182722164Y-131264568D02*
X182595443Y-130756318D01*
X182526198Y-130675429D01*
X182422269Y-130652265D01*
X182283655Y-130686825D01*
X182202766Y-130756070D01*
X182168082Y-130813794D01*
X182884315Y-130537064D02*
X183253951Y-130444903D01*
X182942288Y-130179071D02*
X183149649Y-131010754D01*
X183218894Y-131091643D01*
X183322823Y-131114807D01*
X183415232Y-131091767D01*
X183438769Y-130398823D02*
X183808406Y-130306662D01*
X183496742Y-130040830D02*
X183704104Y-130872512D01*
X183773349Y-130953401D01*
X183877278Y-130976566D01*
X183969687Y-130953526D01*
X184131838Y-130226021D02*
X184373760Y-131196317D01*
X184143358Y-130272226D02*
X184224247Y-130202981D01*
X184409065Y-130156901D01*
X184512994Y-130180065D01*
X184570719Y-130214749D01*
X184639964Y-130295639D01*
X184709084Y-130572866D01*
X184685920Y-130676795D01*
X184651235Y-130734520D01*
X184570346Y-130803764D01*
X184385528Y-130849845D01*
X184281599Y-130826680D01*
X185113281Y-130619319D02*
X185217210Y-130642483D01*
X185402028Y-130596403D01*
X185482917Y-130527158D01*
X185506082Y-130423229D01*
X185494562Y-130377024D01*
X185425317Y-130296135D01*
X185321388Y-130272971D01*
X185182774Y-130307531D01*
X185078845Y-130284367D01*
X185009600Y-130203478D01*
X184998080Y-130157273D01*
X185021244Y-130053344D01*
X185102133Y-129984099D01*
X185240747Y-129949539D01*
X185344676Y-129972703D01*
X185933443Y-130365753D02*
X185991168Y-130400437D01*
X185956483Y-130458162D01*
X185898758Y-130423477D01*
X185933443Y-130365753D01*
X185956483Y-130458162D01*
X185806722Y-129857503D02*
X185864447Y-129892187D01*
X185829762Y-129949912D01*
X185772037Y-129915227D01*
X185806722Y-129857503D01*
X185829762Y-129949912D01*
X186858155Y-129153659D02*
X186337515Y-130608544D01*
X187874655Y-128900217D02*
X187354016Y-130355102D01*
X188706089Y-129085532D02*
X188901931Y-129871010D01*
X188878766Y-129974939D01*
X188844082Y-130032664D01*
X188763193Y-130101908D01*
X188624579Y-130136469D01*
X188520650Y-130113304D01*
X188855850Y-129686192D02*
X188774961Y-129755436D01*
X188590143Y-129801517D01*
X188486214Y-129778352D01*
X188428489Y-129743668D01*
X188359244Y-129662779D01*
X188290124Y-129385551D01*
X188313288Y-129281622D01*
X188347973Y-129223898D01*
X188428862Y-129154653D01*
X188613680Y-129108572D01*
X188717609Y-129131737D01*
X189329416Y-129617195D02*
X189168135Y-128970331D01*
X189087494Y-128646899D02*
X189052809Y-128704624D01*
X189110534Y-128739309D01*
X189145219Y-128681584D01*
X189087494Y-128646899D01*
X189110534Y-128739309D01*
X189491567Y-128889691D02*
X189861203Y-128797530D01*
X189549540Y-128531699D02*
X189756901Y-129363381D01*
X189826146Y-129444270D01*
X189930075Y-129467434D01*
X190022484Y-129444394D01*
X190345916Y-129363753D02*
X190103994Y-128393457D01*
X190761757Y-129260072D02*
X190635036Y-128751822D01*
X190565791Y-128670933D01*
X190461862Y-128647769D01*
X190323249Y-128682329D01*
X190242360Y-128751574D01*
X190207675Y-128809298D01*
X191478363Y-128394327D02*
X191639644Y-129041191D01*
X191062521Y-128498008D02*
X191189242Y-129006258D01*
X191258487Y-129087147D01*
X191362416Y-129110311D01*
X191501030Y-129075751D01*
X191581919Y-129006506D01*
X191616604Y-128948782D01*
X192101689Y-128925990D02*
X191859767Y-127955694D01*
X191951928Y-128325330D02*
X192032817Y-128256086D01*
X192217635Y-128210005D01*
X192321565Y-128233170D01*
X192379289Y-128267854D01*
X192448534Y-128348743D01*
X192517655Y-128625971D01*
X192494490Y-128729900D01*
X192459806Y-128787624D01*
X192378917Y-128856869D01*
X192194098Y-128902950D01*
X192090169Y-128879785D01*
X192956536Y-128614699D02*
X193014260Y-128649383D01*
X192979576Y-128707108D01*
X192921851Y-128672424D01*
X192956536Y-128614699D01*
X192979576Y-128707108D01*
X193845942Y-128442022D02*
X193765053Y-128511267D01*
X193580235Y-128557347D01*
X193476306Y-128534182D01*
X193418581Y-128499498D01*
X193349337Y-128418609D01*
X193280216Y-128141382D01*
X193303380Y-128037452D01*
X193338065Y-127979728D01*
X193418954Y-127910483D01*
X193603772Y-127864403D01*
X193707701Y-127887567D01*
X194411917Y-128349985D02*
X194307988Y-128326821D01*
X194250263Y-128292136D01*
X194181019Y-128211247D01*
X194111898Y-127934020D01*
X194135063Y-127830091D01*
X194169747Y-127772366D01*
X194250636Y-127703121D01*
X194389250Y-127668561D01*
X194493179Y-127691726D01*
X194550904Y-127726410D01*
X194620148Y-127807299D01*
X194689269Y-128084526D01*
X194666104Y-128188456D01*
X194631420Y-128246180D01*
X194550531Y-128315425D01*
X194411917Y-128349985D01*
X195151190Y-128165664D02*
X194989909Y-127518800D01*
X195012949Y-127611209D02*
X195047634Y-127553484D01*
X195128523Y-127484240D01*
X195267136Y-127449679D01*
X195371066Y-127472844D01*
X195440310Y-127553733D01*
X195567031Y-128061983D01*
X195440310Y-127553733D02*
X195463475Y-127449804D01*
X195544364Y-127380559D01*
X195682977Y-127345999D01*
X195786907Y-127369163D01*
X195856151Y-127450052D01*
X195982872Y-127958302D01*
X196884544Y-126653800D02*
X196363905Y-128108684D01*
X197461418Y-127589659D02*
X197300137Y-126942795D01*
X197323177Y-127035205D02*
X197357862Y-126977480D01*
X197438751Y-126908235D01*
X197577364Y-126873675D01*
X197681293Y-126896839D01*
X197750538Y-126977728D01*
X197877259Y-127485978D01*
X197750538Y-126977728D02*
X197773703Y-126873799D01*
X197854592Y-126804554D01*
X197993205Y-126769994D01*
X198097134Y-126793158D01*
X198166379Y-126874048D01*
X198293100Y-127382298D01*
X199170987Y-127163416D02*
X199044266Y-126655166D01*
X198975021Y-126574277D01*
X198871092Y-126551112D01*
X198686274Y-126597193D01*
X198605385Y-126666437D01*
X199159467Y-127117211D02*
X199078578Y-127186456D01*
X198847555Y-127244057D01*
X198743626Y-127220892D01*
X198674381Y-127140003D01*
X198651341Y-127047594D01*
X198674505Y-126943665D01*
X198755394Y-126874420D01*
X198986417Y-126816820D01*
X199067306Y-126747575D01*
X199633032Y-127048215D02*
X199471751Y-126401351D01*
X199517831Y-126586169D02*
X199540996Y-126482240D01*
X199575680Y-126424516D01*
X199656569Y-126355271D01*
X199748978Y-126332231D01*
X200638013Y-126748568D02*
X200557124Y-126817813D01*
X200372305Y-126863894D01*
X200268376Y-126840729D01*
X200210651Y-126806045D01*
X200141407Y-126725156D01*
X200072286Y-126447928D01*
X200095451Y-126343999D01*
X200130135Y-126286275D01*
X200211024Y-126217030D01*
X200395842Y-126170949D01*
X200499771Y-126194114D01*
X201203987Y-126656532D02*
X201100058Y-126633368D01*
X201042334Y-126598683D01*
X200973089Y-126517794D01*
X200903968Y-126240567D01*
X200927133Y-126136638D01*
X200961817Y-126078913D01*
X201042706Y-126009668D01*
X201181320Y-125975108D01*
X201285249Y-125998272D01*
X201342974Y-126032957D01*
X201412218Y-126113846D01*
X201481339Y-126391073D01*
X201458175Y-126495002D01*
X201423490Y-126552727D01*
X201342601Y-126621972D01*
X201203987Y-126656532D01*
X201885536Y-126437526D02*
X201989465Y-126460690D01*
X202174283Y-126414610D01*
X202255172Y-126345365D01*
X202278336Y-126241436D01*
X202266816Y-126195232D01*
X202197572Y-126114343D01*
X202093642Y-126091178D01*
X201955029Y-126125738D01*
X201851100Y-126102574D01*
X201781855Y-126021685D01*
X201770335Y-125975480D01*
X201793499Y-125871551D01*
X201874388Y-125802307D01*
X202013002Y-125767746D01*
X202116931Y-125790911D01*
X202428843Y-125664065D02*
X202798479Y-125571905D01*
X202486816Y-125306073D02*
X202694178Y-126137755D01*
X202763422Y-126218644D01*
X202867351Y-126241809D01*
X202959761Y-126218769D01*
X203641309Y-125999763D02*
X203560420Y-126069007D01*
X203375602Y-126115088D01*
X203271672Y-126091923D01*
X203202428Y-126011034D01*
X203110267Y-125641398D01*
X203133431Y-125537469D01*
X203214320Y-125468224D01*
X203399139Y-125422144D01*
X203503068Y-125445308D01*
X203572313Y-125526197D01*
X203595353Y-125618606D01*
X203156347Y-125826216D01*
X204114875Y-125930766D02*
X203953593Y-125283902D01*
X203999674Y-125468721D02*
X204022838Y-125364791D01*
X204057522Y-125307067D01*
X204138412Y-125237822D01*
X204230821Y-125214782D01*
X205155160Y-124591703D02*
X204634521Y-126046588D01*
X205732034Y-125527563D02*
X205570753Y-124880699D01*
X205593793Y-124973108D02*
X205628477Y-124915384D01*
X205709366Y-124846139D01*
X205847980Y-124811579D01*
X205951909Y-124834743D01*
X206021154Y-124915632D01*
X206147875Y-125423882D01*
X206021154Y-124915632D02*
X206044318Y-124811703D01*
X206125208Y-124742458D01*
X206263821Y-124707898D01*
X206367750Y-124731062D01*
X206436995Y-124811951D01*
X206563716Y-125320202D01*
X207441603Y-125101320D02*
X207314882Y-124593070D01*
X207245637Y-124512181D01*
X207141708Y-124489016D01*
X206956890Y-124535097D01*
X206876001Y-124604341D01*
X207430083Y-125055115D02*
X207349194Y-125124360D01*
X207118171Y-125181960D01*
X207014242Y-125158796D01*
X206944997Y-125077907D01*
X206921957Y-124985498D01*
X206945121Y-124881569D01*
X207026010Y-124812324D01*
X207257033Y-124754724D01*
X207337922Y-124685479D01*
X207845924Y-124951434D02*
X207949853Y-124974599D01*
X208134671Y-124928518D01*
X208215560Y-124859274D01*
X208238725Y-124755344D01*
X208227204Y-124709140D01*
X208157960Y-124628251D01*
X208054030Y-124605087D01*
X207915417Y-124639647D01*
X207811488Y-124616482D01*
X207742243Y-124535593D01*
X207730723Y-124489389D01*
X207753887Y-124385460D01*
X207834776Y-124316215D01*
X207973390Y-124281655D01*
X208077319Y-124304819D01*
X208689126Y-124790277D02*
X208447204Y-123819982D01*
X208689374Y-124397601D02*
X209058762Y-124698117D01*
X208897481Y-124051253D02*
X208620005Y-124513050D01*
X96844061Y-79350415D02*
X96510728Y-78874225D01*
X96272632Y-79350415D02*
X96272632Y-78350415D01*
X96653585Y-78350415D01*
X96748823Y-78398035D01*
X96796442Y-78445654D01*
X96844061Y-78540892D01*
X96844061Y-78683749D01*
X96796442Y-78778987D01*
X96748823Y-78826606D01*
X96653585Y-78874225D01*
X96272632Y-78874225D01*
X97796442Y-79350415D02*
X97225013Y-79350415D01*
X97510728Y-79350415D02*
X97510728Y-78350415D01*
X97415489Y-78493273D01*
X97320251Y-78588511D01*
X97225013Y-78636130D01*
X96654061Y-77090415D02*
X96320728Y-76614225D01*
X96082632Y-77090415D02*
X96082632Y-76090415D01*
X96463585Y-76090415D01*
X96558823Y-76138035D01*
X96606442Y-76185654D01*
X96654061Y-76280892D01*
X96654061Y-76423749D01*
X96606442Y-76518987D01*
X96558823Y-76566606D01*
X96463585Y-76614225D01*
X96082632Y-76614225D01*
X97035013Y-76185654D02*
X97082632Y-76138035D01*
X97177870Y-76090415D01*
X97415966Y-76090415D01*
X97511204Y-76138035D01*
X97558823Y-76185654D01*
X97606442Y-76280892D01*
X97606442Y-76376130D01*
X97558823Y-76518987D01*
X96987394Y-77090415D01*
X97606442Y-77090415D01*
X90361904Y-77661904D02*
X89980952Y-77928571D01*
X90361904Y-78119047D02*
X89561904Y-78119047D01*
X89561904Y-77814285D01*
X89600000Y-77738095D01*
X89638095Y-77700000D01*
X89714285Y-77661904D01*
X89828571Y-77661904D01*
X89904761Y-77700000D01*
X89942857Y-77738095D01*
X89980952Y-77814285D01*
X89980952Y-78119047D01*
X89942857Y-77319047D02*
X89942857Y-77052380D01*
X90361904Y-76938095D02*
X90361904Y-77319047D01*
X89561904Y-77319047D01*
X89561904Y-76938095D01*
X90323809Y-76633333D02*
X90361904Y-76519047D01*
X90361904Y-76328571D01*
X90323809Y-76252380D01*
X90285714Y-76214285D01*
X90209523Y-76176190D01*
X90133333Y-76176190D01*
X90057142Y-76214285D01*
X90019047Y-76252380D01*
X89980952Y-76328571D01*
X89942857Y-76480952D01*
X89904761Y-76557142D01*
X89866666Y-76595238D01*
X89790476Y-76633333D01*
X89714285Y-76633333D01*
X89638095Y-76595238D01*
X89600000Y-76557142D01*
X89561904Y-76480952D01*
X89561904Y-76290476D01*
X89600000Y-76176190D01*
X89942857Y-75833333D02*
X89942857Y-75566666D01*
X90361904Y-75452380D02*
X90361904Y-75833333D01*
X89561904Y-75833333D01*
X89561904Y-75452380D01*
X89561904Y-75223809D02*
X89561904Y-74766666D01*
X90361904Y-74995238D02*
X89561904Y-74995238D01*
X90361904Y-77661904D02*
X89980952Y-77928571D01*
X90361904Y-78119047D02*
X89561904Y-78119047D01*
X89561904Y-77814285D01*
X89600000Y-77738095D01*
X89638095Y-77700000D01*
X89714285Y-77661904D01*
X89828571Y-77661904D01*
X89904761Y-77700000D01*
X89942857Y-77738095D01*
X89980952Y-77814285D01*
X89980952Y-78119047D01*
X89942857Y-77319047D02*
X89942857Y-77052380D01*
X90361904Y-76938095D02*
X90361904Y-77319047D01*
X89561904Y-77319047D01*
X89561904Y-76938095D01*
X90323809Y-76633333D02*
X90361904Y-76519047D01*
X90361904Y-76328571D01*
X90323809Y-76252380D01*
X90285714Y-76214285D01*
X90209523Y-76176190D01*
X90133333Y-76176190D01*
X90057142Y-76214285D01*
X90019047Y-76252380D01*
X89980952Y-76328571D01*
X89942857Y-76480952D01*
X89904761Y-76557142D01*
X89866666Y-76595238D01*
X89790476Y-76633333D01*
X89714285Y-76633333D01*
X89638095Y-76595238D01*
X89600000Y-76557142D01*
X89561904Y-76480952D01*
X89561904Y-76290476D01*
X89600000Y-76176190D01*
X89942857Y-75833333D02*
X89942857Y-75566666D01*
X90361904Y-75452380D02*
X90361904Y-75833333D01*
X89561904Y-75833333D01*
X89561904Y-75452380D01*
X89561904Y-75223809D02*
X89561904Y-74766666D01*
X90361904Y-74995238D02*
X89561904Y-74995238D01*
X94387142Y-80766666D02*
X94434761Y-80814285D01*
X94482380Y-80957142D01*
X94482380Y-81052380D01*
X94434761Y-81195238D01*
X94339523Y-81290476D01*
X94244285Y-81338095D01*
X94053809Y-81385714D01*
X93910952Y-81385714D01*
X93720476Y-81338095D01*
X93625238Y-81290476D01*
X93530000Y-81195238D01*
X93482380Y-81052380D01*
X93482380Y-80957142D01*
X93530000Y-80814285D01*
X93577619Y-80766666D01*
X94482380Y-79814285D02*
X94482380Y-80385714D01*
X94482380Y-80100000D02*
X93482380Y-80100000D01*
X93625238Y-80195238D01*
X93720476Y-80290476D01*
X93768095Y-80385714D01*
X95882380Y-80766666D02*
X95406190Y-81100000D01*
X95882380Y-81338095D02*
X94882380Y-81338095D01*
X94882380Y-80957142D01*
X94930000Y-80861904D01*
X94977619Y-80814285D01*
X95072857Y-80766666D01*
X95215714Y-80766666D01*
X95310952Y-80814285D01*
X95358571Y-80861904D01*
X95406190Y-80957142D01*
X95406190Y-81338095D01*
X94882380Y-80433333D02*
X94882380Y-79814285D01*
X95263333Y-80147619D01*
X95263333Y-80004761D01*
X95310952Y-79909523D01*
X95358571Y-79861904D01*
X95453809Y-79814285D01*
X95691904Y-79814285D01*
X95787142Y-79861904D01*
X95834761Y-79909523D01*
X95882380Y-80004761D01*
X95882380Y-80290476D01*
X95834761Y-80385714D01*
X95787142Y-80433333D01*
X96352380Y-88033333D02*
X97066666Y-88033333D01*
X97209523Y-88080952D01*
X97304761Y-88176190D01*
X97352380Y-88319047D01*
X97352380Y-88414285D01*
X96685714Y-87128571D02*
X97352380Y-87128571D01*
X96304761Y-87366666D02*
X97019047Y-87604761D01*
X97019047Y-86985714D01*
X105316666Y-75652380D02*
X105316666Y-76366666D01*
X105269047Y-76509523D01*
X105173809Y-76604761D01*
X105030952Y-76652380D01*
X104935714Y-76652380D01*
X105792857Y-76652380D02*
X105792857Y-75652380D01*
X106173809Y-75652380D01*
X106269047Y-75700000D01*
X106316666Y-75747619D01*
X106364285Y-75842857D01*
X106364285Y-75985714D01*
X106316666Y-76080952D01*
X106269047Y-76128571D01*
X106173809Y-76176190D01*
X105792857Y-76176190D01*
X106840476Y-76652380D02*
X107030952Y-76652380D01*
X107126190Y-76604761D01*
X107173809Y-76557142D01*
X107269047Y-76414285D01*
X107316666Y-76223809D01*
X107316666Y-75842857D01*
X107269047Y-75747619D01*
X107221428Y-75700000D01*
X107126190Y-75652380D01*
X106935714Y-75652380D01*
X106840476Y-75700000D01*
X106792857Y-75747619D01*
X106745238Y-75842857D01*
X106745238Y-76080952D01*
X106792857Y-76176190D01*
X106840476Y-76223809D01*
X106935714Y-76271428D01*
X107126190Y-76271428D01*
X107221428Y-76223809D01*
X107269047Y-76176190D01*
X107316666Y-76080952D01*
X108416666Y-77452380D02*
X109035714Y-77452380D01*
X108702380Y-77833333D01*
X108845238Y-77833333D01*
X108940476Y-77880952D01*
X108988095Y-77928571D01*
X109035714Y-78023809D01*
X109035714Y-78261904D01*
X108988095Y-78357142D01*
X108940476Y-78404761D01*
X108845238Y-78452380D01*
X108559523Y-78452380D01*
X108464285Y-78404761D01*
X108416666Y-78357142D01*
X103835714Y-78452380D02*
X103264285Y-78452380D01*
X103550000Y-78452380D02*
X103550000Y-77452380D01*
X103454761Y-77595238D01*
X103359523Y-77690476D01*
X103264285Y-77738095D01*
D11*
X99597258Y-79492500D02*
X99122742Y-79492500D01*
X99597258Y-78447500D02*
X99122742Y-78447500D01*
X99597258Y-77242500D02*
X99122742Y-77242500D01*
X99597258Y-76197500D02*
X99122742Y-76197500D01*
D10*
X91698815Y-38615745D02*
X91698815Y-71635745D01*
X94238815Y-41155745D02*
X91698815Y-41155745D01*
X106938815Y-41155745D02*
X106938815Y-71635745D01*
X106938815Y-71635745D02*
X109478815Y-71635745D01*
X94238815Y-71635745D02*
X94238815Y-41155745D01*
X91698815Y-71635745D02*
X94238815Y-71635745D01*
X91698815Y-41155745D02*
X91698815Y-71635745D01*
X109478815Y-71635745D02*
X109478815Y-41155745D01*
X109478815Y-41155745D02*
X106938815Y-41155745D01*
X109478815Y-71635745D02*
X109478815Y-38615745D01*
X109478815Y-38615745D02*
X91698815Y-38615745D01*
X102997000Y-73279000D02*
X102997000Y-70993000D01*
X102997000Y-70993000D02*
X104775000Y-70993000D01*
X104775000Y-73279000D02*
X102997000Y-73279000D01*
X104775000Y-70993000D02*
X104775000Y-73279000D01*
X100397000Y-70993000D02*
X102175000Y-70993000D01*
X102175000Y-73279000D02*
X100397000Y-73279000D01*
X100397000Y-73279000D02*
X100397000Y-70993000D01*
X102175000Y-70993000D02*
X102175000Y-73279000D01*
X99675000Y-70993000D02*
X99675000Y-73279000D01*
X97897000Y-70993000D02*
X99675000Y-70993000D01*
X99675000Y-73279000D02*
X97897000Y-73279000D01*
X97897000Y-73279000D02*
X97897000Y-70993000D01*
X88200000Y-73500000D02*
X88900000Y-73500000D01*
X88200000Y-79500000D02*
X88900000Y-79500000D01*
X91700000Y-79500000D02*
X91700000Y-73500000D01*
X91700000Y-73500000D02*
X91100000Y-73500000D01*
X88200000Y-73500000D02*
X88200000Y-79500000D01*
X91700000Y-79500000D02*
X91100000Y-79500000D01*
X97561000Y-82157000D02*
X99339000Y-82157000D01*
X99339000Y-82157000D02*
X99339000Y-84443000D01*
X99339000Y-84443000D02*
X97561000Y-84443000D01*
X97561000Y-84443000D02*
X97561000Y-82157000D01*
X129250000Y-45275000D02*
X128250000Y-45275000D01*
X129500000Y-48475000D02*
X128000000Y-48475000D01*
X129250000Y-46275000D02*
X128250000Y-46275000D01*
X129500000Y-43075000D02*
X128000000Y-43075000D01*
X128000000Y-43075000D02*
X128000000Y-48475000D01*
X128250000Y-46275000D02*
X128750000Y-45375000D01*
X129500000Y-48475000D02*
X129500000Y-43075000D01*
X128750000Y-45375000D02*
X129250000Y-46275000D01*
X131750000Y-48480500D02*
X131750000Y-43080500D01*
X130500000Y-46280500D02*
X131000000Y-45380500D01*
X131000000Y-45380500D02*
X131500000Y-46280500D01*
X131750000Y-43080500D02*
X130250000Y-43080500D01*
X130250000Y-43080500D02*
X130250000Y-48480500D01*
X131750000Y-48480500D02*
X130250000Y-48480500D01*
X131500000Y-45280500D02*
X130500000Y-45280500D01*
X131500000Y-46280500D02*
X130500000Y-46280500D01*
X149750000Y-40340000D02*
X149750000Y-45740000D01*
X151250000Y-40340000D02*
X149750000Y-40340000D01*
X150500000Y-42640000D02*
X151000000Y-43540000D01*
X151000000Y-43540000D02*
X150000000Y-43540000D01*
X151250000Y-45740000D02*
X149750000Y-45740000D01*
X150000000Y-43540000D02*
X150500000Y-42640000D01*
X151250000Y-45740000D02*
X151250000Y-40340000D01*
X151000000Y-42540000D02*
X150000000Y-42540000D01*
X168500000Y-42725000D02*
X168500000Y-48125000D01*
X169750000Y-45925000D02*
X168750000Y-45925000D01*
X170000000Y-48125000D02*
X170000000Y-42725000D01*
X169250000Y-45025000D02*
X169750000Y-45925000D01*
X170000000Y-42725000D02*
X168500000Y-42725000D01*
X170000000Y-48125000D02*
X168500000Y-48125000D01*
X168750000Y-45925000D02*
X169250000Y-45025000D01*
X169750000Y-44925000D02*
X168750000Y-44925000D01*
X187500000Y-54850000D02*
X188000000Y-53950000D01*
X188750000Y-57050000D02*
X187250000Y-57050000D01*
X187250000Y-51650000D02*
X187250000Y-57050000D01*
X188500000Y-53850000D02*
X187500000Y-53850000D01*
X188750000Y-51650000D02*
X187250000Y-51650000D01*
X188750000Y-57050000D02*
X188750000Y-51650000D01*
X188000000Y-53950000D02*
X188500000Y-54850000D01*
X188500000Y-54850000D02*
X187500000Y-54850000D01*
X207750000Y-53725000D02*
X208250000Y-54625000D01*
X207250000Y-54625000D02*
X207750000Y-53725000D01*
X208250000Y-54625000D02*
X207250000Y-54625000D01*
X208250000Y-53625000D02*
X207250000Y-53625000D01*
X208500000Y-56825000D02*
X207000000Y-56825000D01*
X208500000Y-56825000D02*
X208500000Y-51425000D01*
X207000000Y-51425000D02*
X207000000Y-56825000D01*
X208500000Y-51425000D02*
X207000000Y-51425000D01*
X128500000Y-64415000D02*
X127500000Y-64415000D01*
X128500000Y-65415000D02*
X127500000Y-65415000D01*
X128750000Y-67615000D02*
X127250000Y-67615000D01*
X128000000Y-64515000D02*
X128500000Y-65415000D01*
X128750000Y-67615000D02*
X128750000Y-62215000D01*
X127250000Y-62215000D02*
X127250000Y-67615000D01*
X127500000Y-65415000D02*
X128000000Y-64515000D01*
X128750000Y-62215000D02*
X127250000Y-62215000D01*
X130550000Y-62240000D02*
X129050000Y-62240000D01*
X129800000Y-64540000D02*
X130300000Y-65440000D01*
X130550000Y-67640000D02*
X129050000Y-67640000D01*
X130550000Y-67640000D02*
X130550000Y-62240000D01*
X130300000Y-65440000D02*
X129300000Y-65440000D01*
X129300000Y-65440000D02*
X129800000Y-64540000D01*
X129050000Y-62240000D02*
X129050000Y-67640000D01*
X130300000Y-64440000D02*
X129300000Y-64440000D01*
X149500000Y-58365000D02*
X149500000Y-63765000D01*
X150750000Y-61565000D02*
X149750000Y-61565000D01*
X150250000Y-60665000D02*
X150750000Y-61565000D01*
X151000000Y-63765000D02*
X149500000Y-63765000D01*
X151000000Y-63765000D02*
X151000000Y-58365000D01*
X151000000Y-58365000D02*
X149500000Y-58365000D01*
X150750000Y-60565000D02*
X149750000Y-60565000D01*
X149750000Y-61565000D02*
X150250000Y-60665000D01*
X170000000Y-63150000D02*
X169000000Y-63150000D01*
X170000000Y-64150000D02*
X169000000Y-64150000D01*
X170250000Y-60950000D02*
X168750000Y-60950000D01*
X170250000Y-66350000D02*
X170250000Y-60950000D01*
X169000000Y-64150000D02*
X169500000Y-63250000D01*
X168750000Y-60950000D02*
X168750000Y-66350000D01*
X169500000Y-63250000D02*
X170000000Y-64150000D01*
X170250000Y-66350000D02*
X168750000Y-66350000D01*
X188250000Y-70475000D02*
X188750000Y-71375000D01*
X189000000Y-68175000D02*
X187500000Y-68175000D01*
X187500000Y-68175000D02*
X187500000Y-73575000D01*
X189000000Y-73575000D02*
X187500000Y-73575000D01*
X188750000Y-71375000D02*
X187750000Y-71375000D01*
X189000000Y-73575000D02*
X189000000Y-68175000D01*
X188750000Y-70375000D02*
X187750000Y-70375000D01*
X187750000Y-71375000D02*
X188250000Y-70475000D01*
X208250000Y-73175000D02*
X207250000Y-73175000D01*
X208500000Y-76375000D02*
X207000000Y-76375000D01*
X208500000Y-76375000D02*
X208500000Y-70975000D01*
X207000000Y-70975000D02*
X207000000Y-76375000D01*
X207750000Y-73275000D02*
X208250000Y-74175000D01*
X207250000Y-74175000D02*
X207750000Y-73275000D01*
X208500000Y-70975000D02*
X207000000Y-70975000D01*
X208250000Y-74175000D02*
X207250000Y-74175000D01*
X128500000Y-83375000D02*
X129000000Y-84275000D01*
X128000000Y-84275000D02*
X128500000Y-83375000D01*
X129250000Y-86475000D02*
X127750000Y-86475000D01*
X129000000Y-84275000D02*
X128000000Y-84275000D01*
X129250000Y-86475000D02*
X129250000Y-81075000D01*
X129250000Y-81075000D02*
X127750000Y-81075000D01*
X129000000Y-83275000D02*
X128000000Y-83275000D01*
X127750000Y-81075000D02*
X127750000Y-86475000D01*
X131750000Y-84175000D02*
X130750000Y-84175000D01*
X132000000Y-86375000D02*
X130500000Y-86375000D01*
X130500000Y-80975000D02*
X130500000Y-86375000D01*
X131250000Y-83275000D02*
X131750000Y-84175000D01*
X132000000Y-86375000D02*
X132000000Y-80975000D01*
X132000000Y-80975000D02*
X130500000Y-80975000D01*
X131750000Y-83175000D02*
X130750000Y-83175000D01*
X130750000Y-84175000D02*
X131250000Y-83275000D01*
X150500000Y-78865000D02*
X149000000Y-78865000D01*
X149750000Y-81165000D02*
X150250000Y-82065000D01*
X149000000Y-78865000D02*
X149000000Y-84265000D01*
X150500000Y-84265000D02*
X150500000Y-78865000D01*
X150250000Y-82065000D02*
X149250000Y-82065000D01*
X149250000Y-82065000D02*
X149750000Y-81165000D01*
X150250000Y-81065000D02*
X149250000Y-81065000D01*
X150500000Y-84265000D02*
X149000000Y-84265000D01*
X169225000Y-83925000D02*
X169725000Y-83025000D01*
X170225000Y-83925000D02*
X169225000Y-83925000D01*
X170225000Y-82925000D02*
X169225000Y-82925000D01*
X169725000Y-83025000D02*
X170225000Y-83925000D01*
X170475000Y-86125000D02*
X170475000Y-80725000D01*
X170475000Y-86125000D02*
X168975000Y-86125000D01*
X170475000Y-80725000D02*
X168975000Y-80725000D01*
X168975000Y-80725000D02*
X168975000Y-86125000D01*
X188500000Y-91575000D02*
X189000000Y-92475000D01*
X189000000Y-91475000D02*
X188000000Y-91475000D01*
X188000000Y-92475000D02*
X188500000Y-91575000D01*
X189250000Y-94675000D02*
X187750000Y-94675000D01*
X189000000Y-92475000D02*
X188000000Y-92475000D01*
X189250000Y-89275000D02*
X187750000Y-89275000D01*
X187750000Y-89275000D02*
X187750000Y-94675000D01*
X189250000Y-94675000D02*
X189250000Y-89275000D01*
X208500000Y-94975000D02*
X207000000Y-94975000D01*
X207000000Y-89575000D02*
X207000000Y-94975000D01*
X208250000Y-91775000D02*
X207250000Y-91775000D01*
X207750000Y-91875000D02*
X208250000Y-92775000D01*
X208250000Y-92775000D02*
X207250000Y-92775000D01*
X207250000Y-92775000D02*
X207750000Y-91875000D01*
X208500000Y-94975000D02*
X208500000Y-89575000D01*
X208500000Y-89575000D02*
X207000000Y-89575000D01*
X112000000Y-102350000D02*
X112500000Y-103250000D01*
X112500000Y-103250000D02*
X111500000Y-103250000D01*
X112500000Y-102250000D02*
X111500000Y-102250000D01*
X112750000Y-105450000D02*
X111250000Y-105450000D01*
X112750000Y-105450000D02*
X112750000Y-100050000D01*
X112750000Y-100050000D02*
X111250000Y-100050000D01*
X111250000Y-100050000D02*
X111250000Y-105450000D01*
X111500000Y-103250000D02*
X112000000Y-102350000D01*
X130000000Y-103800000D02*
X130500000Y-104700000D01*
X130500000Y-104700000D02*
X129500000Y-104700000D01*
X130750000Y-106900000D02*
X130750000Y-101500000D01*
X129500000Y-104700000D02*
X130000000Y-103800000D01*
X130750000Y-106900000D02*
X129250000Y-106900000D01*
X130500000Y-103700000D02*
X129500000Y-103700000D01*
X130750000Y-101500000D02*
X129250000Y-101500000D01*
X129250000Y-101500000D02*
X129250000Y-106900000D01*
X150500000Y-98065000D02*
X149500000Y-98065000D01*
X150750000Y-101265000D02*
X149250000Y-101265000D01*
X150000000Y-98165000D02*
X150500000Y-99065000D01*
X149250000Y-95865000D02*
X149250000Y-101265000D01*
X150500000Y-99065000D02*
X149500000Y-99065000D01*
X149500000Y-99065000D02*
X150000000Y-98165000D01*
X150750000Y-95865000D02*
X149250000Y-95865000D01*
X150750000Y-101265000D02*
X150750000Y-95865000D01*
X169250000Y-101750000D02*
X169750000Y-102650000D01*
X169750000Y-102650000D02*
X168750000Y-102650000D01*
X170000000Y-104850000D02*
X170000000Y-99450000D01*
X168500000Y-99450000D02*
X168500000Y-104850000D01*
X169750000Y-101650000D02*
X168750000Y-101650000D01*
X170000000Y-99450000D02*
X168500000Y-99450000D01*
X170000000Y-104850000D02*
X168500000Y-104850000D01*
X168750000Y-102650000D02*
X169250000Y-101750000D01*
X189000000Y-110350000D02*
X188000000Y-110350000D01*
X187750000Y-108150000D02*
X187750000Y-113550000D01*
X189250000Y-113550000D02*
X189250000Y-108150000D01*
X189000000Y-111350000D02*
X188000000Y-111350000D01*
X188500000Y-110450000D02*
X189000000Y-111350000D01*
X188000000Y-111350000D02*
X188500000Y-110450000D01*
X189250000Y-113550000D02*
X187750000Y-113550000D01*
X189250000Y-108150000D02*
X187750000Y-108150000D01*
X208950000Y-108675000D02*
X207450000Y-108675000D01*
X207700000Y-111875000D02*
X208200000Y-110975000D01*
X207450000Y-108675000D02*
X207450000Y-114075000D01*
X208700000Y-110875000D02*
X207700000Y-110875000D01*
X208200000Y-110975000D02*
X208700000Y-111875000D01*
X208950000Y-114075000D02*
X207450000Y-114075000D01*
X208700000Y-111875000D02*
X207700000Y-111875000D01*
X208950000Y-114075000D02*
X208950000Y-108675000D01*
X93650000Y-102800000D02*
X92150000Y-102800000D01*
X92400000Y-106000000D02*
X92900000Y-105100000D01*
X93650000Y-108200000D02*
X93650000Y-102800000D01*
X93650000Y-108200000D02*
X92150000Y-108200000D01*
X92900000Y-105100000D02*
X93400000Y-106000000D01*
X93400000Y-106000000D02*
X92400000Y-106000000D01*
X92150000Y-102800000D02*
X92150000Y-108200000D01*
X93400000Y-105000000D02*
X92400000Y-105000000D01*
X87400000Y-133700000D02*
X86400000Y-133700000D01*
X87650000Y-130500000D02*
X86150000Y-130500000D01*
X87650000Y-135900000D02*
X87650000Y-130500000D01*
X87650000Y-135900000D02*
X86150000Y-135900000D01*
X86150000Y-130500000D02*
X86150000Y-135900000D01*
X87400000Y-132700000D02*
X86400000Y-132700000D01*
X86400000Y-133700000D02*
X86900000Y-132800000D01*
X86900000Y-132800000D02*
X87400000Y-133700000D01*
X103800000Y-128300000D02*
X103800000Y-129300000D01*
X107000000Y-128050000D02*
X107000000Y-129550000D01*
X101600000Y-128050000D02*
X101600000Y-129550000D01*
X104800000Y-129300000D02*
X103900000Y-128800000D01*
X103900000Y-128800000D02*
X104800000Y-128300000D01*
X101600000Y-129550000D02*
X107000000Y-129550000D01*
X104800000Y-128300000D02*
X104800000Y-129300000D01*
X107000000Y-128050000D02*
X101600000Y-128050000D01*
X124700000Y-125500000D02*
X123800000Y-125000000D01*
X123700000Y-124500000D02*
X123700000Y-125500000D01*
X126900000Y-124250000D02*
X126900000Y-125750000D01*
X121500000Y-124250000D02*
X121500000Y-125750000D01*
X126900000Y-124250000D02*
X121500000Y-124250000D01*
X123800000Y-125000000D02*
X124700000Y-124500000D01*
X124700000Y-124500000D02*
X124700000Y-125500000D01*
X121500000Y-125750000D02*
X126900000Y-125750000D01*
X146800000Y-122650000D02*
X141400000Y-122650000D01*
X143600000Y-122900000D02*
X143600000Y-123900000D01*
X143700000Y-123400000D02*
X144600000Y-122900000D01*
X144600000Y-123900000D02*
X143700000Y-123400000D01*
X146800000Y-122650000D02*
X146800000Y-124150000D01*
X141400000Y-124150000D02*
X146800000Y-124150000D01*
X144600000Y-122900000D02*
X144600000Y-123900000D01*
X141400000Y-122650000D02*
X141400000Y-124150000D01*
D12*
X124200000Y-46100000D02*
X121870600Y-46100000D01*
D10*
X124880000Y-54000000D02*
X124880000Y-56250000D01*
D12*
X114700001Y-53800000D02*
X114700000Y-54699999D01*
D10*
X124900000Y-56250000D02*
X125100000Y-56250000D01*
X114800000Y-51460000D02*
X114600000Y-51460000D01*
X114830000Y-53700000D02*
X114830000Y-51460000D01*
D13*
X123100000Y-54800000D02*
X116400000Y-54800000D01*
D10*
X125100000Y-53000000D02*
X125100000Y-54000000D01*
X125100000Y-54000000D02*
X124900000Y-54000000D01*
D12*
X121870600Y-44650000D02*
X124200000Y-44650000D01*
D14*
X124800000Y-53300000D02*
X123400000Y-53300000D01*
D10*
X114600000Y-53700000D02*
X114800000Y-53700000D01*
X114600000Y-51100000D02*
X114600000Y-51460000D01*
D15*
X124900000Y-53900000D02*
X124900000Y-53200000D01*
D10*
X114600000Y-51100000D02*
X117880000Y-51100000D01*
X125100000Y-56600000D02*
X116700000Y-56600001D01*
D16*
X124400000Y-56000000D02*
X124400000Y-53500000D01*
D17*
X115200000Y-51600000D02*
X115200000Y-53400000D01*
D14*
X114800000Y-51300000D02*
X117500000Y-51300000D01*
D15*
X124900000Y-56400000D02*
X123500000Y-56400000D01*
D18*
X116330000Y-55100000D02*
X116330000Y-52860000D01*
D10*
X120100000Y-53000000D02*
X125100000Y-53000000D01*
D12*
X124200000Y-44650000D02*
X124200000Y-46100000D01*
D10*
X125100000Y-56250000D02*
X125100000Y-56600000D01*
D12*
X121870600Y-46100000D02*
X121870600Y-44650000D01*
D10*
X114600000Y-54700000D02*
X114600000Y-53700000D01*
X117883682Y-51121471D02*
G75*
G03*
X120100000Y-53000000I2151318J291471D01*
G01*
X114599999Y-54700000D02*
G75*
G03*
X116700000Y-56600001I2000001J100000D01*
G01*
D16*
X117483682Y-51521471D02*
G75*
G03*
X119700000Y-53400000I2151318J291471D01*
G01*
D12*
X140870600Y-42150000D02*
X143200000Y-42150000D01*
D10*
X143880000Y-51500000D02*
X143880000Y-53750000D01*
X144100000Y-51500000D02*
X143900000Y-51500000D01*
D15*
X143900000Y-51400000D02*
X143900000Y-50700000D01*
D14*
X133800000Y-48800000D02*
X136500000Y-48800000D01*
D10*
X133600000Y-52200000D02*
X133600000Y-51200000D01*
D14*
X143800000Y-50800000D02*
X142400000Y-50800000D01*
D10*
X133830000Y-51200000D02*
X133830000Y-48960000D01*
D17*
X134200000Y-49100000D02*
X134200000Y-50900000D01*
D10*
X133600000Y-48600000D02*
X133600000Y-48960000D01*
D16*
X143400000Y-53500000D02*
X143400000Y-51000000D01*
D12*
X140870600Y-43600000D02*
X140870600Y-42150000D01*
D15*
X143900000Y-53900000D02*
X142500000Y-53900000D01*
D12*
X143200000Y-43600000D02*
X140870600Y-43600000D01*
D18*
X135330000Y-52600000D02*
X135330000Y-50360000D01*
D13*
X142100000Y-52300000D02*
X135400000Y-52300000D01*
D12*
X143200000Y-42150000D02*
X143200000Y-43600000D01*
D10*
X133600000Y-48600000D02*
X136880000Y-48600000D01*
X133800000Y-48960000D02*
X133600000Y-48960000D01*
X144100000Y-50500000D02*
X144100000Y-51500000D01*
X139100000Y-50500000D02*
X144100000Y-50500000D01*
D12*
X133700001Y-51300000D02*
X133700000Y-52199999D01*
D10*
X144100000Y-54100000D02*
X135700000Y-54100001D01*
X133600000Y-51200000D02*
X133800000Y-51200000D01*
X143900000Y-53750000D02*
X144100000Y-53750000D01*
X144100000Y-53750000D02*
X144100000Y-54100000D01*
X133599999Y-52200000D02*
G75*
G03*
X135700000Y-54100001I2000001J100000D01*
G01*
D16*
X136483682Y-49021471D02*
G75*
G03*
X138700000Y-50900000I2151318J291471D01*
G01*
D10*
X136883682Y-48621471D02*
G75*
G03*
X139100000Y-50500000I2151318J291471D01*
G01*
D15*
X163000000Y-51400000D02*
X161600000Y-51400000D01*
D13*
X161200000Y-49800000D02*
X154500000Y-49800000D01*
D10*
X152700000Y-46100000D02*
X155980000Y-46100000D01*
X152930000Y-48700000D02*
X152930000Y-46460000D01*
X163200000Y-49000000D02*
X163000000Y-49000000D01*
D12*
X162300000Y-41100000D02*
X159970600Y-41100000D01*
D15*
X163000000Y-48900000D02*
X163000000Y-48200000D01*
D10*
X163200000Y-48000000D02*
X163200000Y-49000000D01*
D12*
X162300000Y-39650000D02*
X162300000Y-41100000D01*
X152800001Y-48800000D02*
X152800000Y-49699999D01*
D17*
X153300000Y-46600000D02*
X153300000Y-48400000D01*
D10*
X163000000Y-51250000D02*
X163200000Y-51250000D01*
X152700000Y-49700000D02*
X152700000Y-48700000D01*
X163200000Y-51600000D02*
X154800000Y-51600001D01*
D12*
X159970600Y-39650000D02*
X162300000Y-39650000D01*
D14*
X152900000Y-46300000D02*
X155600000Y-46300000D01*
D10*
X152900000Y-46460000D02*
X152700000Y-46460000D01*
X152700000Y-48700000D02*
X152900000Y-48700000D01*
X152700000Y-46100000D02*
X152700000Y-46460000D01*
D12*
X159970600Y-41100000D02*
X159970600Y-39650000D01*
D10*
X163200000Y-51250000D02*
X163200000Y-51600000D01*
D14*
X162900000Y-48300000D02*
X161500000Y-48300000D01*
D16*
X162500000Y-51000000D02*
X162500000Y-48500000D01*
D18*
X154430000Y-50100000D02*
X154430000Y-47860000D01*
D10*
X162980000Y-49000000D02*
X162980000Y-51250000D01*
X158200000Y-48000000D02*
X163200000Y-48000000D01*
D16*
X155583682Y-46521471D02*
G75*
G03*
X157800000Y-48400000I2151318J291471D01*
G01*
D10*
X152699999Y-49700000D02*
G75*
G03*
X154800000Y-51600001I2000001J100000D01*
G01*
X155983682Y-46121471D02*
G75*
G03*
X158200000Y-48000000I2151318J291471D01*
G01*
D13*
X180200000Y-52300000D02*
X173500000Y-52300000D01*
D16*
X181500000Y-53500000D02*
X181500000Y-51000000D01*
D10*
X171700000Y-48600000D02*
X171700000Y-48960000D01*
X171930000Y-51200000D02*
X171930000Y-48960000D01*
D12*
X178970600Y-42150000D02*
X181300000Y-42150000D01*
D18*
X173430000Y-52600000D02*
X173430000Y-50360000D01*
D10*
X181980000Y-51500000D02*
X181980000Y-53750000D01*
X182200000Y-53750000D02*
X182200000Y-54100000D01*
X177200000Y-50500000D02*
X182200000Y-50500000D01*
X171700000Y-51200000D02*
X171900000Y-51200000D01*
D12*
X181300000Y-43600000D02*
X178970600Y-43600000D01*
D10*
X171900000Y-48960000D02*
X171700000Y-48960000D01*
X171700000Y-48600000D02*
X174980000Y-48600000D01*
D12*
X178970600Y-43600000D02*
X178970600Y-42150000D01*
D15*
X182000000Y-53900000D02*
X180600000Y-53900000D01*
D14*
X171900000Y-48800000D02*
X174600000Y-48800000D01*
D10*
X171700000Y-52200000D02*
X171700000Y-51200000D01*
X182200000Y-51500000D02*
X182000000Y-51500000D01*
X182000000Y-53750000D02*
X182200000Y-53750000D01*
X182200000Y-50500000D02*
X182200000Y-51500000D01*
D12*
X171800001Y-51300000D02*
X171800000Y-52199999D01*
D17*
X172300000Y-49100000D02*
X172300000Y-50900000D01*
D14*
X181900000Y-50800000D02*
X180500000Y-50800000D01*
D12*
X181300000Y-42150000D02*
X181300000Y-43600000D01*
D15*
X182000000Y-51400000D02*
X182000000Y-50700000D01*
D10*
X182200000Y-54100000D02*
X173800000Y-54100001D01*
D16*
X174583682Y-49021471D02*
G75*
G03*
X176800000Y-50900000I2151318J291471D01*
G01*
D10*
X174983682Y-48621471D02*
G75*
G03*
X177200000Y-50500000I2151318J291471D01*
G01*
X171699999Y-52200000D02*
G75*
G03*
X173800000Y-54100001I2000001J100000D01*
G01*
D12*
X190900001Y-60300000D02*
X190900000Y-61199999D01*
D10*
X196300000Y-59500000D02*
X201300000Y-59500000D01*
X201300000Y-59500000D02*
X201300000Y-60500000D01*
D13*
X199300000Y-61300000D02*
X192600000Y-61300000D01*
D10*
X201300000Y-62750000D02*
X201300000Y-63100000D01*
X190800000Y-60200000D02*
X191000000Y-60200000D01*
D15*
X201100000Y-60400000D02*
X201100000Y-59700000D01*
D10*
X190800000Y-61200000D02*
X190800000Y-60200000D01*
X190800000Y-57600000D02*
X190800000Y-57960000D01*
D18*
X192530000Y-61600000D02*
X192530000Y-59360000D01*
D10*
X190800000Y-57600000D02*
X194080000Y-57600000D01*
X191030000Y-60200000D02*
X191030000Y-57960000D01*
D12*
X200400000Y-51150000D02*
X200400000Y-52600000D01*
X198070600Y-52600000D02*
X198070600Y-51150000D01*
D10*
X201100000Y-62750000D02*
X201300000Y-62750000D01*
X201300000Y-63100000D02*
X192900000Y-63100001D01*
X201080000Y-60500000D02*
X201080000Y-62750000D01*
D15*
X201100000Y-62900000D02*
X199700000Y-62900000D01*
D17*
X191400000Y-58100000D02*
X191400000Y-59900000D01*
D12*
X198070600Y-51150000D02*
X200400000Y-51150000D01*
D16*
X200600000Y-62500000D02*
X200600000Y-60000000D01*
D12*
X200400000Y-52600000D02*
X198070600Y-52600000D01*
D10*
X201300000Y-60500000D02*
X201100000Y-60500000D01*
X191000000Y-57960000D02*
X190800000Y-57960000D01*
D14*
X191000000Y-57800000D02*
X193700000Y-57800000D01*
X201000000Y-59800000D02*
X199600000Y-59800000D01*
D10*
X190799999Y-61200000D02*
G75*
G03*
X192900000Y-63100001I2000001J100000D01*
G01*
D16*
X193683682Y-58021471D02*
G75*
G03*
X195900000Y-59900000I2151318J291471D01*
G01*
D10*
X194083682Y-57621471D02*
G75*
G03*
X196300000Y-59500000I2151318J291471D01*
G01*
D16*
X124400000Y-75100000D02*
X124400000Y-72600000D01*
D12*
X124200000Y-63750000D02*
X124200000Y-65200000D01*
D10*
X125100000Y-75350000D02*
X125100000Y-75700000D01*
X114600000Y-72800000D02*
X114800000Y-72800000D01*
D12*
X124200000Y-65200000D02*
X121870600Y-65200000D01*
D14*
X114800000Y-70400000D02*
X117500000Y-70400000D01*
D12*
X121870600Y-63750000D02*
X124200000Y-63750000D01*
D10*
X125100000Y-73100000D02*
X124900000Y-73100000D01*
X124900000Y-75350000D02*
X125100000Y-75350000D01*
X114800000Y-70560000D02*
X114600000Y-70560000D01*
D17*
X115200000Y-70700000D02*
X115200000Y-72500000D01*
D10*
X114600000Y-70200000D02*
X114600000Y-70560000D01*
D12*
X121870600Y-65200000D02*
X121870600Y-63750000D01*
X114700001Y-72900000D02*
X114700000Y-73799999D01*
D10*
X125100000Y-72100000D02*
X125100000Y-73100000D01*
X114600000Y-70200000D02*
X117880000Y-70200000D01*
X124880000Y-73100000D02*
X124880000Y-75350000D01*
D15*
X124900000Y-75500000D02*
X123500000Y-75500000D01*
D13*
X123100000Y-73900000D02*
X116400000Y-73900000D01*
D10*
X114600000Y-73800000D02*
X114600000Y-72800000D01*
D14*
X124800000Y-72400000D02*
X123400000Y-72400000D01*
D10*
X114830000Y-72800000D02*
X114830000Y-70560000D01*
D15*
X124900000Y-73000000D02*
X124900000Y-72300000D01*
D18*
X116330000Y-74200000D02*
X116330000Y-71960000D01*
D10*
X125100000Y-75700000D02*
X116700000Y-75700001D01*
X120100000Y-72100000D02*
X125100000Y-72100000D01*
D16*
X117483682Y-70621471D02*
G75*
G03*
X119700000Y-72500000I2151318J291471D01*
G01*
D10*
X117883682Y-70221471D02*
G75*
G03*
X120100000Y-72100000I2151318J291471D01*
G01*
X114599999Y-73800000D02*
G75*
G03*
X116700000Y-75700001I2000001J100000D01*
G01*
X144100000Y-70600000D02*
X143900000Y-70600000D01*
D12*
X143200000Y-61250000D02*
X143200000Y-62700000D01*
D18*
X135330000Y-71700000D02*
X135330000Y-69460000D01*
D14*
X143800000Y-69900000D02*
X142400000Y-69900000D01*
D10*
X144100000Y-73200000D02*
X135700000Y-73200001D01*
X139100000Y-69600000D02*
X144100000Y-69600000D01*
X144100000Y-72850000D02*
X144100000Y-73200000D01*
D14*
X133800000Y-67900000D02*
X136500000Y-67900000D01*
D17*
X134200000Y-68200000D02*
X134200000Y-70000000D01*
D10*
X133830000Y-70300000D02*
X133830000Y-68060000D01*
X133600000Y-67700000D02*
X133600000Y-68060000D01*
D12*
X140870600Y-62700000D02*
X140870600Y-61250000D01*
X143200000Y-62700000D02*
X140870600Y-62700000D01*
D10*
X133600000Y-67700000D02*
X136880000Y-67700000D01*
X143880000Y-70600000D02*
X143880000Y-72850000D01*
D16*
X143400000Y-72600000D02*
X143400000Y-70100000D01*
D13*
X142100000Y-71400000D02*
X135400000Y-71400000D01*
D10*
X144100000Y-69600000D02*
X144100000Y-70600000D01*
D15*
X143900000Y-70500000D02*
X143900000Y-69800000D01*
D10*
X143900000Y-72850000D02*
X144100000Y-72850000D01*
D12*
X133700001Y-70400000D02*
X133700000Y-71299999D01*
D10*
X133600000Y-70300000D02*
X133800000Y-70300000D01*
D15*
X143900000Y-73000000D02*
X142500000Y-73000000D01*
D12*
X140870600Y-61250000D02*
X143200000Y-61250000D01*
D10*
X133600000Y-71300000D02*
X133600000Y-70300000D01*
X133800000Y-68060000D02*
X133600000Y-68060000D01*
D16*
X136483682Y-68121471D02*
G75*
G03*
X138700000Y-70000000I2151318J291471D01*
G01*
D10*
X133599999Y-71300000D02*
G75*
G03*
X135700000Y-73200001I2000001J100000D01*
G01*
X136883682Y-67721471D02*
G75*
G03*
X139100000Y-69600000I2151318J291471D01*
G01*
D14*
X152900000Y-65390000D02*
X155600000Y-65390000D01*
D10*
X163200000Y-67090000D02*
X163200000Y-68090000D01*
D16*
X162500000Y-70090000D02*
X162500000Y-67590000D01*
D10*
X152930000Y-67790000D02*
X152930000Y-65550000D01*
D17*
X153300000Y-65690000D02*
X153300000Y-67490000D01*
D10*
X162980000Y-68090000D02*
X162980000Y-70340000D01*
X163200000Y-70340000D02*
X163200000Y-70690000D01*
X163200000Y-68090000D02*
X163000000Y-68090000D01*
D12*
X159970600Y-58740000D02*
X162300000Y-58740000D01*
D10*
X163000000Y-70340000D02*
X163200000Y-70340000D01*
X163200000Y-70690000D02*
X154800000Y-70690001D01*
D18*
X154430000Y-69190000D02*
X154430000Y-66950000D01*
D12*
X162300000Y-60190000D02*
X159970600Y-60190000D01*
D15*
X163000000Y-70490000D02*
X161600000Y-70490000D01*
D10*
X152700000Y-68790000D02*
X152700000Y-67790000D01*
D12*
X152800001Y-67890000D02*
X152800000Y-68789999D01*
D10*
X152900000Y-65550000D02*
X152700000Y-65550000D01*
X152700000Y-65190000D02*
X155980000Y-65190000D01*
X158200000Y-67090000D02*
X163200000Y-67090000D01*
D12*
X162300000Y-58740000D02*
X162300000Y-60190000D01*
D15*
X163000000Y-67990000D02*
X163000000Y-67290000D01*
D13*
X161200000Y-68890000D02*
X154500000Y-68890000D01*
D10*
X152700000Y-65190000D02*
X152700000Y-65550000D01*
X152700000Y-67790000D02*
X152900000Y-67790000D01*
D14*
X162900000Y-67390000D02*
X161500000Y-67390000D01*
D12*
X159970600Y-60190000D02*
X159970600Y-58740000D01*
D10*
X155983682Y-65211471D02*
G75*
G03*
X158200000Y-67090000I2151318J291471D01*
G01*
D16*
X155583682Y-65611471D02*
G75*
G03*
X157800000Y-67490000I2151318J291471D01*
G01*
D10*
X152699999Y-68790000D02*
G75*
G03*
X154800000Y-70690001I2000001J100000D01*
G01*
X182200000Y-72750000D02*
X182200000Y-73100000D01*
X171700000Y-67600000D02*
X171700000Y-67960000D01*
X182200000Y-69500000D02*
X182200000Y-70500000D01*
X182000000Y-72750000D02*
X182200000Y-72750000D01*
X171930000Y-70200000D02*
X171930000Y-67960000D01*
X171700000Y-71200000D02*
X171700000Y-70200000D01*
X181980000Y-70500000D02*
X181980000Y-72750000D01*
D12*
X181300000Y-62600000D02*
X178970600Y-62600000D01*
D10*
X171700000Y-67600000D02*
X174980000Y-67600000D01*
X182200000Y-70500000D02*
X182000000Y-70500000D01*
X182200000Y-73100000D02*
X173800000Y-73100001D01*
D15*
X182000000Y-72900000D02*
X180600000Y-72900000D01*
D12*
X171800001Y-70300000D02*
X171800000Y-71199999D01*
X181300000Y-61150000D02*
X181300000Y-62600000D01*
D15*
X182000000Y-70400000D02*
X182000000Y-69700000D01*
D10*
X171900000Y-67960000D02*
X171700000Y-67960000D01*
D12*
X178970600Y-62600000D02*
X178970600Y-61150000D01*
D18*
X173430000Y-71600000D02*
X173430000Y-69360000D01*
D13*
X180200000Y-71300000D02*
X173500000Y-71300000D01*
D17*
X172300000Y-68100000D02*
X172300000Y-69900000D01*
D10*
X177200000Y-69500000D02*
X182200000Y-69500000D01*
D12*
X178970600Y-61150000D02*
X181300000Y-61150000D01*
D10*
X171700000Y-70200000D02*
X171900000Y-70200000D01*
D14*
X181900000Y-69800000D02*
X180500000Y-69800000D01*
D16*
X181500000Y-72500000D02*
X181500000Y-70000000D01*
D14*
X171900000Y-67800000D02*
X174600000Y-67800000D01*
D10*
X171699999Y-71200000D02*
G75*
G03*
X173800000Y-73100001I2000001J100000D01*
G01*
D16*
X174583682Y-68021471D02*
G75*
G03*
X176800000Y-69900000I2151318J291471D01*
G01*
D10*
X174983682Y-67621471D02*
G75*
G03*
X177200000Y-69500000I2151318J291471D01*
G01*
X196300000Y-78400000D02*
X201300000Y-78400000D01*
D15*
X201100000Y-81800000D02*
X199700000Y-81800000D01*
D12*
X198070600Y-71500000D02*
X198070600Y-70050000D01*
D14*
X191000000Y-76700000D02*
X193700000Y-76700000D01*
D10*
X201100000Y-81650000D02*
X201300000Y-81650000D01*
D14*
X201000000Y-78700000D02*
X199600000Y-78700000D01*
D10*
X191000000Y-76860000D02*
X190800000Y-76860000D01*
X191030000Y-79100000D02*
X191030000Y-76860000D01*
D15*
X201100000Y-79300000D02*
X201100000Y-78600000D01*
D12*
X190900001Y-79200000D02*
X190900000Y-80099999D01*
D10*
X190800000Y-79100000D02*
X191000000Y-79100000D01*
X190800000Y-80100000D02*
X190800000Y-79100000D01*
X201080000Y-79400000D02*
X201080000Y-81650000D01*
D12*
X200400000Y-71500000D02*
X198070600Y-71500000D01*
D10*
X190800000Y-76500000D02*
X194080000Y-76500000D01*
D13*
X199300000Y-80200000D02*
X192600000Y-80200000D01*
D12*
X198070600Y-70050000D02*
X200400000Y-70050000D01*
D10*
X201300000Y-82000000D02*
X192900000Y-82000001D01*
D16*
X200600000Y-81400000D02*
X200600000Y-78900000D01*
D10*
X201300000Y-78400000D02*
X201300000Y-79400000D01*
D12*
X200400000Y-70050000D02*
X200400000Y-71500000D01*
D10*
X201300000Y-81650000D02*
X201300000Y-82000000D01*
D17*
X191400000Y-77000000D02*
X191400000Y-78800000D01*
D10*
X201300000Y-79400000D02*
X201100000Y-79400000D01*
D18*
X192530000Y-80500000D02*
X192530000Y-78260000D01*
D10*
X190800000Y-76500000D02*
X190800000Y-76860000D01*
X190799999Y-80100000D02*
G75*
G03*
X192900000Y-82000001I2000001J100000D01*
G01*
D16*
X193683682Y-76921471D02*
G75*
G03*
X195900000Y-78800000I2151318J291471D01*
G01*
D10*
X194083682Y-76521471D02*
G75*
G03*
X196300000Y-78400000I2151318J291471D01*
G01*
X220300000Y-79400000D02*
X220100000Y-79400000D01*
X210030000Y-79100000D02*
X210030000Y-76860000D01*
D14*
X210000000Y-76700000D02*
X212700000Y-76700000D01*
D10*
X209800000Y-79100000D02*
X210000000Y-79100000D01*
X209800000Y-76500000D02*
X209800000Y-76860000D01*
D18*
X211530000Y-80500000D02*
X211530000Y-78260000D01*
D12*
X219400000Y-71500000D02*
X217070600Y-71500000D01*
D10*
X220080000Y-79400000D02*
X220080000Y-81650000D01*
D16*
X219600000Y-81400000D02*
X219600000Y-78900000D01*
D14*
X220000000Y-78700000D02*
X218600000Y-78700000D01*
D13*
X218300000Y-80200000D02*
X211600000Y-80200000D01*
D10*
X209800000Y-76500000D02*
X213080000Y-76500000D01*
D15*
X220100000Y-79300000D02*
X220100000Y-78600000D01*
D10*
X215300000Y-78400000D02*
X220300000Y-78400000D01*
X220300000Y-82000000D02*
X211900000Y-82000001D01*
D12*
X219400000Y-70050000D02*
X219400000Y-71500000D01*
D10*
X220300000Y-81650000D02*
X220300000Y-82000000D01*
X210000000Y-76860000D02*
X209800000Y-76860000D01*
D12*
X209900001Y-79200000D02*
X209900000Y-80099999D01*
D10*
X209800000Y-80100000D02*
X209800000Y-79100000D01*
D12*
X217070600Y-70050000D02*
X219400000Y-70050000D01*
D10*
X220100000Y-81650000D02*
X220300000Y-81650000D01*
X220300000Y-78400000D02*
X220300000Y-79400000D01*
D15*
X220100000Y-81800000D02*
X218700000Y-81800000D01*
D12*
X217070600Y-71500000D02*
X217070600Y-70050000D01*
D17*
X210400000Y-77000000D02*
X210400000Y-78800000D01*
D10*
X209799999Y-80100000D02*
G75*
G03*
X211900000Y-82000001I2000001J100000D01*
G01*
D16*
X212683682Y-76921471D02*
G75*
G03*
X214900000Y-78800000I2151318J291471D01*
G01*
D10*
X213083682Y-76521471D02*
G75*
G03*
X215300000Y-78400000I2151318J291471D01*
G01*
D18*
X116330000Y-93200000D02*
X116330000Y-90960000D01*
D15*
X124900000Y-92000000D02*
X124900000Y-91300000D01*
D14*
X124800000Y-91400000D02*
X123400000Y-91400000D01*
D16*
X124400000Y-94100000D02*
X124400000Y-91600000D01*
D12*
X121870600Y-84200000D02*
X121870600Y-82750000D01*
X124200000Y-84200000D02*
X121870600Y-84200000D01*
D14*
X114800000Y-89400000D02*
X117500000Y-89400000D01*
D17*
X115200000Y-89700000D02*
X115200000Y-91500000D01*
D10*
X125100000Y-92100000D02*
X124900000Y-92100000D01*
X125100000Y-94700000D02*
X116700000Y-94700001D01*
X125100000Y-91100000D02*
X125100000Y-92100000D01*
X125100000Y-94350000D02*
X125100000Y-94700000D01*
X114600000Y-89200000D02*
X114600000Y-89560000D01*
X124880000Y-92100000D02*
X124880000Y-94350000D01*
X114600000Y-91800000D02*
X114800000Y-91800000D01*
D12*
X124200000Y-82750000D02*
X124200000Y-84200000D01*
D10*
X114800000Y-89560000D02*
X114600000Y-89560000D01*
X124900000Y-94350000D02*
X125100000Y-94350000D01*
D15*
X124900000Y-94500000D02*
X123500000Y-94500000D01*
D10*
X114830000Y-91800000D02*
X114830000Y-89560000D01*
D13*
X123100000Y-92900000D02*
X116400000Y-92900000D01*
D10*
X114600000Y-89200000D02*
X117880000Y-89200000D01*
X114600000Y-92800000D02*
X114600000Y-91800000D01*
X120100000Y-91100000D02*
X125100000Y-91100000D01*
D12*
X114700001Y-91900000D02*
X114700000Y-92799999D01*
X121870600Y-82750000D02*
X124200000Y-82750000D01*
D16*
X117483682Y-89621471D02*
G75*
G03*
X119700000Y-91500000I2151318J291471D01*
G01*
D10*
X114599999Y-92800000D02*
G75*
G03*
X116700000Y-94700001I2000001J100000D01*
G01*
X117883682Y-89221471D02*
G75*
G03*
X120100000Y-91100000I2151318J291471D01*
G01*
X133800000Y-87060000D02*
X133600000Y-87060000D01*
D12*
X143200000Y-81700000D02*
X140870600Y-81700000D01*
X143200000Y-80250000D02*
X143200000Y-81700000D01*
D10*
X144100000Y-91850000D02*
X144100000Y-92200000D01*
X143880000Y-89600000D02*
X143880000Y-91850000D01*
X133600000Y-86700000D02*
X133600000Y-87060000D01*
X133830000Y-89300000D02*
X133830000Y-87060000D01*
X143900000Y-91850000D02*
X144100000Y-91850000D01*
X144100000Y-88600000D02*
X144100000Y-89600000D01*
D15*
X143900000Y-92000000D02*
X142500000Y-92000000D01*
D10*
X144100000Y-92200000D02*
X135700000Y-92200001D01*
D18*
X135330000Y-90700000D02*
X135330000Y-88460000D01*
D10*
X139100000Y-88600000D02*
X144100000Y-88600000D01*
D14*
X133800000Y-86900000D02*
X136500000Y-86900000D01*
D12*
X140870600Y-80250000D02*
X143200000Y-80250000D01*
D10*
X133600000Y-90300000D02*
X133600000Y-89300000D01*
D13*
X142100000Y-90400000D02*
X135400000Y-90400000D01*
D12*
X140870600Y-81700000D02*
X140870600Y-80250000D01*
D10*
X133600000Y-86700000D02*
X136880000Y-86700000D01*
D15*
X143900000Y-89500000D02*
X143900000Y-88800000D01*
D16*
X143400000Y-91600000D02*
X143400000Y-89100000D01*
D10*
X144100000Y-89600000D02*
X143900000Y-89600000D01*
D12*
X133700001Y-89400000D02*
X133700000Y-90299999D01*
D17*
X134200000Y-87200000D02*
X134200000Y-89000000D01*
D14*
X143800000Y-88900000D02*
X142400000Y-88900000D01*
D10*
X133600000Y-89300000D02*
X133800000Y-89300000D01*
X136883682Y-86721471D02*
G75*
G03*
X139100000Y-88600000I2151318J291471D01*
G01*
X133599999Y-90300000D02*
G75*
G03*
X135700000Y-92200001I2000001J100000D01*
G01*
D16*
X136483682Y-87121471D02*
G75*
G03*
X138700000Y-89000000I2151318J291471D01*
G01*
D18*
X154430000Y-88290000D02*
X154430000Y-86050000D01*
D10*
X163200000Y-86190000D02*
X163200000Y-87190000D01*
X163200000Y-87190000D02*
X163000000Y-87190000D01*
D16*
X162500000Y-89190000D02*
X162500000Y-86690000D01*
D10*
X163200000Y-89440000D02*
X163200000Y-89790000D01*
X163200000Y-89790000D02*
X154800000Y-89790001D01*
X152930000Y-86890000D02*
X152930000Y-84650000D01*
X158200000Y-86190000D02*
X163200000Y-86190000D01*
X163000000Y-89440000D02*
X163200000Y-89440000D01*
D12*
X152800001Y-86990000D02*
X152800000Y-87889999D01*
X159970600Y-79290000D02*
X159970600Y-77840000D01*
D10*
X152700000Y-84290000D02*
X152700000Y-84650000D01*
D12*
X162300000Y-79290000D02*
X159970600Y-79290000D01*
D10*
X152900000Y-84650000D02*
X152700000Y-84650000D01*
D12*
X159970600Y-77840000D02*
X162300000Y-77840000D01*
D15*
X163000000Y-87090000D02*
X163000000Y-86390000D01*
D17*
X153300000Y-84790000D02*
X153300000Y-86590000D01*
D13*
X161200000Y-87990000D02*
X154500000Y-87990000D01*
D10*
X162980000Y-87190000D02*
X162980000Y-89440000D01*
X152700000Y-86890000D02*
X152900000Y-86890000D01*
X152700000Y-84290000D02*
X155980000Y-84290000D01*
D14*
X162900000Y-86490000D02*
X161500000Y-86490000D01*
X152900000Y-84490000D02*
X155600000Y-84490000D01*
D10*
X152700000Y-87890000D02*
X152700000Y-86890000D01*
D15*
X163000000Y-89590000D02*
X161600000Y-89590000D01*
D12*
X162300000Y-77840000D02*
X162300000Y-79290000D01*
D10*
X155983682Y-84311471D02*
G75*
G03*
X158200000Y-86190000I2151318J291471D01*
G01*
D16*
X155583682Y-84711471D02*
G75*
G03*
X157800000Y-86590000I2151318J291471D01*
G01*
D10*
X152699999Y-87890000D02*
G75*
G03*
X154800000Y-89790001I2000001J100000D01*
G01*
D16*
X181500000Y-91600000D02*
X181500000Y-89100000D01*
D15*
X182000000Y-92000000D02*
X180600000Y-92000000D01*
D10*
X181980000Y-89600000D02*
X181980000Y-91850000D01*
D12*
X181300000Y-80250000D02*
X181300000Y-81700000D01*
D10*
X182200000Y-88600000D02*
X182200000Y-89600000D01*
X171900000Y-87060000D02*
X171700000Y-87060000D01*
X171700000Y-86700000D02*
X171700000Y-87060000D01*
D12*
X178970600Y-81700000D02*
X178970600Y-80250000D01*
D14*
X171900000Y-86900000D02*
X174600000Y-86900000D01*
D12*
X171800001Y-89400000D02*
X171800000Y-90299999D01*
D14*
X181900000Y-88900000D02*
X180500000Y-88900000D01*
D17*
X172300000Y-87200000D02*
X172300000Y-89000000D01*
D12*
X181300000Y-81700000D02*
X178970600Y-81700000D01*
D10*
X171700000Y-89300000D02*
X171900000Y-89300000D01*
D15*
X182000000Y-89500000D02*
X182000000Y-88800000D01*
D10*
X171700000Y-86700000D02*
X174980000Y-86700000D01*
X171930000Y-89300000D02*
X171930000Y-87060000D01*
D12*
X178970600Y-80250000D02*
X181300000Y-80250000D01*
D10*
X177200000Y-88600000D02*
X182200000Y-88600000D01*
X182200000Y-89600000D02*
X182000000Y-89600000D01*
X182200000Y-91850000D02*
X182200000Y-92200000D01*
D13*
X180200000Y-90400000D02*
X173500000Y-90400000D01*
D10*
X171700000Y-90300000D02*
X171700000Y-89300000D01*
X182200000Y-92200000D02*
X173800000Y-92200001D01*
D18*
X173430000Y-90700000D02*
X173430000Y-88460000D01*
D10*
X182000000Y-91850000D02*
X182200000Y-91850000D01*
D16*
X174583682Y-87121471D02*
G75*
G03*
X176800000Y-89000000I2151318J291471D01*
G01*
D10*
X171699999Y-90300000D02*
G75*
G03*
X173800000Y-92200001I2000001J100000D01*
G01*
X174983682Y-86721471D02*
G75*
G03*
X177200000Y-88600000I2151318J291471D01*
G01*
X191030000Y-98300000D02*
X191030000Y-96060000D01*
D12*
X198070600Y-90700000D02*
X198070600Y-89250000D01*
D10*
X196300000Y-97600000D02*
X201300000Y-97600000D01*
D14*
X201000000Y-97900000D02*
X199600000Y-97900000D01*
D10*
X190800000Y-95700000D02*
X194080000Y-95700000D01*
X190800000Y-99300000D02*
X190800000Y-98300000D01*
D16*
X200600000Y-100600000D02*
X200600000Y-98100000D01*
D10*
X201100000Y-100850000D02*
X201300000Y-100850000D01*
D12*
X190900001Y-98400000D02*
X190900000Y-99299999D01*
D17*
X191400000Y-96200000D02*
X191400000Y-98000000D01*
D10*
X201300000Y-101200000D02*
X192900000Y-101200001D01*
D15*
X201100000Y-98500000D02*
X201100000Y-97800000D01*
X201100000Y-101000000D02*
X199700000Y-101000000D01*
D18*
X192530000Y-99700000D02*
X192530000Y-97460000D01*
D12*
X200400000Y-89250000D02*
X200400000Y-90700000D01*
D10*
X201300000Y-100850000D02*
X201300000Y-101200000D01*
D14*
X191000000Y-95900000D02*
X193700000Y-95900000D01*
D13*
X199300000Y-99400000D02*
X192600000Y-99400000D01*
D10*
X201300000Y-97600000D02*
X201300000Y-98600000D01*
X190800000Y-95700000D02*
X190800000Y-96060000D01*
D12*
X198070600Y-89250000D02*
X200400000Y-89250000D01*
D10*
X190800000Y-98300000D02*
X191000000Y-98300000D01*
D12*
X200400000Y-90700000D02*
X198070600Y-90700000D01*
D10*
X201300000Y-98600000D02*
X201100000Y-98600000D01*
X201080000Y-98600000D02*
X201080000Y-100850000D01*
X191000000Y-96060000D02*
X190800000Y-96060000D01*
X194083682Y-95721471D02*
G75*
G03*
X196300000Y-97600000I2151318J291471D01*
G01*
X190799999Y-99300000D02*
G75*
G03*
X192900000Y-101200001I2000001J100000D01*
G01*
D16*
X193683682Y-96121471D02*
G75*
G03*
X195900000Y-98000000I2151318J291471D01*
G01*
D14*
X210000000Y-95900000D02*
X212700000Y-95900000D01*
D10*
X210030000Y-98300000D02*
X210030000Y-96060000D01*
D12*
X217070600Y-89250000D02*
X219400000Y-89250000D01*
D14*
X220000000Y-97900000D02*
X218600000Y-97900000D01*
D12*
X217070600Y-90700000D02*
X217070600Y-89250000D01*
X219400000Y-90700000D02*
X217070600Y-90700000D01*
D10*
X220300000Y-101200000D02*
X211900000Y-101200001D01*
X215300000Y-97600000D02*
X220300000Y-97600000D01*
D12*
X219400000Y-89250000D02*
X219400000Y-90700000D01*
D10*
X220080000Y-98600000D02*
X220080000Y-100850000D01*
D17*
X210400000Y-96200000D02*
X210400000Y-98000000D01*
D15*
X220100000Y-101000000D02*
X218700000Y-101000000D01*
D10*
X209800000Y-95700000D02*
X209800000Y-96060000D01*
X220300000Y-97600000D02*
X220300000Y-98600000D01*
D16*
X219600000Y-100600000D02*
X219600000Y-98100000D01*
D10*
X209800000Y-99300000D02*
X209800000Y-98300000D01*
X210000000Y-96060000D02*
X209800000Y-96060000D01*
X220100000Y-100850000D02*
X220300000Y-100850000D01*
D18*
X211530000Y-99700000D02*
X211530000Y-97460000D01*
D10*
X209800000Y-98300000D02*
X210000000Y-98300000D01*
X220300000Y-100850000D02*
X220300000Y-101200000D01*
D15*
X220100000Y-98500000D02*
X220100000Y-97800000D01*
D10*
X209800000Y-95700000D02*
X213080000Y-95700000D01*
X220300000Y-98600000D02*
X220100000Y-98600000D01*
D13*
X218300000Y-99400000D02*
X211600000Y-99400000D01*
D12*
X209900001Y-98400000D02*
X209900000Y-99299999D01*
D10*
X213083682Y-95721471D02*
G75*
G03*
X215300000Y-97600000I2151318J291471D01*
G01*
D16*
X212683682Y-96121471D02*
G75*
G03*
X214900000Y-98000000I2151318J291471D01*
G01*
D10*
X209799999Y-99300000D02*
G75*
G03*
X211900000Y-101200001I2000001J100000D01*
G01*
X125100000Y-113350000D02*
X125100000Y-113700000D01*
X114600000Y-111800000D02*
X114600000Y-110800000D01*
X114800000Y-108560000D02*
X114600000Y-108560000D01*
D12*
X121870600Y-103200000D02*
X121870600Y-101750000D01*
D10*
X125100000Y-111100000D02*
X124900000Y-111100000D01*
X125100000Y-113700000D02*
X116700000Y-113700001D01*
D12*
X114700001Y-110900000D02*
X114700000Y-111799999D01*
D10*
X114600000Y-108200000D02*
X117880000Y-108200000D01*
D18*
X116330000Y-112200000D02*
X116330000Y-109960000D01*
D17*
X115200000Y-108700000D02*
X115200000Y-110500000D01*
D10*
X114600000Y-108200000D02*
X114600000Y-108560000D01*
D12*
X124200000Y-103200000D02*
X121870600Y-103200000D01*
D10*
X125100000Y-110100000D02*
X125100000Y-111100000D01*
D15*
X124900000Y-113500000D02*
X123500000Y-113500000D01*
D12*
X121870600Y-101750000D02*
X124200000Y-101750000D01*
D16*
X124400000Y-113100000D02*
X124400000Y-110600000D01*
D15*
X124900000Y-111000000D02*
X124900000Y-110300000D01*
D13*
X123100000Y-111900000D02*
X116400000Y-111900000D01*
D14*
X114800000Y-108400000D02*
X117500000Y-108400000D01*
D10*
X124880000Y-111100000D02*
X124880000Y-113350000D01*
X114600000Y-110800000D02*
X114800000Y-110800000D01*
X114830000Y-110800000D02*
X114830000Y-108560000D01*
D12*
X124200000Y-101750000D02*
X124200000Y-103200000D01*
D10*
X120100000Y-110100000D02*
X125100000Y-110100000D01*
X124900000Y-113350000D02*
X125100000Y-113350000D01*
D14*
X124800000Y-110400000D02*
X123400000Y-110400000D01*
D10*
X117883682Y-108221471D02*
G75*
G03*
X120100000Y-110100000I2151318J291471D01*
G01*
X114599999Y-111800000D02*
G75*
G03*
X116700000Y-113700001I2000001J100000D01*
G01*
D16*
X117483682Y-108621471D02*
G75*
G03*
X119700000Y-110500000I2151318J291471D01*
G01*
D13*
X142100000Y-109500000D02*
X135400000Y-109500000D01*
D14*
X143800000Y-108000000D02*
X142400000Y-108000000D01*
D10*
X133800000Y-106160000D02*
X133600000Y-106160000D01*
D12*
X133700001Y-108500000D02*
X133700000Y-109399999D01*
D16*
X143400000Y-110700000D02*
X143400000Y-108200000D01*
D10*
X139100000Y-107700000D02*
X144100000Y-107700000D01*
D12*
X140870600Y-99350000D02*
X143200000Y-99350000D01*
D10*
X133830000Y-108400000D02*
X133830000Y-106160000D01*
X133600000Y-105800000D02*
X133600000Y-106160000D01*
X143900000Y-110950000D02*
X144100000Y-110950000D01*
D14*
X133800000Y-106000000D02*
X136500000Y-106000000D01*
D15*
X143900000Y-108600000D02*
X143900000Y-107900000D01*
D10*
X144100000Y-107700000D02*
X144100000Y-108700000D01*
X144100000Y-108700000D02*
X143900000Y-108700000D01*
D12*
X143200000Y-100800000D02*
X140870600Y-100800000D01*
D15*
X143900000Y-111100000D02*
X142500000Y-111100000D01*
D12*
X143200000Y-99350000D02*
X143200000Y-100800000D01*
D10*
X133600000Y-105800000D02*
X136880000Y-105800000D01*
X143880000Y-108700000D02*
X143880000Y-110950000D01*
X144100000Y-110950000D02*
X144100000Y-111300000D01*
X144100000Y-111300000D02*
X135700000Y-111300001D01*
X133600000Y-109400000D02*
X133600000Y-108400000D01*
D17*
X134200000Y-106300000D02*
X134200000Y-108100000D01*
D18*
X135330000Y-109800000D02*
X135330000Y-107560000D01*
D10*
X133600000Y-108400000D02*
X133800000Y-108400000D01*
D12*
X140870600Y-100800000D02*
X140870600Y-99350000D01*
D16*
X136483682Y-106221471D02*
G75*
G03*
X138700000Y-108100000I2151318J291471D01*
G01*
D10*
X136883682Y-105821471D02*
G75*
G03*
X139100000Y-107700000I2151318J291471D01*
G01*
X133599999Y-109400000D02*
G75*
G03*
X135700000Y-111300001I2000001J100000D01*
G01*
X152930000Y-105890000D02*
X152930000Y-103650000D01*
X163200000Y-108440000D02*
X163200000Y-108790000D01*
D14*
X162900000Y-105490000D02*
X161500000Y-105490000D01*
D12*
X159970600Y-98290000D02*
X159970600Y-96840000D01*
D10*
X152900000Y-103650000D02*
X152700000Y-103650000D01*
X152700000Y-103290000D02*
X155980000Y-103290000D01*
D14*
X152900000Y-103490000D02*
X155600000Y-103490000D01*
D12*
X159970600Y-96840000D02*
X162300000Y-96840000D01*
D10*
X162980000Y-106190000D02*
X162980000Y-108440000D01*
D15*
X163000000Y-106090000D02*
X163000000Y-105390000D01*
D10*
X163200000Y-108790000D02*
X154800000Y-108790001D01*
D15*
X163000000Y-108590000D02*
X161600000Y-108590000D01*
D12*
X152800001Y-105990000D02*
X152800000Y-106889999D01*
D10*
X152700000Y-105890000D02*
X152900000Y-105890000D01*
D18*
X154430000Y-107290000D02*
X154430000Y-105050000D01*
D16*
X162500000Y-108190000D02*
X162500000Y-105690000D01*
D10*
X163000000Y-108440000D02*
X163200000Y-108440000D01*
X163200000Y-106190000D02*
X163000000Y-106190000D01*
X163200000Y-105190000D02*
X163200000Y-106190000D01*
D12*
X162300000Y-98290000D02*
X159970600Y-98290000D01*
D10*
X158200000Y-105190000D02*
X163200000Y-105190000D01*
D13*
X161200000Y-106990000D02*
X154500000Y-106990000D01*
D17*
X153300000Y-103790000D02*
X153300000Y-105590000D01*
D10*
X152700000Y-106890000D02*
X152700000Y-105890000D01*
X152700000Y-103290000D02*
X152700000Y-103650000D01*
D12*
X162300000Y-96840000D02*
X162300000Y-98290000D01*
D16*
X155583682Y-103711471D02*
G75*
G03*
X157800000Y-105590000I2151318J291471D01*
G01*
D10*
X152699999Y-106890000D02*
G75*
G03*
X154800000Y-108790001I2000001J100000D01*
G01*
X155983682Y-103311471D02*
G75*
G03*
X158200000Y-105190000I2151318J291471D01*
G01*
D13*
X180200000Y-109500000D02*
X173500000Y-109500000D01*
D10*
X171930000Y-108400000D02*
X171930000Y-106160000D01*
D12*
X171800001Y-108500000D02*
X171800000Y-109399999D01*
D10*
X182200000Y-107700000D02*
X182200000Y-108700000D01*
X171700000Y-105800000D02*
X171700000Y-106160000D01*
X182200000Y-110950000D02*
X182200000Y-111300000D01*
X171700000Y-105800000D02*
X174980000Y-105800000D01*
D15*
X182000000Y-108600000D02*
X182000000Y-107900000D01*
D12*
X178970600Y-99350000D02*
X181300000Y-99350000D01*
D10*
X182200000Y-111300000D02*
X173800000Y-111300001D01*
X171900000Y-106160000D02*
X171700000Y-106160000D01*
D16*
X181500000Y-110700000D02*
X181500000Y-108200000D01*
D10*
X182200000Y-108700000D02*
X182000000Y-108700000D01*
D17*
X172300000Y-106300000D02*
X172300000Y-108100000D01*
D10*
X171700000Y-109400000D02*
X171700000Y-108400000D01*
D18*
X173430000Y-109800000D02*
X173430000Y-107560000D01*
D10*
X171700000Y-108400000D02*
X171900000Y-108400000D01*
X181980000Y-108700000D02*
X181980000Y-110950000D01*
D12*
X181300000Y-99350000D02*
X181300000Y-100800000D01*
D14*
X181900000Y-108000000D02*
X180500000Y-108000000D01*
D10*
X182000000Y-110950000D02*
X182200000Y-110950000D01*
D12*
X178970600Y-100800000D02*
X178970600Y-99350000D01*
D15*
X182000000Y-111100000D02*
X180600000Y-111100000D01*
D14*
X171900000Y-106000000D02*
X174600000Y-106000000D01*
D10*
X177200000Y-107700000D02*
X182200000Y-107700000D01*
D12*
X181300000Y-100800000D02*
X178970600Y-100800000D01*
D10*
X171699999Y-109400000D02*
G75*
G03*
X173800000Y-111300001I2000001J100000D01*
G01*
X174983682Y-105821471D02*
G75*
G03*
X177200000Y-107700000I2151318J291471D01*
G01*
D16*
X174583682Y-106221471D02*
G75*
G03*
X176800000Y-108100000I2151318J291471D01*
G01*
D15*
X201100000Y-117500000D02*
X201100000Y-116800000D01*
D10*
X201300000Y-117600000D02*
X201100000Y-117600000D01*
D12*
X198070600Y-108250000D02*
X200400000Y-108250000D01*
D10*
X201300000Y-119850000D02*
X201300000Y-120200000D01*
D12*
X190900001Y-117400000D02*
X190900000Y-118299999D01*
D10*
X191030000Y-117300000D02*
X191030000Y-115060000D01*
X190800000Y-114700000D02*
X194080000Y-114700000D01*
X201100000Y-119850000D02*
X201300000Y-119850000D01*
X201300000Y-116600000D02*
X201300000Y-117600000D01*
D14*
X191000000Y-114900000D02*
X193700000Y-114900000D01*
D10*
X201300000Y-120200000D02*
X192900000Y-120200001D01*
X196300000Y-116600000D02*
X201300000Y-116600000D01*
D13*
X199300000Y-118400000D02*
X192600000Y-118400000D01*
D12*
X198070600Y-109700000D02*
X198070600Y-108250000D01*
X200400000Y-109700000D02*
X198070600Y-109700000D01*
D10*
X191000000Y-115060000D02*
X190800000Y-115060000D01*
D12*
X200400000Y-108250000D02*
X200400000Y-109700000D01*
D10*
X201080000Y-117600000D02*
X201080000Y-119850000D01*
D17*
X191400000Y-115200000D02*
X191400000Y-117000000D01*
D16*
X200600000Y-119600000D02*
X200600000Y-117100000D01*
D10*
X190800000Y-114700000D02*
X190800000Y-115060000D01*
X190800000Y-117300000D02*
X191000000Y-117300000D01*
D18*
X192530000Y-118700000D02*
X192530000Y-116460000D01*
D14*
X201000000Y-116900000D02*
X199600000Y-116900000D01*
D10*
X190800000Y-118300000D02*
X190800000Y-117300000D01*
D15*
X201100000Y-120000000D02*
X199700000Y-120000000D01*
D16*
X193683682Y-115121471D02*
G75*
G03*
X195900000Y-117000000I2151318J291471D01*
G01*
D10*
X190799999Y-118300000D02*
G75*
G03*
X192900000Y-120200001I2000001J100000D01*
G01*
X194083682Y-114721471D02*
G75*
G03*
X196300000Y-116600000I2151318J291471D01*
G01*
D17*
X210450000Y-115200000D02*
X210450000Y-117000000D01*
D14*
X220050000Y-116900000D02*
X218650000Y-116900000D01*
D10*
X220350000Y-116600000D02*
X220350000Y-117600000D01*
X220350000Y-120200000D02*
X211950000Y-120200001D01*
X220350000Y-117600000D02*
X220150000Y-117600000D01*
D12*
X217120600Y-109700000D02*
X217120600Y-108250000D01*
D18*
X211580000Y-118700000D02*
X211580000Y-116460000D01*
D10*
X220150000Y-119850000D02*
X220350000Y-119850000D01*
X210050000Y-115060000D02*
X209850000Y-115060000D01*
X209850000Y-114700000D02*
X213130000Y-114700000D01*
X210080000Y-117300000D02*
X210080000Y-115060000D01*
X220350000Y-119850000D02*
X220350000Y-120200000D01*
D15*
X220150000Y-117500000D02*
X220150000Y-116800000D01*
D12*
X217120600Y-108250000D02*
X219450000Y-108250000D01*
X219450000Y-109700000D02*
X217120600Y-109700000D01*
D10*
X215350000Y-116600000D02*
X220350000Y-116600000D01*
X209850000Y-114700000D02*
X209850000Y-115060000D01*
X209850000Y-117300000D02*
X210050000Y-117300000D01*
D15*
X220150000Y-120000000D02*
X218750000Y-120000000D01*
D14*
X210050000Y-114900000D02*
X212750000Y-114900000D01*
D12*
X209950001Y-117400000D02*
X209950000Y-118299999D01*
D10*
X209850000Y-118300000D02*
X209850000Y-117300000D01*
X220130000Y-117600000D02*
X220130000Y-119850000D01*
D13*
X218350000Y-118400000D02*
X211650000Y-118400000D01*
D16*
X219650000Y-119600000D02*
X219650000Y-117100000D01*
D12*
X219450000Y-108250000D02*
X219450000Y-109700000D01*
D16*
X212733682Y-115121471D02*
G75*
G03*
X214950000Y-117000000I2151318J291471D01*
G01*
D10*
X209849999Y-118300000D02*
G75*
G03*
X211950000Y-120200001I2000001J100000D01*
G01*
X213133682Y-114721471D02*
G75*
G03*
X215350000Y-116600000I2151318J291471D01*
G01*
D14*
X89238378Y-137921115D02*
X91775548Y-136997661D01*
D12*
X96292984Y-129819724D02*
X94104064Y-130616426D01*
D10*
X100610212Y-139049786D02*
X100729919Y-139378679D01*
X89871288Y-140244782D02*
X90059227Y-140176378D01*
X88982036Y-137801581D02*
X92064227Y-136679755D01*
X89293101Y-138071466D02*
X89105163Y-138139870D01*
D12*
X95797055Y-128457170D02*
X96292984Y-129819724D01*
D10*
X88982036Y-137801581D02*
X89105163Y-138139870D01*
D12*
X94104064Y-130616426D02*
X93608135Y-129253872D01*
D10*
X99633934Y-137010722D02*
X100403480Y-139125031D01*
D14*
X99319345Y-136380299D02*
X98003775Y-136859127D01*
D13*
X98234898Y-138371272D02*
X91938957Y-140662807D01*
D10*
X90213308Y-141184474D02*
X89871288Y-140244782D01*
X99498646Y-135995785D02*
X99840667Y-136935478D01*
X100422273Y-139118190D02*
X100610212Y-139049786D01*
D18*
X91975785Y-140968656D02*
X91209659Y-138863745D01*
D10*
X100729919Y-139378679D02*
X92836501Y-142251649D01*
X94800183Y-137705886D02*
X99498646Y-135995785D01*
D15*
X99618526Y-136909913D02*
X99379112Y-136252128D01*
D12*
X93608135Y-129253872D02*
X95797055Y-128457170D01*
D17*
X89716861Y-138066215D02*
X90332498Y-139757662D01*
D12*
X89999460Y-140304548D02*
X90307277Y-141150271D01*
D10*
X99840667Y-136935478D02*
X99652728Y-137003882D01*
D16*
X99866922Y-139054277D02*
X99011872Y-136705046D01*
D10*
X90087417Y-140166117D02*
X89321292Y-138061205D01*
D15*
X100473576Y-139259144D02*
X99158007Y-139737972D01*
D10*
X92075031Y-136698671D02*
G75*
G03*
X94800183Y-137705886I1921889J1009687D01*
G01*
D16*
X91835963Y-137211357D02*
G75*
G03*
X94561114Y-138218571I1921888J1009688D01*
G01*
D10*
X90213307Y-141184475D02*
G75*
G03*
X92836501Y-142251649I1845184J778010D01*
G01*
D12*
X134705431Y-121928098D02*
X134553864Y-120486041D01*
D10*
X128497816Y-130222407D02*
X128263672Y-127994678D01*
D15*
X138794879Y-131855015D02*
X137402548Y-132001355D01*
D10*
X133665777Y-128975377D02*
X138638386Y-128452735D01*
X138742915Y-129447257D02*
X138544010Y-129468162D01*
X138779199Y-131705837D02*
X138978104Y-131684931D01*
X138638386Y-128452735D02*
X138742915Y-129447257D01*
X127997302Y-127660692D02*
X131259334Y-127317839D01*
X127997302Y-127660692D02*
X128034932Y-128018720D01*
X138524120Y-129470253D02*
X138759309Y-131707927D01*
X128373605Y-131240971D02*
X128269076Y-130246449D01*
D16*
X138255806Y-131509470D02*
X137994485Y-129023166D01*
D10*
X138978104Y-131684931D02*
X139014689Y-132033014D01*
D13*
X136837494Y-130451931D02*
X130174197Y-131152272D01*
D10*
X128269076Y-130246449D02*
X128467981Y-130225543D01*
D18*
X130135939Y-131457945D02*
X129901795Y-129230216D01*
D14*
X128217112Y-127838691D02*
X130902321Y-127556464D01*
D12*
X128378982Y-130335448D02*
X128473057Y-131230517D01*
D17*
X128646279Y-128095236D02*
X128834431Y-129885375D01*
D12*
X134553864Y-120486041D02*
X136870504Y-120242553D01*
D14*
X138371388Y-128782450D02*
X136979057Y-128928790D01*
D10*
X128233837Y-127997814D02*
X128034932Y-128018720D01*
D12*
X136870504Y-120242553D02*
X137022070Y-121684609D01*
X137022070Y-121684609D02*
X134705431Y-121928098D01*
D15*
X138533557Y-129368710D02*
X138460387Y-128672545D01*
D10*
X139014689Y-132033014D02*
X130660705Y-132911054D01*
X131265240Y-127338807D02*
G75*
G03*
X133665777Y-128975377I2109066J514748D01*
G01*
D16*
X130909243Y-127778427D02*
G75*
G03*
X133309779Y-129414997I2109066J514748D01*
G01*
D10*
X128373604Y-131240971D02*
G75*
G03*
X130660705Y-132911054I1978592J308509D01*
G01*
D12*
X157061034Y-119074131D02*
X157111638Y-120523248D01*
D10*
X158251896Y-127387635D02*
X158286796Y-128387026D01*
X158286796Y-128387026D02*
X158086918Y-128394006D01*
X158165441Y-130642635D02*
X158365320Y-130635655D01*
D15*
X158170676Y-130792544D02*
X156771529Y-130841403D01*
D13*
X156315934Y-129256337D02*
X149620015Y-129490164D01*
D10*
X147782722Y-128453653D02*
X147982600Y-128446673D01*
D12*
X157111638Y-120523248D02*
X154783657Y-120604543D01*
D15*
X158083428Y-128294066D02*
X158058998Y-127594493D01*
D12*
X154733053Y-119155426D02*
X157061034Y-119074131D01*
D10*
X147691984Y-125855237D02*
X150969985Y-125740767D01*
X153254942Y-127562132D02*
X158251896Y-127387635D01*
D16*
X157657021Y-130410237D02*
X157569772Y-127911760D01*
D12*
X147886152Y-128550102D02*
X147917561Y-129449553D01*
D10*
X147691984Y-125855237D02*
X147704547Y-126215018D01*
X147904426Y-126208038D02*
X147704547Y-126215018D01*
X158365320Y-130635655D02*
X158377534Y-130985442D01*
X158066930Y-128394704D02*
X158145454Y-130643333D01*
X147817622Y-129453044D02*
X147782722Y-128453653D01*
X148012582Y-128445626D02*
X147934407Y-126206991D01*
D18*
X149560528Y-129792424D02*
X149482353Y-127553789D01*
D17*
X148309068Y-126333993D02*
X148371887Y-128132896D01*
D14*
X147898842Y-126048135D02*
X150597197Y-125953907D01*
D10*
X158377534Y-130985442D02*
X149982652Y-131278599D01*
D14*
X157962549Y-127697922D02*
X156563402Y-127746781D01*
D12*
X154783657Y-120604543D02*
X154733053Y-119155426D01*
D10*
X147817620Y-129453044D02*
G75*
G03*
X149982652Y-131278599I1995293J169738D01*
G01*
D16*
X150588618Y-126175812D02*
G75*
G03*
X152869146Y-127975848I2139835J366373D01*
G01*
D10*
X150974415Y-125762096D02*
G75*
G03*
X153254942Y-127562132I2139835J366373D01*
G01*
X97175000Y-73279000D02*
X95397000Y-73279000D01*
X95397000Y-73279000D02*
X95397000Y-70993000D01*
X95397000Y-70993000D02*
X97175000Y-70993000D01*
X97175000Y-70993000D02*
X97175000Y-73279000D01*
X105080000Y-73330000D02*
X105080000Y-75870000D01*
X94920000Y-75870000D02*
X105080000Y-75870000D01*
X94920000Y-73330000D02*
X105080000Y-73330000D01*
X94920000Y-75870000D02*
X94920000Y-73330000D01*
X163700000Y-121200000D02*
X163700000Y-122200000D01*
X160500000Y-122450000D02*
X165900000Y-122450000D01*
X165900000Y-120950000D02*
X165900000Y-122450000D01*
X165900000Y-120950000D02*
X160500000Y-120950000D01*
X162700000Y-121200000D02*
X162700000Y-122200000D01*
X160500000Y-120950000D02*
X160500000Y-122450000D01*
X163700000Y-122200000D02*
X162800000Y-121700000D01*
X162800000Y-121700000D02*
X163700000Y-121200000D01*
D12*
X104560000Y-85952100D02*
X106010000Y-85952100D01*
X106010000Y-85952100D02*
X106010000Y-88402100D01*
X104560000Y-88402100D02*
X104560000Y-85982100D01*
X106010000Y-88402100D02*
X104560000Y-88402100D01*
D10*
X177650000Y-127200000D02*
X177650000Y-128200000D01*
D12*
X174420600Y-120300000D02*
X174420600Y-118850000D01*
D10*
X167150000Y-125300000D02*
X170430000Y-125300000D01*
X167150000Y-127900000D02*
X167350000Y-127900000D01*
D12*
X176750000Y-120300000D02*
X174420600Y-120300000D01*
D10*
X167150000Y-128900000D02*
X167150000Y-127900000D01*
X177650000Y-128200000D02*
X177450000Y-128200000D01*
X177430000Y-128200000D02*
X177430000Y-130450000D01*
D12*
X174420600Y-118850000D02*
X176750000Y-118850000D01*
D18*
X168880000Y-129300000D02*
X168880000Y-127060000D01*
D15*
X177450000Y-130600000D02*
X176050000Y-130600000D01*
D10*
X172650000Y-127200000D02*
X177650000Y-127200000D01*
D17*
X167750000Y-125800000D02*
X167750000Y-127600000D01*
D10*
X177650000Y-130450000D02*
X177650000Y-130800000D01*
X177650000Y-130800000D02*
X169250000Y-130800001D01*
D12*
X176750000Y-118850000D02*
X176750000Y-120300000D01*
D10*
X177450000Y-130450000D02*
X177650000Y-130450000D01*
D13*
X175650000Y-129000000D02*
X168950000Y-129000000D01*
D14*
X177350000Y-127500000D02*
X175950000Y-127500000D01*
X167350000Y-125500000D02*
X170050000Y-125500000D01*
D16*
X176950000Y-130200000D02*
X176950000Y-127700000D01*
D12*
X167250001Y-128000000D02*
X167250000Y-128899999D01*
D15*
X177450000Y-128100000D02*
X177450000Y-127400000D01*
D10*
X167380000Y-127900000D02*
X167380000Y-125660000D01*
X167350000Y-125660000D02*
X167150000Y-125660000D01*
X167150000Y-125300000D02*
X167150000Y-125660000D01*
D16*
X170033682Y-125721471D02*
G75*
G03*
X172250000Y-127600000I2151318J291471D01*
G01*
D10*
X167149999Y-128900000D02*
G75*
G03*
X169250000Y-130800001I2000001J100000D01*
G01*
X170433682Y-125321471D02*
G75*
G03*
X172650000Y-127200000I2151318J291471D01*
G01*
X118973214Y-131078049D02*
X119181126Y-132056197D01*
X114082476Y-132117607D02*
X118973214Y-131078049D01*
X108578110Y-131713192D02*
X108382480Y-131754774D01*
D16*
X118912246Y-134158030D02*
X118392467Y-131712661D01*
D18*
X110831474Y-134955545D02*
X110365752Y-132764494D01*
D13*
X117391160Y-133254538D02*
X110837571Y-134647546D01*
D10*
X108307632Y-131402641D02*
X108382480Y-131754774D01*
D14*
X108544844Y-131556689D02*
X111185842Y-130995327D01*
D10*
X119648927Y-134257029D02*
X119721696Y-134599380D01*
D15*
X118964705Y-131999964D02*
X118819167Y-131315261D01*
D10*
X108848202Y-133945825D02*
X109043832Y-133904243D01*
X109073176Y-133898005D02*
X108607454Y-131706955D01*
X119721696Y-134599380D02*
X111505256Y-136345840D01*
D12*
X114379794Y-125000261D02*
X114078322Y-123581947D01*
D14*
X118742143Y-131433867D02*
X117372737Y-131724943D01*
D12*
X116658291Y-124515951D02*
X114379794Y-125000261D01*
X116356819Y-123097637D02*
X116658291Y-124515951D01*
D10*
X108307632Y-131402641D02*
X111515956Y-130720691D01*
D12*
X108966809Y-134022848D02*
X109153929Y-134903181D01*
X114078322Y-123581947D02*
X116356819Y-123097637D01*
D10*
X119453298Y-134298611D02*
X119648927Y-134257029D01*
D17*
X108998476Y-131766968D02*
X109372717Y-133527634D01*
D10*
X109056114Y-134923973D02*
X108848202Y-133945825D01*
X119181126Y-132056197D02*
X118985496Y-132097779D01*
D15*
X119484484Y-134445333D02*
X118115078Y-134736410D01*
D10*
X118965933Y-132101937D02*
X119433735Y-134302769D01*
X111524022Y-130740927D02*
G75*
G03*
X114082476Y-132117607I2043706J732386D01*
G01*
D16*
X111215928Y-131215351D02*
G75*
G03*
X113774382Y-132592031I2043706J732386D01*
G01*
D10*
X109056113Y-134923973D02*
G75*
G03*
X111505256Y-136345840I1935505J513638D01*
G01*
X209800000Y-60200000D02*
X210000000Y-60200000D01*
X209800000Y-57600000D02*
X209800000Y-57960000D01*
D17*
X210400000Y-58100000D02*
X210400000Y-59900000D01*
D10*
X209800000Y-57600000D02*
X213080000Y-57600000D01*
X209800000Y-61200000D02*
X209800000Y-60200000D01*
X220300000Y-63100000D02*
X211900000Y-63100001D01*
D12*
X219400000Y-52600000D02*
X217070600Y-52600000D01*
D10*
X220300000Y-62750000D02*
X220300000Y-63100000D01*
D12*
X217070600Y-52600000D02*
X217070600Y-51150000D01*
D16*
X219600000Y-62500000D02*
X219600000Y-60000000D01*
D12*
X209900001Y-60300000D02*
X209900000Y-61199999D01*
D10*
X210000000Y-57960000D02*
X209800000Y-57960000D01*
D15*
X220100000Y-62900000D02*
X218700000Y-62900000D01*
D18*
X211530000Y-61600000D02*
X211530000Y-59360000D01*
D10*
X220100000Y-62750000D02*
X220300000Y-62750000D01*
X220300000Y-59500000D02*
X220300000Y-60500000D01*
D12*
X217070600Y-51150000D02*
X219400000Y-51150000D01*
D10*
X220300000Y-60500000D02*
X220100000Y-60500000D01*
X215300000Y-59500000D02*
X220300000Y-59500000D01*
X210030000Y-60200000D02*
X210030000Y-57960000D01*
D12*
X219400000Y-51150000D02*
X219400000Y-52600000D01*
D13*
X218300000Y-61300000D02*
X211600000Y-61300000D01*
D14*
X210000000Y-57800000D02*
X212700000Y-57800000D01*
D15*
X220100000Y-60400000D02*
X220100000Y-59700000D01*
D10*
X220080000Y-60500000D02*
X220080000Y-62750000D01*
D14*
X220000000Y-59800000D02*
X218600000Y-59800000D01*
D10*
X213083682Y-57621471D02*
G75*
G03*
X215300000Y-59500000I2151318J291471D01*
G01*
D16*
X212683682Y-58021471D02*
G75*
G03*
X214900000Y-59900000I2151318J291471D01*
G01*
D10*
X209799999Y-61200000D02*
G75*
G03*
X211900000Y-63100001I2000001J100000D01*
G01*
X100661000Y-84443000D02*
X100661000Y-82157000D01*
X102439000Y-82157000D02*
X102439000Y-84443000D01*
X102439000Y-84443000D02*
X100661000Y-84443000D01*
X100661000Y-82157000D02*
X102439000Y-82157000D01*
D11*
X92090000Y-80459420D02*
X92090000Y-80740580D01*
X93110000Y-80459420D02*
X93110000Y-80740580D01*
D10*
X100889000Y-82157000D02*
X100889000Y-84443000D01*
X99111000Y-82157000D02*
X100889000Y-82157000D01*
X99111000Y-84443000D02*
X99111000Y-82157000D01*
X100889000Y-84443000D02*
X99111000Y-84443000D01*
D11*
X94522500Y-80362742D02*
X94522500Y-80837258D01*
X93477500Y-80362742D02*
X93477500Y-80837258D01*
X93115000Y-92280000D02*
X92260000Y-92280000D01*
X89140000Y-83120000D02*
X88190000Y-83120000D01*
X89140000Y-92280000D02*
X88190000Y-92280000D01*
X93115000Y-83120000D02*
X92260000Y-83120000D01*
X88190000Y-83120000D02*
X88190000Y-92280000D01*
D10*
X95600000Y-111060000D02*
X95400000Y-111060000D01*
D12*
X95500001Y-113400000D02*
X95500000Y-114299999D01*
D10*
X95400000Y-114300000D02*
X95400000Y-113300000D01*
X95400000Y-110700000D02*
X95400000Y-111060000D01*
X95400000Y-113300000D02*
X95600000Y-113300000D01*
D12*
X102670600Y-104250000D02*
X105000000Y-104250000D01*
D14*
X105600000Y-112900000D02*
X104200000Y-112900000D01*
D10*
X105900000Y-113600000D02*
X105700000Y-113600000D01*
X105900000Y-115850000D02*
X105900000Y-116200000D01*
D12*
X102670600Y-105700000D02*
X102670600Y-104250000D01*
D10*
X105900000Y-112600000D02*
X105900000Y-113600000D01*
D15*
X105700000Y-113500000D02*
X105700000Y-112800000D01*
D12*
X105000000Y-104250000D02*
X105000000Y-105700000D01*
D10*
X100900000Y-112600000D02*
X105900000Y-112600000D01*
D12*
X105000000Y-105700000D02*
X102670600Y-105700000D01*
D16*
X105200000Y-115600000D02*
X105200000Y-113100000D01*
D18*
X97130000Y-114700000D02*
X97130000Y-112460000D01*
D10*
X95630000Y-113300000D02*
X95630000Y-111060000D01*
D13*
X103900000Y-114400000D02*
X97200000Y-114400000D01*
D10*
X105700000Y-115850000D02*
X105900000Y-115850000D01*
D14*
X95600000Y-110900000D02*
X98300000Y-110900000D01*
D10*
X105900000Y-116200000D02*
X97500000Y-116200001D01*
D15*
X105700000Y-116000000D02*
X104300000Y-116000000D01*
D10*
X95400000Y-110700000D02*
X98680000Y-110700000D01*
D17*
X96000000Y-111200000D02*
X96000000Y-113000000D01*
D10*
X105680000Y-113600000D02*
X105680000Y-115850000D01*
X95399999Y-114300000D02*
G75*
G03*
X97500000Y-116200001I2000001J100000D01*
G01*
D16*
X98283682Y-111121471D02*
G75*
G03*
X100500000Y-113000000I2151318J291471D01*
G01*
D10*
X98683682Y-110721471D02*
G75*
G03*
X100900000Y-112600000I2151318J291471D01*
G01*
D11*
X104750000Y-77000000D02*
X107550000Y-77000000D01*
X104100000Y-78300000D02*
X104100000Y-77700000D01*
X108200000Y-77700000D02*
X108200000Y-78300000D01*
X107550000Y-79000000D02*
X104750000Y-79000000D01*
X108200000Y-77700000D02*
G75*
G03*
X107500000Y-77000000I-700000J0D01*
G01*
X107500000Y-79000000D02*
G75*
G03*
X108200000Y-78300000I0J700000D01*
G01*
X104800000Y-77000000D02*
G75*
G03*
X104100000Y-77700000I-1J-699999D01*
G01*
X104100000Y-78300000D02*
G75*
G03*
X104800000Y-79000000I699999J-1D01*
G01*
D19*
X91670000Y-41230000D03*
X91670000Y-43770000D03*
X91670000Y-46310000D03*
X91670000Y-48850000D03*
X91670000Y-51390000D03*
X91670000Y-53930000D03*
X91670000Y-56470000D03*
X91670000Y-59010000D03*
X91670000Y-61550000D03*
X91670000Y-64090000D03*
X91670000Y-66630000D03*
X91670000Y-69170000D03*
X106910000Y-69170000D03*
X106910000Y-66630000D03*
X106910000Y-64090000D03*
X106910000Y-61550000D03*
X106910000Y-59010000D03*
X106910000Y-56470000D03*
X106910000Y-53930000D03*
X106910000Y-51390000D03*
X106910000Y-48850000D03*
X106910000Y-46310000D03*
X106910000Y-43770000D03*
X106910000Y-41230000D03*
D20*
X96190000Y-74600000D03*
X98730000Y-74600000D03*
X101270000Y-74600000D03*
X103810000Y-74600000D03*
M02*
