M48
; DRILL file {KiCad (6.0.8)} date Tue 04 Oct 2022 10:09:15 PM CEST
; FORMAT={-:-/ absolute / inch / decimal}
; #@! TF.CreationDate,2022-10-04T22:09:15+02:00
; #@! TF.GenerationSoftware,Kicad,Pcbnew,(6.0.8)
; #@! TF.FileFunction,Plated,1,2,PTH
FMAT,2
INCH
; #@! TA.AperFunction,Plated,PTH,ViaDrill
T1C0.0118
; #@! TA.AperFunction,Plated,PTH,ComponentDrill
T2C0.0236
; #@! TA.AperFunction,Plated,PTH,ComponentDrill
T3C0.0320
; #@! TA.AperFunction,Plated,PTH,ComponentDrill
T4C0.0512
; #@! TA.AperFunction,Plated,PTH,ComponentDrill
T5C0.0866
; #@! TA.AperFunction,Plated,PTH,ComponentDrill
T6C0.1614
%
G90
G05
T1
X3.2538Y-5.093
X3.3538Y-4.893
X3.3538Y-5.293
X3.4213Y-5.1732
X3.4213Y-5.314
X3.4538Y-4.693
X3.4538Y-5.593
X3.4661Y-5.4169
X3.4858Y-5.2228
X3.4917Y-5.1638
X3.5Y-3.6614
X3.5039Y-1.8728
X3.5039Y-2.9449
X3.5039Y-3.7047
X3.5043Y-2.1929
X3.5043Y-2.8228
X3.5079Y-3.3386
X3.5079Y-3.4528
X3.5079Y-3.563
X3.5091Y-2.4961
X3.5118Y-3.0709
X3.5177Y-4.0972
X3.5205Y-1.5118
X3.5252Y-4.3358
X3.5394Y-3.9488
X3.5648Y-5.5713
X3.5984Y-5.2693
X3.6457Y-3.3425
X3.6457Y-3.563
X3.6528Y-2.8299
X3.6531Y-2.926
X3.6538Y-4.493
X3.6538Y-5.693
X3.6575Y-4.0827
X3.6575Y-4.2205
X3.6772Y-4.0102
X3.6791Y-4.9354
X3.7Y-4.2854
X3.7008Y-3.0433
X3.7146Y-2.8201
X3.7161Y-1.6071
X3.7169Y-1.9232
X3.7315Y-2.2654
X3.7319Y-2.0843
X3.7323Y-2.4488
X3.7343Y-1.8087
X3.7382Y-2.7323
X3.7413Y-2.5512
X3.748Y-1.7232
X3.7487Y-2.7971
X3.7538Y-3.893
X3.7598Y-5.4331
X3.7638Y-4.5165
X3.7656Y-1.8703
X3.7677Y-3.2087
X3.7782Y-5.0588
X3.7835Y-3.6614
X3.789Y-5.2071
X3.792Y-2.7971
X3.7933Y-3.4567
X3.7943Y-3.5453
X3.7972Y-2.9921
X3.8008Y-1.7165
X3.8134Y-5.026
X3.8173Y-4.1535
X3.8193Y-1.9945
X3.8209Y-3.4823
X3.826Y-1.8169
X3.8307Y-3.5827
X3.8346Y-1.9232
X3.8346Y-3.3465
X3.8346Y-4.1028
X3.8376Y-3.1742
X3.8386Y-2.8079
X3.8386Y-4.9831
X3.8396Y-3.0482
X3.8484Y-2.2311
X3.8504Y-5.0882
X3.8538Y-1.493
X3.8538Y-2.093
X3.8538Y-2.493
X3.8538Y-4.693
X3.8538Y-5.593
X3.8894Y-2.7953
X3.8933Y-2.7307
X3.9217Y-2.2953
X3.9252Y-3.4803
X3.9323Y-2.437
X3.9331Y-2.5524
X3.9492Y-2.0894
X3.9538Y-3.693
X3.9575Y-2.1457
X3.9654Y-1.7209
X3.9685Y-1.9232
X3.9724Y-4.9134
X3.9724Y-5.1496
X3.9744Y-1.8165
X3.9825Y-1.9695
X3.987Y-2.7953
X3.9909Y-3.0524
X3.9921Y-4.4528
X4.0004Y-5.3063
X4.0161Y-2.7213
X4.0165Y-1.6457
X4.0236Y-2.9823
X4.0315Y-2.7839
X4.0354Y-5.0709
X4.0394Y-3.3661
X4.0516Y-1.6209
X4.0538Y-2.293
X4.0538Y-3.493
X4.0538Y-3.893
X4.0538Y-4.993
X4.0538Y-5.493
X4.0551Y-2.7213
X4.0563Y-1.8189
X4.0594Y-2.4413
X4.0626Y-1.9232
X4.0654Y-2.5504
X4.0657Y-1.7193
X4.0661Y-2.087
X4.0906Y-3.2362
X4.1083Y-2.2504
X4.1098Y-2.0205
X4.1122Y-1.585
X4.122Y-3.622
X4.1228Y-3.163
X4.1236Y-3.013
X4.1287Y-1.6705
X4.1303Y-2.4417
X4.1339Y-2.3732
X4.1339Y-2.7126
X4.1362Y-2.5701
X4.1382Y-2.172
X4.1391Y-2.6486
X4.1394Y-1.724
X4.1413Y-4.1063
X4.1457Y-1.9232
X4.1504Y-1.8181
X4.1538Y-1.493
X4.1538Y-2.093
X4.1538Y-2.493
X4.1538Y-4.593
X4.1538Y-5.293
X4.1598Y-2.2724
X4.1762Y-5.0709
X4.1772Y-3.1654
X4.1772Y-3.5197
X4.178Y-4.1075
X4.1781Y-3.2038
X4.2039Y-2.811
X4.2063Y-4.8236
X4.2087Y-2.9669
X4.2185Y-5.1563
X4.2402Y-3.1299
X4.2538Y-4.093
X4.2559Y-4.9567
X4.2567Y-3.9618
X4.2638Y-4.4165
X4.2795Y-3.115
X4.2799Y-2.9024
X4.2835Y-4.9091
X4.285Y-3.385
X4.3047Y-5.3265
X4.311Y-3.7244
X4.3138Y-3.9642
X4.3193Y-2.1953
X4.3217Y-4.276
X4.3232Y-2.1193
X4.3538Y-1.693
X4.3538Y-2.293
X4.3538Y-2.593
X4.3538Y-4.693
X4.3538Y-5.393
X4.3571Y-3.9807
X4.3654Y-3.3461
X4.3811Y-4.4638
X4.3839Y-3.1429
X4.3858Y-3.1886
X4.3866Y-3.3087
X4.3941Y-3.1075
X4.4063Y-3.5047
X4.4094Y-3.9754
X4.4094Y-4.1142
X4.411Y-3.6433
X4.4142Y-3.9118
X4.4264Y-2.8957
X4.4283Y-3.0764
X4.4437Y-1.9386
X4.4538Y-1.493
X4.4606Y-4.235
X4.489Y-3.3862
X4.5079Y-5.2126
X4.5197Y-2.1701
X4.5197Y-2.922
X4.5197Y-3.6701
X4.5197Y-4.4181
X4.5209Y-1.7992
X4.5425Y-4.5575
X4.5528Y-1.6425
X4.5669Y-1.7283
X4.5709Y-2.5394
X4.5748Y-2.4803
X4.5783Y-4.0618
X4.5827Y-3.252
X4.5827Y-3.3193
X4.5827Y-4.9921
X4.5874Y-4.0004
X4.5982Y-4.8819
X4.6047Y-3.1787
X4.6264Y-3.4161
X4.6276Y-4.8291
X4.6538Y-1.593
X4.6538Y-2.293
X4.6538Y-3.093
X4.6538Y-3.793
X4.6538Y-5.393
X4.7071Y-4.7051
X4.7087Y-4.7717
X4.7362Y-4.9528
X4.7429Y-2.1067
X4.7441Y-4.3622
X4.7469Y-3.5961
X4.7538Y-2.893
X4.773Y-5.1247
X4.8189Y-4.9213
X4.8535Y-3.4154
X4.8538Y-1.493
X4.8538Y-2.693
X4.8538Y-4.193
X4.8538Y-4.793
X4.8538Y-5.093
X4.8924Y-1.7569
X4.8935Y-3.2555
X4.8976Y-4.0197
X4.9016Y-1.7047
X4.9063Y-3.9799
X4.9134Y-2.4528
X4.9209Y-2.2854
X4.9291Y-3.2197
X4.9311Y-3.3335
X4.9319Y-3.9106
X4.9417Y-3.7472
X4.9453Y-2.5807
X4.9538Y-1.793
X4.9538Y-4.493
X4.9538Y-5.293
X4.9587Y-2.4587
X4.9606Y-4.9213
X4.9661Y-3.0846
X4.9681Y-4.1362
X4.9772Y-2.987
X4.9921Y-2.3244
X4.9976Y-2.2606
X5.0016Y-5.0063
X5.0197Y-2.0701
X5.0197Y-2.822
X5.0197Y-3.5701
X5.0197Y-4.3181
X5.024Y-3.915
X5.0394Y-2.4858
X5.0394Y-2.6236
X5.0465Y-2.6843
X5.0472Y-4.7953
X5.0524Y-2.1429
X5.0538Y-1.993
X5.0551Y-3.3701
X5.0591Y-3.2283
X5.0598Y-2.8965
X5.0606Y-4.1161
X5.0636Y-5.1826
X5.0646Y-3.0142
X5.065Y-3.7118
X5.0669Y-1.874
X5.0709Y-1.7323
X5.0886Y-4.7622
X5.1063Y-4.9016
X5.1091Y-3.2972
X5.1091Y-3.5291
X5.1097Y-2.4863
X5.1118Y-3.1744
X5.1142Y-2.6276
X5.1181Y-4.1742
X5.1201Y-4.0344
X5.1538Y-1.493
X5.1538Y-2.793
X5.1538Y-4.293
X5.1573Y-1.7323
X5.1575Y-1.874
X5.1654Y-3.3661
X5.1697Y-2.5228
X5.1703Y-3.2274
X5.2197Y-2.6547
X5.2201Y-3.8984
X5.2538Y-1.793
X5.2538Y-2.193
X5.2538Y-2.993
X5.2538Y-4.493
X5.2677Y-2.0717
X5.2677Y-2.8236
X5.2677Y-3.5717
X5.2677Y-4.3236
X5.2795Y-5.0945
X5.2886Y-3.6508
X5.2913Y-1.7008
X5.315Y-1.6339
X5.315Y-3.189
X5.3189Y-3.9606
X5.3228Y-2.4409
X5.3297Y-2.3809
X5.335Y-3.1547
X5.3362Y-3.9091
X5.3538Y-5.293
X5.3791Y-3.3
X5.3819Y-4.0677
X5.3878Y-2.5394
X5.3922Y-4.7338
X5.3961Y-4.6913
X5.4538Y-1.493
X5.4661Y-2.9295
X5.4768Y-4.7618
X5.4823Y-3.7508
X5.4886Y-3.5091
X5.4906Y-2.0075
X5.4921Y-4.2677
X5.4945Y-2.7665
X5.5185Y-4.9685
X5.5354Y-4.5709
X5.5472Y-4.9016
X5.5504Y-5.0309
X5.5538Y-2.193
X5.598Y-2.5453
X5.5988Y-4.785
X5.6Y-4.0657
X5.6059Y-4.8583
X5.6098Y-3.2961
X5.6339Y-4.6142
X5.6404Y-3.1585
X5.6443Y-1.6521
X5.6476Y-3.9311
X5.6538Y-1.793
X5.6538Y-2.993
X5.6538Y-4.493
X5.6538Y-4.893
X5.6538Y-5.193
X5.6551Y-3.8886
X5.6575Y-2.4134
X5.6654Y-2.378
X5.6732Y-1.5512
X5.6776Y-3.1189
X5.6858Y-1.7213
X5.6937Y-3.8209
X5.7331Y-2.5646
X5.735Y-2.4197
X5.7437Y-4.8583
X5.7598Y-4.5138
X5.7677Y-1.9717
X5.7677Y-2.2283
X5.7677Y-2.7236
X5.7677Y-3.4717
X5.7677Y-4.2236
X5.7783Y-4.9398
X5.8024Y-2.8039
X5.8067Y-2.6496
X5.8079Y-2.9961
X5.8106Y-3.2098
X5.8138Y-1.4378
X5.8138Y-3.7173
X5.8173Y-2.3866
X5.828Y-5.1128
X5.8425Y-4.7283
X5.8538Y-1.893
X5.8538Y-3.993
X5.8538Y-4.293
X5.8598Y-1.5803
X5.8709Y-3.4606
X5.8874Y-4.7005
X5.8957Y-3.1413
X5.8976Y-3.2835
X5.9016Y-3.5972
X5.9055Y-3.8106
X5.9055Y-3.9528
X5.9154Y-2.3343
X5.9173Y-2.4764
X5.9252Y-1.6246
X5.9252Y-1.7638
X5.9538Y-2.093
X5.9538Y-2.893
X5.9538Y-3.193
X5.9538Y-4.493
X5.9538Y-5.193
X5.9732Y-2.4047
X6.0197Y-1.9732
X6.0197Y-2.7248
X6.0197Y-3.4768
X6.0197Y-4.2248
X6.0512Y-5.0354
X6.0538Y-1.693
X6.0669Y-1.5827
X6.0669Y-3.0945
X6.0709Y-2.3425
X6.0709Y-3.8425
X6.0748Y-1.5433
X6.0799Y-3.0413
X6.0866Y-2.3031
X6.0886Y-3.8094
X6.1039Y-3.6161
X6.1343Y-2.4594
X6.1538Y-4.393
X6.1614Y-4.8386
X6.1887Y-4.683
X6.1917Y-1.4209
X6.1929Y-4.6406
X6.2291Y-2.8512
X6.2437Y-1.9039
X6.2441Y-4.1772
X6.2453Y-3.402
X6.2512Y-2.663
X6.2538Y-4.693
X6.2538Y-5.193
X6.3242Y-4.9954
X6.3307Y-3.6169
X6.3425Y-4.8819
X6.3538Y-1.693
X6.3538Y-2.093
X6.3538Y-2.493
X6.3538Y-3.993
X6.3538Y-4.493
X6.3543Y-4.7913
X6.3929Y-2.3123
X6.3992Y-3.8469
X6.4026Y-1.5896
X6.4161Y-3.7992
X6.4165Y-3.098
X6.4252Y-2.2992
X6.435Y-2.365
X6.437Y-1.563
X6.4538Y-1.493
X6.4538Y-2.793
X6.4538Y-4.893
X6.4571Y-3.0669
X6.4618Y-4.6748
X6.465Y-1.6201
X6.4717Y-3.7539
X6.4736Y-2.961
X6.4791Y-3.5528
X6.4819Y-2.4516
X6.4819Y-3.1579
X6.4961Y-4.7913
X6.5197Y-1.8732
X6.5197Y-2.2409
X6.5197Y-2.6248
X6.5197Y-3.3768
X6.5197Y-4.1248
X6.5429Y-4.9146
X6.5538Y-1.793
X6.5538Y-2.193
X6.5538Y-4.193
X6.5538Y-5.193
X6.5551Y-3.1606
X6.5583Y-2.4445
X6.5602Y-3.7551
X6.5638Y-2.3634
X6.5669Y-2.9606
X6.5886Y-5.0913
X6.6087Y-3.3764
X6.6114Y-2.6315
X6.6142Y-2.8189
X6.6299Y-4.7087
X6.6538Y-2.493
X6.6538Y-3.893
X6.6538Y-4.393
X6.6614Y-4.0906
X6.6629Y-4.6804
X6.6649Y-3.9532
X6.6654Y-1.7205
X6.6654Y-1.8583
X6.6732Y-2.436
X6.6732Y-2.5787
X6.6806Y-3.2131
X6.6811Y-3.3583
X6.7538Y-1.493
X6.7538Y-3.193
X6.7677Y-2.0717
X6.7677Y-2.8197
X6.7677Y-3.5717
X6.7677Y-4.3236
X6.8102Y-2.4382
X6.811Y-5.0236
X6.815Y-3.9409
X6.8181Y-2.363
X6.8189Y-3.189
X6.8307Y-1.7244
X6.8319Y-3.1567
X6.835Y-3.9063
X6.8386Y-1.6614
X6.8386Y-2.4055
X6.8538Y-1.793
X6.8538Y-2.193
X6.8538Y-3.693
X6.8538Y-4.493
X6.8538Y-5.193
X6.8654Y-2.5555
X6.8681Y-3.2917
X6.8976Y-2.9488
X6.9807Y-4.6811
X6.9882Y-4.2638
X6.9902Y-3.5024
X6.9941Y-2.011
X6.9941Y-2.7579
X7.0154Y-4.6846
X7.0201Y-4.7331
X7.0256Y-4.6193
X7.0538Y-1.493
X7.0543Y-4.824
X7.0886Y-4.9913
X7.1091Y-2.5594
X7.1417Y-5.1063
X7.1456Y-2.436
X7.1456Y-3.9512
X7.1457Y-4.8465
X7.1476Y-3.1976
X7.1496Y-1.6929
X7.1538Y-1.793
X7.1538Y-2.193
X7.1538Y-2.993
X7.1538Y-3.293
X7.1538Y-3.693
X7.1538Y-4.393
X7.1726Y-3.9203
X7.1787Y-3.1728
X7.1811Y-2.4134
X7.185Y-1.6575
X7.2386Y-4.6441
X7.2538Y-1.593
X7.2671Y-4.2237
X7.2677Y-1.9717
X7.2677Y-2.3571
X7.2677Y-2.7197
X7.2677Y-3.4717
X7.2937Y-4.0768
X7.2992Y-3.937
X7.3039Y-2.5815
X7.3039Y-3.2858
X7.3102Y-3.0701
X7.3346Y-2.7953
X7.3433Y-3.5445
X7.3538Y-1.893
X7.3538Y-2.293
X7.3538Y-3.793
X7.3538Y-4.193
X7.3538Y-4.493
X7.3538Y-5.193
X7.378Y-4.9803
X7.4016Y-2.0699
X7.4016Y-2.2126
X7.4094Y-2.8622
X7.4114Y-2.7205
X7.4173Y-4.437
X7.4173Y-4.7205
X7.4213Y-3.6929
X7.4218Y-4.2948
X7.4232Y-3.5531
X7.4398Y-3.161
X7.4524Y-3.4122
X7.4524Y-4.1866
X7.4538Y-1.693
X7.4538Y-2.493
X7.4538Y-2.993
X7.4538Y-3.993
X7.4646Y-2.7126
X7.5197Y-2.426
X7.5197Y-3.1701
X7.5197Y-3.926
X7.5197Y-4.674
X7.5669Y-3.5433
X7.5709Y-2.0433
X7.5709Y-2.7874
X7.5709Y-4.2913
X7.5846Y-3.5047
X7.5866Y-2.0079
X7.5906Y-2.7559
X7.5917Y-4.261
X7.6181Y-2.8976
X7.622Y-4.8465
X7.6538Y-1.593
X7.6538Y-2.593
X7.6538Y-3.293
X7.6538Y-4.093
X7.7417Y-3.098
X7.7461Y-4.5965
X7.7469Y-2.3622
X7.7538Y-1.793
X7.7538Y-3.893
X7.7538Y-5.093
X7.8538Y-2.193
X7.8538Y-3.693
X7.8969Y-3.5126
X7.901Y-4.2904
X7.9016Y-2.0118
X7.9126Y-4.2398
X7.9134Y-2.7638
X7.9295Y-3.4764
X7.9315Y-4.1701
X7.9331Y-1.9528
X7.9498Y-2.7274
X7.9538Y-1.693
X7.9538Y-2.893
X7.9539Y-3.5791
X7.9681Y-3.3539
X7.9685Y-2.815
X7.9685Y-4.8465
X7.9795Y-4.3016
X8.0114Y-4.174
X8.0157Y-4.752
X8.0197Y-2.326
X8.0197Y-3.0701
X8.0197Y-3.3984
X8.0197Y-3.826
X8.0197Y-4.574
X8.0538Y-1.893
X8.0538Y-2.393
X8.0634Y-3.3756
X8.0717Y-3.5787
X8.0787Y-2.8937
X8.0866Y-2.8031
X8.0945Y-4.4173
X8.0961Y-4.3012
X8.1165Y-3.1528
X8.1181Y-3.8366
X8.174Y-4.989
X8.1772Y-2.9724
X8.1781Y-2.8317
X8.1791Y-2.061
X8.1791Y-3.563
X8.1811Y-2.2008
X8.1811Y-3.7047
X8.1969Y-4.315
X8.1969Y-4.4567
X8.2287Y-4.148
X8.2538Y-1.793
X8.2538Y-2.093
X8.2538Y-2.493
X8.2677Y-3.1701
X8.2677Y-3.926
X8.2697Y-4.674
X8.2717Y-2.426
X8.2835Y-3.5602
X8.2874Y-2.8031
X8.2957Y-3.3898
X8.3189Y-2.0433
X8.3228Y-4.315
X8.3346Y-2.0079
X8.3382Y-3.5142
X8.3386Y-2.752
X8.3417Y-4.263
X8.3583Y-4.8465
X8.4457Y-4.0705
X8.4538Y-2.593
X8.4909Y-4.6138
X8.4913Y-2.3587
X8.4925Y-3.1008
X8.4933Y-3.8598
X8.5538Y-1.793
X8.5538Y-3.293
X8.6213Y-4.8161
X8.6456Y-2.7864
X8.6496Y-4.1969
X8.6547Y-4.2638
X8.6566Y-3.5158
X8.6604Y-2.0423
X8.6768Y-3.4819
X8.6821Y-2.7274
X8.689Y-4.3701
X8.6909Y-4.2614
X8.7126Y-2.0315
X8.7185Y-3.5898
X8.7213Y-2.8508
X8.722Y-4.0783
X8.7461Y-3.3189
X8.751Y-3.0701
X8.7522Y-3.826
X8.7526Y-2.326
X8.7538Y-1.893
X8.7697Y-4.574
X8.8173Y-4.1457
X8.8354Y-4.8409
X8.8362Y-4.4748
X8.8398Y-2.5677
X8.8398Y-3.226
X8.8413Y-2.1122
X8.8421Y-2.8772
X8.8429Y-3.6098
X8.8457Y-3.9862
T3
X3.6091Y-1.6232
X3.6091Y-1.7232
X3.6091Y-1.8232
X3.6091Y-1.9232
X3.6091Y-2.0232
X3.6091Y-2.1232
X3.6091Y-2.2232
X3.6091Y-2.3232
X3.6091Y-2.4232
X3.6091Y-2.5232
X3.6091Y-2.6232
X3.6091Y-2.7232
X3.6602Y-1.6703
X3.6602Y-1.7703
X3.6602Y-1.8703
X3.6602Y-1.9703
X3.6602Y-2.0703
X3.6602Y-2.1703
X3.6602Y-2.2703
X3.6602Y-2.3703
X3.6602Y-2.4703
X3.6602Y-2.5703
X3.6602Y-2.6703
X3.6602Y-2.7703
X3.787Y-2.937
X3.887Y-2.937
X3.987Y-2.937
X4.087Y-2.937
X4.2091Y-1.6232
X4.2091Y-1.7232
X4.2091Y-1.8232
X4.2091Y-1.9232
X4.2091Y-2.0232
X4.2091Y-2.1232
X4.2091Y-2.2232
X4.2091Y-2.3232
X4.2091Y-2.4232
X4.2091Y-2.5232
X4.2091Y-2.6232
X4.2091Y-2.7232
X4.2602Y-1.6703
X4.2602Y-1.7703
X4.2602Y-1.8703
X4.2602Y-1.9703
X4.2602Y-2.0703
X4.2602Y-2.1703
X4.2602Y-2.2703
X4.2602Y-2.3703
X4.2602Y-2.4703
X4.2602Y-2.5703
X4.2602Y-2.6703
X4.2602Y-2.7703
T4
X3.5433Y-2.8839
X3.5433Y-3.1398
T5
X3.6024Y-3.7992
X4.2126Y-3.7992
T6
X3.5709Y-4.8071
X5.1181Y-2.2441
X5.1181Y-3.8386
X8.1102Y-2.5827
X8.1102Y-4.0984
T2
G00X3.5472Y-3.2827
M15
G01X3.5984Y-3.2827
M16
G05
G00X3.5984Y-3.2827
M15
G01X3.5472Y-3.2827
M16
G05
G00X3.5472Y-3.6228
M15
G01X3.5984Y-3.6228
M16
G05
G00X3.5984Y-3.6228
M15
G01X3.5472Y-3.6228
M16
G05
G00X3.7037Y-3.2827
M15
G01X3.7431Y-3.2827
M16
G05
G00X3.7431Y-3.2827
M15
G01X3.7037Y-3.2827
M16
G05
G00X3.7037Y-3.6228
M15
G01X3.7431Y-3.6228
M16
G05
G00X3.7431Y-3.6228
M15
G01X3.7037Y-3.6228
M16
G05
T0
M30
