G04 #@! TF.GenerationSoftware,KiCad,Pcbnew,(6.0.8)*
G04 #@! TF.CreationDate,2022-10-04T22:09:12+02:00*
G04 #@! TF.ProjectId,SofleKeyboard,536f666c-654b-4657-9962-6f6172642e6b,rev?*
G04 #@! TF.SameCoordinates,Original*
G04 #@! TF.FileFunction,Legend,Bot*
G04 #@! TF.FilePolarity,Positive*
%FSLAX46Y46*%
G04 Gerber Fmt 4.6, Leading zero omitted, Abs format (unit mm)*
G04 Created by KiCad (PCBNEW (6.0.8)) date 2022-10-04 22:09:12*
%MOMM*%
%LPD*%
G01*
G04 APERTURE LIST*
%ADD10C,0.150000*%
%ADD11C,0.300000*%
%ADD12C,0.400000*%
%ADD13C,1.000000*%
%ADD14C,0.500000*%
%ADD15C,3.500000*%
%ADD16C,3.000000*%
%ADD17C,0.800000*%
%ADD18C,0.120000*%
%ADD19C,1.524000*%
G04 APERTURE END LIST*
D10*
X184151904Y-96566666D02*
X184151904Y-96185714D01*
X183351904Y-96185714D01*
X184151904Y-96833333D02*
X183618571Y-96833333D01*
X183351904Y-96833333D02*
X183390000Y-96795238D01*
X183428095Y-96833333D01*
X183390000Y-96871428D01*
X183351904Y-96833333D01*
X183428095Y-96833333D01*
X183618571Y-97557142D02*
X184266190Y-97557142D01*
X184342380Y-97519047D01*
X184380476Y-97480952D01*
X184418571Y-97404761D01*
X184418571Y-97290476D01*
X184380476Y-97214285D01*
X184113809Y-97557142D02*
X184151904Y-97480952D01*
X184151904Y-97328571D01*
X184113809Y-97252380D01*
X184075714Y-97214285D01*
X183999523Y-97176190D01*
X183770952Y-97176190D01*
X183694761Y-97214285D01*
X183656666Y-97252380D01*
X183618571Y-97328571D01*
X183618571Y-97480952D01*
X183656666Y-97557142D01*
X184151904Y-97938095D02*
X183351904Y-97938095D01*
X184151904Y-98280952D02*
X183732857Y-98280952D01*
X183656666Y-98242857D01*
X183618571Y-98166666D01*
X183618571Y-98052380D01*
X183656666Y-97976190D01*
X183694761Y-97938095D01*
X183618571Y-98547619D02*
X183618571Y-98852380D01*
X183351904Y-98661904D02*
X184037619Y-98661904D01*
X184113809Y-98700000D01*
X184151904Y-98776190D01*
X184151904Y-98852380D01*
X184113809Y-99690476D02*
X184151904Y-99804761D01*
X184151904Y-99995238D01*
X184113809Y-100071428D01*
X184075714Y-100109523D01*
X183999523Y-100147619D01*
X183923333Y-100147619D01*
X183847142Y-100109523D01*
X183809047Y-100071428D01*
X183770952Y-99995238D01*
X183732857Y-99842857D01*
X183694761Y-99766666D01*
X183656666Y-99728571D01*
X183580476Y-99690476D01*
X183504285Y-99690476D01*
X183428095Y-99728571D01*
X183390000Y-99766666D01*
X183351904Y-99842857D01*
X183351904Y-100033333D01*
X183390000Y-100147619D01*
X184113809Y-100795238D02*
X184151904Y-100719047D01*
X184151904Y-100566666D01*
X184113809Y-100490476D01*
X184037619Y-100452380D01*
X183732857Y-100452380D01*
X183656666Y-100490476D01*
X183618571Y-100566666D01*
X183618571Y-100719047D01*
X183656666Y-100795238D01*
X183732857Y-100833333D01*
X183809047Y-100833333D01*
X183885238Y-100452380D01*
X184151904Y-101290476D02*
X184113809Y-101214285D01*
X184037619Y-101176190D01*
X183351904Y-101176190D01*
X209012558Y-124709637D02*
X208770636Y-123739341D01*
X208596717Y-124813318D02*
X208469996Y-124305067D01*
X208493160Y-124201138D01*
X208574049Y-124131893D01*
X208712663Y-124097333D01*
X208816592Y-124120498D01*
X208874317Y-124155182D01*
X208112004Y-124247094D02*
X207742367Y-124339255D01*
X207892749Y-123958223D02*
X208100111Y-124789905D01*
X208076946Y-124893834D01*
X207996057Y-124963079D01*
X207903648Y-124986119D01*
X207557549Y-124385335D02*
X207187912Y-124477496D01*
X207338295Y-124096464D02*
X207545656Y-124928146D01*
X207522492Y-125032075D01*
X207441603Y-125101320D01*
X207349194Y-125124360D01*
X206864480Y-124558137D02*
X207106402Y-125528433D01*
X206876001Y-124604341D02*
X206772071Y-124581177D01*
X206587253Y-124627257D01*
X206506364Y-124696502D01*
X206471680Y-124754227D01*
X206448515Y-124858156D01*
X206517636Y-125135383D01*
X206586881Y-125216272D01*
X206644605Y-125250957D01*
X206748534Y-125274121D01*
X206933353Y-125228041D01*
X207014242Y-125158796D01*
X206182560Y-125366158D02*
X206101671Y-125435402D01*
X205916852Y-125481483D01*
X205812923Y-125458318D01*
X205743678Y-125377429D01*
X205732158Y-125331225D01*
X205755323Y-125227296D01*
X205836212Y-125158051D01*
X205974825Y-125123491D01*
X206055714Y-125054246D01*
X206078879Y-124950317D01*
X206067359Y-124904112D01*
X205998114Y-124823223D01*
X205894185Y-124800059D01*
X205755571Y-124834619D01*
X205674682Y-124903864D01*
X205339357Y-125527315D02*
X205304673Y-125585039D01*
X205362398Y-125619724D01*
X205397082Y-125561999D01*
X205339357Y-125527315D01*
X205362398Y-125619724D01*
X205212636Y-125019065D02*
X205177952Y-125076789D01*
X205235677Y-125111474D01*
X205270361Y-125053749D01*
X205212636Y-125019065D01*
X205235677Y-125111474D01*
X203953842Y-124891226D02*
X205096566Y-125931387D01*
X202937341Y-125144668D02*
X204080066Y-126184829D01*
X202290229Y-125698626D02*
X202486071Y-126484103D01*
X202555315Y-126564992D01*
X202613040Y-126599677D01*
X202716969Y-126622841D01*
X202855583Y-126588281D01*
X202936472Y-126519036D01*
X202439990Y-126299285D02*
X202543920Y-126322449D01*
X202728738Y-126276369D01*
X202809627Y-126207124D01*
X202844311Y-126149400D01*
X202867476Y-126045470D01*
X202798355Y-125768243D01*
X202729110Y-125687354D01*
X202671386Y-125652670D01*
X202567457Y-125629505D01*
X202382638Y-125675586D01*
X202301749Y-125744830D01*
X201989465Y-126460690D02*
X201828184Y-125813827D01*
X201747543Y-125490395D02*
X201805268Y-125525079D01*
X201770583Y-125582804D01*
X201712858Y-125548119D01*
X201747543Y-125490395D01*
X201770583Y-125582804D01*
X201504752Y-125894467D02*
X201135115Y-125986628D01*
X201285497Y-125605596D02*
X201492859Y-126437278D01*
X201469695Y-126541207D01*
X201388806Y-126610452D01*
X201296396Y-126633492D01*
X200972965Y-126714132D02*
X200731043Y-125743837D01*
X200557124Y-126817813D02*
X200430403Y-126309563D01*
X200453567Y-126205634D01*
X200534456Y-126136389D01*
X200673070Y-126101829D01*
X200776999Y-126124993D01*
X200834723Y-126159678D01*
X199517956Y-126389831D02*
X199679237Y-127036695D01*
X199933797Y-126286150D02*
X200060518Y-126794400D01*
X200037353Y-126898330D01*
X199956464Y-126967574D01*
X199817851Y-127002135D01*
X199713921Y-126978970D01*
X199656197Y-126944286D01*
X199217191Y-127151896D02*
X198975269Y-126181600D01*
X199067430Y-126551237D02*
X198963501Y-126528072D01*
X198778683Y-126574153D01*
X198697794Y-126643397D01*
X198663109Y-126701122D01*
X198639945Y-126805051D01*
X198709065Y-127082279D01*
X198778310Y-127163168D01*
X198836035Y-127197852D01*
X198939964Y-127221016D01*
X199124782Y-127174936D01*
X199205671Y-127105691D01*
X198316265Y-127278368D02*
X198281580Y-127336093D01*
X198339305Y-127370778D01*
X198373989Y-127313053D01*
X198316265Y-127278368D01*
X198339305Y-127370778D01*
X197449898Y-127543455D02*
X197553827Y-127566619D01*
X197738645Y-127520539D01*
X197819535Y-127451294D01*
X197854219Y-127393569D01*
X197877383Y-127289640D01*
X197808263Y-127012413D01*
X197739018Y-126931524D01*
X197681293Y-126896839D01*
X197577364Y-126873675D01*
X197392546Y-126919755D01*
X197311657Y-126989000D01*
X196906963Y-127727900D02*
X196987852Y-127658656D01*
X197022537Y-127600931D01*
X197045701Y-127497002D01*
X196976581Y-127219774D01*
X196907336Y-127138885D01*
X196849611Y-127104201D01*
X196745682Y-127081037D01*
X196607068Y-127115597D01*
X196526179Y-127184842D01*
X196491495Y-127242566D01*
X196468331Y-127346495D01*
X196537451Y-127623723D01*
X196606696Y-127704612D01*
X196664421Y-127739296D01*
X196768350Y-127762461D01*
X196906963Y-127727900D01*
X196167690Y-127912222D02*
X196006409Y-127265358D01*
X196029449Y-127357767D02*
X195971725Y-127323083D01*
X195867796Y-127299918D01*
X195729182Y-127334479D01*
X195648293Y-127403723D01*
X195625128Y-127507652D01*
X195751849Y-128015903D01*
X195625128Y-127507652D02*
X195555884Y-127426763D01*
X195451955Y-127403599D01*
X195313341Y-127438159D01*
X195232452Y-127507404D01*
X195209287Y-127611333D01*
X195336008Y-128119583D01*
X193927453Y-127391085D02*
X195070177Y-128431247D01*
X193857463Y-128488226D02*
X193696181Y-127841363D01*
X193719221Y-127933772D02*
X193661497Y-127899087D01*
X193557568Y-127875923D01*
X193418954Y-127910483D01*
X193338065Y-127979728D01*
X193314901Y-128083657D01*
X193441622Y-128591907D01*
X193314901Y-128083657D02*
X193245656Y-128002768D01*
X193141727Y-127979604D01*
X193003113Y-128014164D01*
X192922224Y-128083409D01*
X192899060Y-128187338D01*
X193025781Y-128695588D01*
X192147894Y-128914470D02*
X192021173Y-128406220D01*
X192044337Y-128302290D01*
X192125226Y-128233046D01*
X192310045Y-128186965D01*
X192413974Y-128210130D01*
X192136374Y-128868265D02*
X192240303Y-128891429D01*
X192471326Y-128833829D01*
X192552215Y-128764584D01*
X192575379Y-128660655D01*
X192552339Y-128568246D01*
X192483094Y-128487357D01*
X192379165Y-128464193D01*
X192148142Y-128521793D01*
X192044213Y-128498629D01*
X191685848Y-129029671D02*
X191524567Y-128382807D01*
X191570647Y-128567625D02*
X191501403Y-128486736D01*
X191443678Y-128452051D01*
X191339749Y-128428887D01*
X191247340Y-128451927D01*
X190657828Y-129236908D02*
X190761757Y-129260072D01*
X190946575Y-129213992D01*
X191027464Y-129144747D01*
X191062149Y-129087023D01*
X191085313Y-128983093D01*
X191016193Y-128705866D01*
X190946948Y-128624977D01*
X190889223Y-128590293D01*
X190785294Y-128567128D01*
X190600476Y-128613209D01*
X190519587Y-128682453D01*
X190114893Y-129421354D02*
X190195782Y-129352109D01*
X190230467Y-129294384D01*
X190253631Y-129190455D01*
X190184511Y-128913228D01*
X190115266Y-128832339D01*
X190057541Y-128797654D01*
X189953612Y-128774490D01*
X189814998Y-128809050D01*
X189734109Y-128878295D01*
X189699425Y-128936019D01*
X189676261Y-129039949D01*
X189745381Y-129317176D01*
X189814626Y-129398065D01*
X189872350Y-129432750D01*
X189976280Y-129455914D01*
X190114893Y-129421354D01*
X189410305Y-129547950D02*
X189329416Y-129617195D01*
X189144598Y-129663276D01*
X189040668Y-129640111D01*
X188971424Y-129559222D01*
X188959904Y-129513018D01*
X188983068Y-129409088D01*
X189063957Y-129339844D01*
X189202571Y-129305283D01*
X189283460Y-129236039D01*
X189306624Y-129132109D01*
X189295104Y-129085905D01*
X189225859Y-129005016D01*
X189121930Y-128981851D01*
X188983316Y-129016412D01*
X188902427Y-129085656D01*
X188567475Y-129120093D02*
X188197839Y-129212253D01*
X188348221Y-128831221D02*
X188555583Y-129662903D01*
X188532418Y-129766832D01*
X188451529Y-129836077D01*
X188359120Y-129859117D01*
X187654532Y-129985714D02*
X187758461Y-130008878D01*
X187943279Y-129962798D01*
X188024168Y-129893553D01*
X188047333Y-129789624D01*
X187955172Y-129419987D01*
X187885927Y-129339098D01*
X187781998Y-129315934D01*
X187597180Y-129362014D01*
X187516291Y-129431259D01*
X187493126Y-129535188D01*
X187516166Y-129627597D01*
X188001252Y-129604806D01*
X187204006Y-130147119D02*
X187042725Y-129500256D01*
X187088805Y-129685074D02*
X187019561Y-129604185D01*
X186961836Y-129569500D01*
X186857907Y-129546336D01*
X186765498Y-129569376D01*
X185656837Y-129453182D02*
X186799561Y-130493343D01*
X185586847Y-130550322D02*
X185425565Y-129903459D01*
X185448606Y-129995868D02*
X185390881Y-129961183D01*
X185286952Y-129938019D01*
X185148338Y-129972579D01*
X185067449Y-130041824D01*
X185044285Y-130145753D01*
X185171006Y-130654003D01*
X185044285Y-130145753D02*
X184975040Y-130064864D01*
X184871111Y-130041700D01*
X184732497Y-130076260D01*
X184651608Y-130145505D01*
X184628444Y-130249434D01*
X184755165Y-130757684D01*
X183877278Y-130976566D02*
X183750557Y-130468316D01*
X183773721Y-130364386D01*
X183854610Y-130295142D01*
X184039429Y-130249061D01*
X184143358Y-130272226D01*
X183865758Y-130930361D02*
X183969687Y-130953526D01*
X184200710Y-130895925D01*
X184281599Y-130826680D01*
X184304763Y-130722751D01*
X184281723Y-130630342D01*
X184212478Y-130549453D01*
X184108549Y-130526289D01*
X183877526Y-130583889D01*
X183773597Y-130560725D01*
X183449917Y-131034042D02*
X183369028Y-131103287D01*
X183184210Y-131149367D01*
X183080280Y-131126203D01*
X183011036Y-131045314D01*
X182999516Y-130999109D01*
X183022680Y-130895180D01*
X183103569Y-130825935D01*
X183242183Y-130791375D01*
X183323072Y-130722130D01*
X183346236Y-130618201D01*
X183334716Y-130571996D01*
X183265471Y-130491107D01*
X183161542Y-130467943D01*
X183022928Y-130502503D01*
X182942039Y-130571748D01*
X182629755Y-131287608D02*
X182387833Y-130317313D01*
X182445185Y-130941012D02*
X182260118Y-131379769D01*
X182098837Y-130732905D02*
X182560634Y-131010381D01*
X96352380Y-87366666D02*
X97066666Y-87366666D01*
X97209523Y-87319047D01*
X97304761Y-87223809D01*
X97352380Y-87080952D01*
X97352380Y-86985714D01*
X97352380Y-88366666D02*
X97352380Y-87795238D01*
X97352380Y-88080952D02*
X96352380Y-88080952D01*
X96495238Y-87985714D01*
X96590476Y-87890476D01*
X96638095Y-87795238D01*
X105640000Y-70440000D02*
X105640000Y-39960000D01*
X92940000Y-39960000D02*
X92940000Y-70440000D01*
X90400000Y-39960000D02*
X92940000Y-39960000D01*
X108180000Y-70440000D02*
X105640000Y-70440000D01*
X90400000Y-70440000D02*
X90400000Y-37420000D01*
X92940000Y-70440000D02*
X90400000Y-70440000D01*
X90400000Y-37420000D02*
X108180000Y-37420000D01*
X105640000Y-39960000D02*
X108180000Y-39960000D01*
X108180000Y-37420000D02*
X108180000Y-70440000D01*
X108180000Y-39960000D02*
X108180000Y-70440000D01*
X90400000Y-70440000D02*
X90400000Y-39960000D01*
X91700000Y-73500000D02*
X91100000Y-73500000D01*
X88200000Y-79500000D02*
X88200000Y-73600000D01*
X88200000Y-79500000D02*
X88200000Y-73500000D01*
X88200000Y-73500000D02*
X88900000Y-73500000D01*
X88200000Y-79500000D02*
X88900000Y-79500000D01*
X91700000Y-73500000D02*
X91700000Y-79500000D01*
X91700000Y-79500000D02*
X91100000Y-79500000D01*
X129500000Y-43075000D02*
X128000000Y-43075000D01*
X128750000Y-45375000D02*
X129250000Y-46275000D01*
X128250000Y-46275000D02*
X128750000Y-45375000D01*
X128000000Y-48475000D02*
X129500000Y-48475000D01*
X129250000Y-45275000D02*
X128250000Y-45275000D01*
X129500000Y-48475000D02*
X129500000Y-43075000D01*
X128000000Y-43075000D02*
X128000000Y-48475000D01*
X129250000Y-46275000D02*
X128250000Y-46275000D01*
X131000000Y-45380500D02*
X131500000Y-46280500D01*
X130250000Y-48480500D02*
X131750000Y-48480500D01*
X131500000Y-46280500D02*
X130500000Y-46280500D01*
X130250000Y-43080500D02*
X130250000Y-48480500D01*
X131750000Y-43080500D02*
X130250000Y-43080500D01*
X131750000Y-48480500D02*
X131750000Y-43080500D01*
X130500000Y-46280500D02*
X131000000Y-45380500D01*
X131500000Y-45280500D02*
X130500000Y-45280500D01*
X151250000Y-40340000D02*
X149750000Y-40340000D01*
X149750000Y-45740000D02*
X151250000Y-45740000D01*
X150500000Y-42640000D02*
X151000000Y-43540000D01*
X151000000Y-42540000D02*
X150000000Y-42540000D01*
X151250000Y-45740000D02*
X151250000Y-40340000D01*
X150000000Y-43540000D02*
X150500000Y-42640000D01*
X151000000Y-43540000D02*
X150000000Y-43540000D01*
X149750000Y-40340000D02*
X149750000Y-45740000D01*
X168500000Y-48125000D02*
X170000000Y-48125000D01*
X168500000Y-42725000D02*
X168500000Y-48125000D01*
X170000000Y-42725000D02*
X168500000Y-42725000D01*
X169750000Y-44925000D02*
X168750000Y-44925000D01*
X169250000Y-45025000D02*
X169750000Y-45925000D01*
X170000000Y-48125000D02*
X170000000Y-42725000D01*
X168750000Y-45925000D02*
X169250000Y-45025000D01*
X169750000Y-45925000D02*
X168750000Y-45925000D01*
X187250000Y-51650000D02*
X187250000Y-57050000D01*
X188750000Y-57050000D02*
X188750000Y-51650000D01*
X187500000Y-54850000D02*
X188000000Y-53950000D01*
X188500000Y-53850000D02*
X187500000Y-53850000D01*
X188750000Y-51650000D02*
X187250000Y-51650000D01*
X187250000Y-57050000D02*
X188750000Y-57050000D01*
X188500000Y-54850000D02*
X187500000Y-54850000D01*
X188000000Y-53950000D02*
X188500000Y-54850000D01*
X207750000Y-53725000D02*
X208250000Y-54625000D01*
X207250000Y-54625000D02*
X207750000Y-53725000D01*
X208250000Y-53625000D02*
X207250000Y-53625000D01*
X208250000Y-54625000D02*
X207250000Y-54625000D01*
X208500000Y-56825000D02*
X208500000Y-51425000D01*
X208500000Y-51425000D02*
X207000000Y-51425000D01*
X207000000Y-56825000D02*
X208500000Y-56825000D01*
X207000000Y-51425000D02*
X207000000Y-56825000D01*
X128750000Y-62215000D02*
X127250000Y-62215000D01*
X128500000Y-64415000D02*
X127500000Y-64415000D01*
X127250000Y-62215000D02*
X127250000Y-67615000D01*
X128500000Y-65415000D02*
X127500000Y-65415000D01*
X128000000Y-64515000D02*
X128500000Y-65415000D01*
X127500000Y-65415000D02*
X128000000Y-64515000D01*
X128750000Y-67615000D02*
X128750000Y-62215000D01*
X127250000Y-67615000D02*
X128750000Y-67615000D01*
X129050000Y-62240000D02*
X129050000Y-67640000D01*
X129800000Y-64540000D02*
X130300000Y-65440000D01*
X129300000Y-65440000D02*
X129800000Y-64540000D01*
X129050000Y-67640000D02*
X130550000Y-67640000D01*
X130300000Y-65440000D02*
X129300000Y-65440000D01*
X130550000Y-67640000D02*
X130550000Y-62240000D01*
X130550000Y-62240000D02*
X129050000Y-62240000D01*
X130300000Y-64440000D02*
X129300000Y-64440000D01*
X150750000Y-60565000D02*
X149750000Y-60565000D01*
X149500000Y-63765000D02*
X151000000Y-63765000D01*
X149750000Y-61565000D02*
X150250000Y-60665000D01*
X151000000Y-58365000D02*
X149500000Y-58365000D01*
X150250000Y-60665000D02*
X150750000Y-61565000D01*
X151000000Y-63765000D02*
X151000000Y-58365000D01*
X150750000Y-61565000D02*
X149750000Y-61565000D01*
X149500000Y-58365000D02*
X149500000Y-63765000D01*
X169000000Y-64150000D02*
X169500000Y-63250000D01*
X170250000Y-60950000D02*
X168750000Y-60950000D01*
X169500000Y-63250000D02*
X170000000Y-64150000D01*
X170250000Y-66350000D02*
X170250000Y-60950000D01*
X170000000Y-63150000D02*
X169000000Y-63150000D01*
X168750000Y-66350000D02*
X170250000Y-66350000D01*
X168750000Y-60950000D02*
X168750000Y-66350000D01*
X170000000Y-64150000D02*
X169000000Y-64150000D01*
X187750000Y-71375000D02*
X188250000Y-70475000D01*
X188750000Y-71375000D02*
X187750000Y-71375000D01*
X187500000Y-73575000D02*
X189000000Y-73575000D01*
X188250000Y-70475000D02*
X188750000Y-71375000D01*
X189000000Y-73575000D02*
X189000000Y-68175000D01*
X188750000Y-70375000D02*
X187750000Y-70375000D01*
X189000000Y-68175000D02*
X187500000Y-68175000D01*
X187500000Y-68175000D02*
X187500000Y-73575000D01*
X207750000Y-73275000D02*
X208250000Y-74175000D01*
X207000000Y-76375000D02*
X208500000Y-76375000D01*
X208250000Y-73175000D02*
X207250000Y-73175000D01*
X208500000Y-70975000D02*
X207000000Y-70975000D01*
X207000000Y-70975000D02*
X207000000Y-76375000D01*
X207250000Y-74175000D02*
X207750000Y-73275000D01*
X208500000Y-76375000D02*
X208500000Y-70975000D01*
X208250000Y-74175000D02*
X207250000Y-74175000D01*
X129250000Y-86475000D02*
X129250000Y-81075000D01*
X128500000Y-83375000D02*
X129000000Y-84275000D01*
X128000000Y-84275000D02*
X128500000Y-83375000D01*
X129000000Y-83275000D02*
X128000000Y-83275000D01*
X129250000Y-81075000D02*
X127750000Y-81075000D01*
X129000000Y-84275000D02*
X128000000Y-84275000D01*
X127750000Y-86475000D02*
X129250000Y-86475000D01*
X127750000Y-81075000D02*
X127750000Y-86475000D01*
X132000000Y-86375000D02*
X132000000Y-80975000D01*
X130750000Y-84175000D02*
X131250000Y-83275000D01*
X130500000Y-80975000D02*
X130500000Y-86375000D01*
X132000000Y-80975000D02*
X130500000Y-80975000D01*
X131750000Y-83175000D02*
X130750000Y-83175000D01*
X130500000Y-86375000D02*
X132000000Y-86375000D01*
X131750000Y-84175000D02*
X130750000Y-84175000D01*
X131250000Y-83275000D02*
X131750000Y-84175000D01*
X149750000Y-81165000D02*
X150250000Y-82065000D01*
X150250000Y-82065000D02*
X149250000Y-82065000D01*
X149000000Y-78865000D02*
X149000000Y-84265000D01*
X149000000Y-84265000D02*
X150500000Y-84265000D01*
X150250000Y-81065000D02*
X149250000Y-81065000D01*
X150500000Y-84265000D02*
X150500000Y-78865000D01*
X150500000Y-78865000D02*
X149000000Y-78865000D01*
X149250000Y-82065000D02*
X149750000Y-81165000D01*
X170225000Y-82925000D02*
X169225000Y-82925000D01*
X170475000Y-86125000D02*
X170475000Y-80725000D01*
X169725000Y-83025000D02*
X170225000Y-83925000D01*
X168975000Y-80725000D02*
X168975000Y-86125000D01*
X170225000Y-83925000D02*
X169225000Y-83925000D01*
X168975000Y-86125000D02*
X170475000Y-86125000D01*
X169225000Y-83925000D02*
X169725000Y-83025000D01*
X170475000Y-80725000D02*
X168975000Y-80725000D01*
X187750000Y-89275000D02*
X187750000Y-94675000D01*
X189250000Y-94675000D02*
X189250000Y-89275000D01*
X187750000Y-94675000D02*
X189250000Y-94675000D01*
X188000000Y-92475000D02*
X188500000Y-91575000D01*
X188500000Y-91575000D02*
X189000000Y-92475000D01*
X189000000Y-92475000D02*
X188000000Y-92475000D01*
X189000000Y-91475000D02*
X188000000Y-91475000D01*
X189250000Y-89275000D02*
X187750000Y-89275000D01*
X208500000Y-94975000D02*
X208500000Y-89575000D01*
X207750000Y-91875000D02*
X208250000Y-92775000D01*
X208250000Y-91775000D02*
X207250000Y-91775000D01*
X207250000Y-92775000D02*
X207750000Y-91875000D01*
X207000000Y-89575000D02*
X207000000Y-94975000D01*
X208500000Y-89575000D02*
X207000000Y-89575000D01*
X208250000Y-92775000D02*
X207250000Y-92775000D01*
X207000000Y-94975000D02*
X208500000Y-94975000D01*
X112750000Y-100050000D02*
X111250000Y-100050000D01*
X112500000Y-103250000D02*
X111500000Y-103250000D01*
X112750000Y-105450000D02*
X112750000Y-100050000D01*
X111500000Y-103250000D02*
X112000000Y-102350000D01*
X111250000Y-100050000D02*
X111250000Y-105450000D01*
X111250000Y-105450000D02*
X112750000Y-105450000D01*
X112000000Y-102350000D02*
X112500000Y-103250000D01*
X112500000Y-102250000D02*
X111500000Y-102250000D01*
X130750000Y-106900000D02*
X130750000Y-101500000D01*
X129250000Y-101500000D02*
X129250000Y-106900000D01*
X130500000Y-104700000D02*
X129500000Y-104700000D01*
X130000000Y-103800000D02*
X130500000Y-104700000D01*
X129500000Y-104700000D02*
X130000000Y-103800000D01*
X130750000Y-101500000D02*
X129250000Y-101500000D01*
X129250000Y-106900000D02*
X130750000Y-106900000D01*
X130500000Y-103700000D02*
X129500000Y-103700000D01*
X150500000Y-99065000D02*
X149500000Y-99065000D01*
X149250000Y-101265000D02*
X150750000Y-101265000D01*
X149500000Y-99065000D02*
X150000000Y-98165000D01*
X150750000Y-95865000D02*
X149250000Y-95865000D01*
X150000000Y-98165000D02*
X150500000Y-99065000D01*
X150750000Y-101265000D02*
X150750000Y-95865000D01*
X150500000Y-98065000D02*
X149500000Y-98065000D01*
X149250000Y-95865000D02*
X149250000Y-101265000D01*
X168750000Y-102650000D02*
X169250000Y-101750000D01*
X168500000Y-99450000D02*
X168500000Y-104850000D01*
X169250000Y-101750000D02*
X169750000Y-102650000D01*
X170000000Y-104850000D02*
X170000000Y-99450000D01*
X169750000Y-101650000D02*
X168750000Y-101650000D01*
X168500000Y-104850000D02*
X170000000Y-104850000D01*
X169750000Y-102650000D02*
X168750000Y-102650000D01*
X170000000Y-99450000D02*
X168500000Y-99450000D01*
X189250000Y-108150000D02*
X187750000Y-108150000D01*
X188500000Y-110450000D02*
X189000000Y-111350000D01*
X187750000Y-108150000D02*
X187750000Y-113550000D01*
X189250000Y-113550000D02*
X189250000Y-108150000D01*
X189000000Y-110350000D02*
X188000000Y-110350000D01*
X189000000Y-111350000D02*
X188000000Y-111350000D01*
X187750000Y-113550000D02*
X189250000Y-113550000D01*
X188000000Y-111350000D02*
X188500000Y-110450000D01*
X207450000Y-114075000D02*
X208950000Y-114075000D01*
X207450000Y-108675000D02*
X207450000Y-114075000D01*
X208700000Y-111875000D02*
X207700000Y-111875000D01*
X208950000Y-108675000D02*
X207450000Y-108675000D01*
X208200000Y-110975000D02*
X208700000Y-111875000D01*
X208950000Y-114075000D02*
X208950000Y-108675000D01*
X207700000Y-111875000D02*
X208200000Y-110975000D01*
X208700000Y-110875000D02*
X207700000Y-110875000D01*
X92400000Y-106000000D02*
X92900000Y-105100000D01*
X93650000Y-108200000D02*
X93650000Y-102800000D01*
X92150000Y-108200000D02*
X93650000Y-108200000D01*
X93650000Y-102800000D02*
X92150000Y-102800000D01*
X93400000Y-106000000D02*
X92400000Y-106000000D01*
X93400000Y-105000000D02*
X92400000Y-105000000D01*
X92150000Y-102800000D02*
X92150000Y-108200000D01*
X92900000Y-105100000D02*
X93400000Y-106000000D01*
X86150000Y-135900000D02*
X87650000Y-135900000D01*
X87650000Y-135900000D02*
X87650000Y-130500000D01*
X87650000Y-130500000D02*
X86150000Y-130500000D01*
X86150000Y-130500000D02*
X86150000Y-135900000D01*
X87400000Y-132700000D02*
X86400000Y-132700000D01*
X86900000Y-132800000D02*
X87400000Y-133700000D01*
X87400000Y-133700000D02*
X86400000Y-133700000D01*
X86400000Y-133700000D02*
X86900000Y-132800000D01*
X107000000Y-128050000D02*
X101600000Y-128050000D01*
X104800000Y-129300000D02*
X103900000Y-128800000D01*
X104800000Y-128300000D02*
X104800000Y-129300000D01*
X103800000Y-128300000D02*
X103800000Y-129300000D01*
X101600000Y-129550000D02*
X107000000Y-129550000D01*
X101600000Y-128050000D02*
X101600000Y-129550000D01*
X107000000Y-129550000D02*
X107000000Y-128050000D01*
X103900000Y-128800000D02*
X104800000Y-128300000D01*
X121500000Y-124250000D02*
X121500000Y-125750000D01*
X126900000Y-125750000D02*
X126900000Y-124250000D01*
X126900000Y-124250000D02*
X121500000Y-124250000D01*
X123700000Y-124500000D02*
X123700000Y-125500000D01*
X121500000Y-125750000D02*
X126900000Y-125750000D01*
X124700000Y-124500000D02*
X124700000Y-125500000D01*
X123800000Y-125000000D02*
X124700000Y-124500000D01*
X124700000Y-125500000D02*
X123800000Y-125000000D01*
X144600000Y-123900000D02*
X143700000Y-123400000D01*
X143600000Y-122900000D02*
X143600000Y-123900000D01*
X146800000Y-122650000D02*
X141400000Y-122650000D01*
X144600000Y-122900000D02*
X144600000Y-123900000D01*
X141400000Y-124150000D02*
X146800000Y-124150000D01*
X143700000Y-123400000D02*
X144600000Y-122900000D01*
X141400000Y-122650000D02*
X141400000Y-124150000D01*
X146800000Y-124150000D02*
X146800000Y-122650000D01*
X126200000Y-51460000D02*
X126400000Y-51460000D01*
X126400000Y-51100000D02*
X126400000Y-51460000D01*
X115900000Y-56600000D02*
X124300001Y-56600000D01*
X126400000Y-51100000D02*
X123120000Y-51100000D01*
D11*
X121870600Y-43150000D02*
X124200000Y-43150000D01*
D12*
X116100000Y-53900000D02*
X116100000Y-53200000D01*
D10*
X126400000Y-53700000D02*
X126200000Y-53700000D01*
X116100000Y-56250000D02*
X115900000Y-56250000D01*
D11*
X121870600Y-44600000D02*
X121870600Y-43150000D01*
X124200000Y-43150000D02*
X124200000Y-44600000D01*
D13*
X116600000Y-56000000D02*
X116600000Y-53500000D01*
D10*
X115900000Y-56250000D02*
X115900000Y-56600000D01*
D11*
X126300000Y-53800001D02*
X126300000Y-54700000D01*
D14*
X116200000Y-53300000D02*
X117600000Y-53300000D01*
X126200000Y-51300000D02*
X123500000Y-51300000D01*
D10*
X120900000Y-53000000D02*
X115900000Y-53000000D01*
D15*
X117900000Y-54800000D02*
X124600000Y-54800000D01*
D10*
X126400000Y-54700000D02*
X126400000Y-53700000D01*
D16*
X124670000Y-55100000D02*
X124670000Y-52860000D01*
D12*
X116100000Y-56400000D02*
X117500000Y-56400000D01*
D10*
X115900000Y-53000000D02*
X115900000Y-54000000D01*
X115900000Y-54000000D02*
X116100000Y-54000000D01*
X116120000Y-54000000D02*
X116120000Y-56250000D01*
D17*
X125800000Y-51600000D02*
X125800000Y-53399999D01*
D10*
X126170000Y-53700000D02*
X126170000Y-51460000D01*
D11*
X124200000Y-44600000D02*
X121870600Y-44600000D01*
D13*
X121300000Y-53400000D02*
G75*
G03*
X123516318Y-51521471I65001J2169999D01*
G01*
D10*
X124300001Y-56600001D02*
G75*
G03*
X126400000Y-54699999I100000J1999999D01*
G01*
X120900000Y-53000000D02*
G75*
G03*
X123116318Y-51121471I65001J2169999D01*
G01*
X145400000Y-48600000D02*
X145400000Y-48960000D01*
X145170000Y-51200000D02*
X145170000Y-48960000D01*
D14*
X145200000Y-48800000D02*
X142500000Y-48800000D01*
D10*
X134900000Y-54100000D02*
X143300001Y-54100000D01*
D12*
X135100000Y-51400000D02*
X135100000Y-50700000D01*
D11*
X145300000Y-51300001D02*
X145300000Y-52200000D01*
D10*
X145400000Y-52200000D02*
X145400000Y-51200000D01*
D11*
X143200000Y-40650000D02*
X143200000Y-42100000D01*
D10*
X134900000Y-50500000D02*
X134900000Y-51500000D01*
D16*
X143670000Y-52600000D02*
X143670000Y-50360000D01*
D13*
X135600000Y-53500000D02*
X135600000Y-51000000D01*
D10*
X139900000Y-50500000D02*
X134900000Y-50500000D01*
X145400000Y-48600000D02*
X142120000Y-48600000D01*
X145200000Y-48960000D02*
X145400000Y-48960000D01*
D17*
X144800000Y-49100000D02*
X144800000Y-50899999D01*
D10*
X135100000Y-53750000D02*
X134900000Y-53750000D01*
D12*
X135100000Y-53900000D02*
X136500000Y-53900000D01*
D10*
X134900000Y-53750000D02*
X134900000Y-54100000D01*
X145400000Y-51200000D02*
X145200000Y-51200000D01*
D14*
X135200000Y-50800000D02*
X136600000Y-50800000D01*
D11*
X140870600Y-42100000D02*
X140870600Y-40650000D01*
X143200000Y-42100000D02*
X140870600Y-42100000D01*
X140870600Y-40650000D02*
X143200000Y-40650000D01*
D10*
X135120000Y-51500000D02*
X135120000Y-53750000D01*
D15*
X136900000Y-52300000D02*
X143600000Y-52300000D01*
D10*
X134900000Y-51500000D02*
X135100000Y-51500000D01*
X139900000Y-50500000D02*
G75*
G03*
X142116318Y-48621471I65001J2169999D01*
G01*
D13*
X140300000Y-50900000D02*
G75*
G03*
X142516318Y-49021471I65001J2169999D01*
G01*
D10*
X143300001Y-54100001D02*
G75*
G03*
X145400000Y-52199999I100000J1999999D01*
G01*
X154000000Y-51250000D02*
X154000000Y-51600000D01*
X154000000Y-51600000D02*
X162400001Y-51600000D01*
D11*
X159970600Y-39600000D02*
X159970600Y-38150000D01*
D10*
X154000000Y-49000000D02*
X154200000Y-49000000D01*
D13*
X154700000Y-51000000D02*
X154700000Y-48500000D01*
D10*
X164500000Y-49700000D02*
X164500000Y-48700000D01*
X159000000Y-48000000D02*
X154000000Y-48000000D01*
D11*
X162300000Y-39600000D02*
X159970600Y-39600000D01*
D10*
X154000000Y-48000000D02*
X154000000Y-49000000D01*
D11*
X164400000Y-48800001D02*
X164400000Y-49700000D01*
D16*
X162770000Y-50100000D02*
X162770000Y-47860000D01*
D12*
X154200000Y-51400000D02*
X155600000Y-51400000D01*
D10*
X154220000Y-49000000D02*
X154220000Y-51250000D01*
D11*
X159970600Y-38150000D02*
X162300000Y-38150000D01*
D10*
X164270000Y-48700000D02*
X164270000Y-46460000D01*
D14*
X154300000Y-48300000D02*
X155700000Y-48300000D01*
D11*
X162300000Y-38150000D02*
X162300000Y-39600000D01*
D14*
X164300000Y-46300000D02*
X161600000Y-46300000D01*
D10*
X164500000Y-46100000D02*
X164500000Y-46460000D01*
D17*
X163900000Y-46600000D02*
X163900000Y-48399999D01*
D10*
X154200000Y-51250000D02*
X154000000Y-51250000D01*
X164300000Y-46460000D02*
X164500000Y-46460000D01*
X164500000Y-46100000D02*
X161220000Y-46100000D01*
X164500000Y-48700000D02*
X164300000Y-48700000D01*
D12*
X154200000Y-48900000D02*
X154200000Y-48200000D01*
D15*
X156000000Y-49800000D02*
X162700000Y-49800000D01*
D13*
X159400000Y-48400000D02*
G75*
G03*
X161616318Y-46521471I65001J2169999D01*
G01*
D10*
X159000000Y-48000000D02*
G75*
G03*
X161216318Y-46121471I65001J2169999D01*
G01*
X162400001Y-51600001D02*
G75*
G03*
X164500000Y-49699999I100000J1999999D01*
G01*
X173200000Y-53750000D02*
X173000000Y-53750000D01*
D11*
X181300000Y-42100000D02*
X178970600Y-42100000D01*
D10*
X183500000Y-48600000D02*
X183500000Y-48960000D01*
X173000000Y-54100000D02*
X181400001Y-54100000D01*
D16*
X181770000Y-52600000D02*
X181770000Y-50360000D01*
D11*
X178970600Y-42100000D02*
X178970600Y-40650000D01*
D10*
X173220000Y-51500000D02*
X173220000Y-53750000D01*
X178000000Y-50500000D02*
X173000000Y-50500000D01*
D13*
X173700000Y-53500000D02*
X173700000Y-51000000D01*
D10*
X183270000Y-51200000D02*
X183270000Y-48960000D01*
D17*
X182900000Y-49100000D02*
X182900000Y-50899999D01*
D10*
X183500000Y-52200000D02*
X183500000Y-51200000D01*
X183300000Y-48960000D02*
X183500000Y-48960000D01*
D11*
X181300000Y-40650000D02*
X181300000Y-42100000D01*
D10*
X173000000Y-50500000D02*
X173000000Y-51500000D01*
X183500000Y-51200000D02*
X183300000Y-51200000D01*
D14*
X183300000Y-48800000D02*
X180600000Y-48800000D01*
D12*
X173200000Y-51400000D02*
X173200000Y-50700000D01*
D14*
X173300000Y-50800000D02*
X174700000Y-50800000D01*
D12*
X173200000Y-53900000D02*
X174600000Y-53900000D01*
D10*
X173000000Y-53750000D02*
X173000000Y-54100000D01*
D11*
X178970600Y-40650000D02*
X181300000Y-40650000D01*
D10*
X183500000Y-48600000D02*
X180220000Y-48600000D01*
D11*
X183400000Y-51300001D02*
X183400000Y-52200000D01*
D15*
X175000000Y-52300000D02*
X181700000Y-52300000D01*
D10*
X173000000Y-51500000D02*
X173200000Y-51500000D01*
X178000000Y-50500000D02*
G75*
G03*
X180216318Y-48621471I65001J2169999D01*
G01*
D13*
X178400000Y-50900000D02*
G75*
G03*
X180616318Y-49021471I65001J2169999D01*
G01*
D10*
X181400001Y-54100001D02*
G75*
G03*
X183500000Y-52199999I100000J1999999D01*
G01*
D11*
X200400000Y-49650000D02*
X200400000Y-51100000D01*
D10*
X192300000Y-62750000D02*
X192100000Y-62750000D01*
X192100000Y-60500000D02*
X192300000Y-60500000D01*
X202600000Y-57600000D02*
X199320000Y-57600000D01*
D14*
X192400000Y-59800000D02*
X193800000Y-59800000D01*
D10*
X202600000Y-61200000D02*
X202600000Y-60200000D01*
D13*
X192800000Y-62500000D02*
X192800000Y-60000000D01*
D15*
X194100000Y-61300000D02*
X200800000Y-61300000D01*
D10*
X202600000Y-60200000D02*
X202400000Y-60200000D01*
X202600000Y-57600000D02*
X202600000Y-57960000D01*
X202370000Y-60200000D02*
X202370000Y-57960000D01*
X192320000Y-60500000D02*
X192320000Y-62750000D01*
D16*
X200870000Y-61600000D02*
X200870000Y-59360000D01*
D17*
X202000000Y-58100000D02*
X202000000Y-59899999D01*
D10*
X192100000Y-62750000D02*
X192100000Y-63100000D01*
D11*
X202500000Y-60300001D02*
X202500000Y-61200000D01*
D10*
X192100000Y-59500000D02*
X192100000Y-60500000D01*
D11*
X198070600Y-49650000D02*
X200400000Y-49650000D01*
X200400000Y-51100000D02*
X198070600Y-51100000D01*
D14*
X202400000Y-57800000D02*
X199700000Y-57800000D01*
D12*
X192300000Y-60400000D02*
X192300000Y-59700000D01*
D11*
X198070600Y-51100000D02*
X198070600Y-49650000D01*
D12*
X192300000Y-62900000D02*
X193700000Y-62900000D01*
D10*
X192100000Y-63100000D02*
X200500001Y-63100000D01*
X202400000Y-57960000D02*
X202600000Y-57960000D01*
X197100000Y-59500000D02*
X192100000Y-59500000D01*
X197100000Y-59500000D02*
G75*
G03*
X199316318Y-57621471I65001J2169999D01*
G01*
D13*
X197500000Y-59900000D02*
G75*
G03*
X199716318Y-58021471I65001J2169999D01*
G01*
D10*
X200500001Y-63100001D02*
G75*
G03*
X202600000Y-61199999I100000J1999999D01*
G01*
D14*
X126200000Y-70400000D02*
X123500000Y-70400000D01*
X116200000Y-72400000D02*
X117600000Y-72400000D01*
D10*
X120900000Y-72100000D02*
X115900000Y-72100000D01*
X115900000Y-72100000D02*
X115900000Y-73100000D01*
D13*
X116600000Y-75100000D02*
X116600000Y-72600000D01*
D11*
X124200000Y-63700000D02*
X121870600Y-63700000D01*
D10*
X116120000Y-73100000D02*
X116120000Y-75350000D01*
D11*
X124200000Y-62250000D02*
X124200000Y-63700000D01*
D10*
X126200000Y-70560000D02*
X126400000Y-70560000D01*
D11*
X126300000Y-72900001D02*
X126300000Y-73800000D01*
D10*
X126400000Y-73800000D02*
X126400000Y-72800000D01*
D15*
X117900000Y-73900000D02*
X124600000Y-73900000D01*
D10*
X115900000Y-75700000D02*
X124300001Y-75700000D01*
D12*
X116100000Y-73000000D02*
X116100000Y-72300000D01*
X116100000Y-75500000D02*
X117500000Y-75500000D01*
D16*
X124670000Y-74200000D02*
X124670000Y-71960000D01*
D10*
X115900000Y-75350000D02*
X115900000Y-75700000D01*
X126170000Y-72800000D02*
X126170000Y-70560000D01*
X126400000Y-70200000D02*
X123120000Y-70200000D01*
D11*
X121870600Y-62250000D02*
X124200000Y-62250000D01*
D10*
X116100000Y-75350000D02*
X115900000Y-75350000D01*
D11*
X121870600Y-63700000D02*
X121870600Y-62250000D01*
D10*
X126400000Y-70200000D02*
X126400000Y-70560000D01*
X126400000Y-72800000D02*
X126200000Y-72800000D01*
D17*
X125800000Y-70700000D02*
X125800000Y-72499999D01*
D10*
X115900000Y-73100000D02*
X116100000Y-73100000D01*
X124300001Y-75700001D02*
G75*
G03*
X126400000Y-73799999I100000J1999999D01*
G01*
X120900000Y-72100000D02*
G75*
G03*
X123116318Y-70221471I65001J2169999D01*
G01*
D13*
X121300000Y-72500000D02*
G75*
G03*
X123516318Y-70621471I65001J2169999D01*
G01*
D10*
X135120000Y-70600000D02*
X135120000Y-72850000D01*
D13*
X135600000Y-72600000D02*
X135600000Y-70100000D01*
D10*
X145170000Y-70300000D02*
X145170000Y-68060000D01*
X135100000Y-72850000D02*
X134900000Y-72850000D01*
X139900000Y-69600000D02*
X134900000Y-69600000D01*
X145400000Y-67700000D02*
X145400000Y-68060000D01*
D11*
X143200000Y-59750000D02*
X143200000Y-61200000D01*
D10*
X134900000Y-73200000D02*
X143300001Y-73200000D01*
D11*
X145300000Y-70400001D02*
X145300000Y-71300000D01*
D10*
X145400000Y-70300000D02*
X145200000Y-70300000D01*
X145400000Y-67700000D02*
X142120000Y-67700000D01*
D14*
X145200000Y-67900000D02*
X142500000Y-67900000D01*
D15*
X136900000Y-71400000D02*
X143600000Y-71400000D01*
D10*
X134900000Y-70600000D02*
X135100000Y-70600000D01*
X134900000Y-72850000D02*
X134900000Y-73200000D01*
D11*
X143200000Y-61200000D02*
X140870600Y-61200000D01*
D12*
X135100000Y-70500000D02*
X135100000Y-69800000D01*
D10*
X145200000Y-68060000D02*
X145400000Y-68060000D01*
D17*
X144800000Y-68200000D02*
X144800000Y-69999999D01*
D12*
X135100000Y-73000000D02*
X136500000Y-73000000D01*
D14*
X135200000Y-69900000D02*
X136600000Y-69900000D01*
D11*
X140870600Y-59750000D02*
X143200000Y-59750000D01*
D10*
X134900000Y-69600000D02*
X134900000Y-70600000D01*
D11*
X140870600Y-61200000D02*
X140870600Y-59750000D01*
D10*
X145400000Y-71300000D02*
X145400000Y-70300000D01*
D16*
X143670000Y-71700000D02*
X143670000Y-69460000D01*
D10*
X143300001Y-73200001D02*
G75*
G03*
X145400000Y-71299999I100000J1999999D01*
G01*
X139900000Y-69600000D02*
G75*
G03*
X142116318Y-67721471I65001J2169999D01*
G01*
D13*
X140300000Y-70000000D02*
G75*
G03*
X142516318Y-68121471I65001J2169999D01*
G01*
D10*
X164300000Y-65550000D02*
X164500000Y-65550000D01*
D14*
X154300000Y-67390000D02*
X155700000Y-67390000D01*
D17*
X163900000Y-65690000D02*
X163900000Y-67489999D01*
D11*
X164400000Y-67890001D02*
X164400000Y-68790000D01*
X162300000Y-58690000D02*
X159970600Y-58690000D01*
D10*
X154000000Y-70340000D02*
X154000000Y-70690000D01*
D15*
X156000000Y-68890000D02*
X162700000Y-68890000D01*
D11*
X159970600Y-58690000D02*
X159970600Y-57240000D01*
X159970600Y-57240000D02*
X162300000Y-57240000D01*
D13*
X154700000Y-70090000D02*
X154700000Y-67590000D01*
D12*
X154200000Y-67990000D02*
X154200000Y-67290000D01*
D10*
X164500000Y-65190000D02*
X164500000Y-65550000D01*
X154000000Y-67090000D02*
X154000000Y-68090000D01*
D16*
X162770000Y-69190000D02*
X162770000Y-66950000D01*
D10*
X154000000Y-70690000D02*
X162400001Y-70690000D01*
X164500000Y-68790000D02*
X164500000Y-67790000D01*
D11*
X162300000Y-57240000D02*
X162300000Y-58690000D01*
D10*
X154220000Y-68090000D02*
X154220000Y-70340000D01*
X164500000Y-67790000D02*
X164300000Y-67790000D01*
D12*
X154200000Y-70490000D02*
X155600000Y-70490000D01*
D10*
X154200000Y-70340000D02*
X154000000Y-70340000D01*
X159000000Y-67090000D02*
X154000000Y-67090000D01*
X154000000Y-68090000D02*
X154200000Y-68090000D01*
D14*
X164300000Y-65390000D02*
X161600000Y-65390000D01*
D10*
X164500000Y-65190000D02*
X161220000Y-65190000D01*
X164270000Y-67790000D02*
X164270000Y-65550000D01*
D13*
X159400000Y-67490000D02*
G75*
G03*
X161616318Y-65611471I65001J2169999D01*
G01*
D10*
X162400001Y-70690001D02*
G75*
G03*
X164500000Y-68789999I100000J1999999D01*
G01*
X159000000Y-67090000D02*
G75*
G03*
X161216318Y-65211471I65001J2169999D01*
G01*
D11*
X183400000Y-70300001D02*
X183400000Y-71200000D01*
D10*
X173000000Y-73100000D02*
X181400001Y-73100000D01*
D16*
X181770000Y-71600000D02*
X181770000Y-69360000D01*
D12*
X173200000Y-72900000D02*
X174600000Y-72900000D01*
D11*
X181300000Y-61100000D02*
X178970600Y-61100000D01*
D10*
X183500000Y-71200000D02*
X183500000Y-70200000D01*
X173220000Y-70500000D02*
X173220000Y-72750000D01*
D14*
X183300000Y-67800000D02*
X180600000Y-67800000D01*
D11*
X181300000Y-59650000D02*
X181300000Y-61100000D01*
D10*
X183500000Y-67600000D02*
X183500000Y-67960000D01*
X173200000Y-72750000D02*
X173000000Y-72750000D01*
D11*
X178970600Y-59650000D02*
X181300000Y-59650000D01*
D15*
X175000000Y-71300000D02*
X181700000Y-71300000D01*
D11*
X178970600Y-61100000D02*
X178970600Y-59650000D01*
D14*
X173300000Y-69800000D02*
X174700000Y-69800000D01*
D10*
X173000000Y-70500000D02*
X173200000Y-70500000D01*
X183500000Y-67600000D02*
X180220000Y-67600000D01*
X173000000Y-69500000D02*
X173000000Y-70500000D01*
X183300000Y-67960000D02*
X183500000Y-67960000D01*
D13*
X173700000Y-72500000D02*
X173700000Y-70000000D01*
D10*
X183270000Y-70200000D02*
X183270000Y-67960000D01*
X183500000Y-70200000D02*
X183300000Y-70200000D01*
X173000000Y-72750000D02*
X173000000Y-73100000D01*
D17*
X182900000Y-68100000D02*
X182900000Y-69899999D01*
D10*
X178000000Y-69500000D02*
X173000000Y-69500000D01*
D12*
X173200000Y-70400000D02*
X173200000Y-69700000D01*
D10*
X181400001Y-73100001D02*
G75*
G03*
X183500000Y-71199999I100000J1999999D01*
G01*
D13*
X178400000Y-69900000D02*
G75*
G03*
X180616318Y-68021471I65001J2169999D01*
G01*
D10*
X178000000Y-69500000D02*
G75*
G03*
X180216318Y-67621471I65001J2169999D01*
G01*
D14*
X202400000Y-76700000D02*
X199700000Y-76700000D01*
D10*
X202600000Y-79100000D02*
X202400000Y-79100000D01*
X202600000Y-80100000D02*
X202600000Y-79100000D01*
D11*
X200400000Y-68550000D02*
X200400000Y-70000000D01*
D10*
X192100000Y-81650000D02*
X192100000Y-82000000D01*
X202370000Y-79100000D02*
X202370000Y-76860000D01*
D11*
X200400000Y-70000000D02*
X198070600Y-70000000D01*
X202500000Y-79200001D02*
X202500000Y-80100000D01*
D10*
X202600000Y-76500000D02*
X202600000Y-76860000D01*
D15*
X194100000Y-80200000D02*
X200800000Y-80200000D01*
D10*
X192100000Y-79400000D02*
X192300000Y-79400000D01*
X192300000Y-81650000D02*
X192100000Y-81650000D01*
X202600000Y-76500000D02*
X199320000Y-76500000D01*
D11*
X198070600Y-68550000D02*
X200400000Y-68550000D01*
D10*
X202400000Y-76860000D02*
X202600000Y-76860000D01*
X192320000Y-79400000D02*
X192320000Y-81650000D01*
D12*
X192300000Y-81800000D02*
X193700000Y-81800000D01*
D17*
X202000000Y-77000000D02*
X202000000Y-78799999D01*
D16*
X200870000Y-80500000D02*
X200870000Y-78260000D01*
D14*
X192400000Y-78700000D02*
X193800000Y-78700000D01*
D10*
X197100000Y-78400000D02*
X192100000Y-78400000D01*
D12*
X192300000Y-79300000D02*
X192300000Y-78600000D01*
D11*
X198070600Y-70000000D02*
X198070600Y-68550000D01*
D13*
X192800000Y-81400000D02*
X192800000Y-78900000D01*
D10*
X192100000Y-78400000D02*
X192100000Y-79400000D01*
X192100000Y-82000000D02*
X200500001Y-82000000D01*
D13*
X197500000Y-78800000D02*
G75*
G03*
X199716318Y-76921471I65001J2169999D01*
G01*
D10*
X200500001Y-82000001D02*
G75*
G03*
X202600000Y-80099999I100000J1999999D01*
G01*
X197100000Y-78400000D02*
G75*
G03*
X199316318Y-76521471I65001J2169999D01*
G01*
D11*
X217070600Y-68550000D02*
X219400000Y-68550000D01*
D10*
X221370000Y-79100000D02*
X221370000Y-76860000D01*
D11*
X219400000Y-68550000D02*
X219400000Y-70000000D01*
D10*
X221600000Y-79100000D02*
X221400000Y-79100000D01*
X221600000Y-80100000D02*
X221600000Y-79100000D01*
D17*
X221000000Y-77000000D02*
X221000000Y-78799999D01*
D10*
X211320000Y-79400000D02*
X211320000Y-81650000D01*
X221600000Y-76500000D02*
X218320000Y-76500000D01*
X211100000Y-78400000D02*
X211100000Y-79400000D01*
D16*
X219870000Y-80500000D02*
X219870000Y-78260000D01*
D11*
X217070600Y-70000000D02*
X217070600Y-68550000D01*
D14*
X221400000Y-76700000D02*
X218700000Y-76700000D01*
D11*
X221500000Y-79200001D02*
X221500000Y-80100000D01*
D10*
X216100000Y-78400000D02*
X211100000Y-78400000D01*
X221400000Y-76860000D02*
X221600000Y-76860000D01*
D12*
X211300000Y-81800000D02*
X212700000Y-81800000D01*
D10*
X211100000Y-79400000D02*
X211300000Y-79400000D01*
X221600000Y-76500000D02*
X221600000Y-76860000D01*
D13*
X211800000Y-81400000D02*
X211800000Y-78900000D01*
D11*
X219400000Y-70000000D02*
X217070600Y-70000000D01*
D14*
X211400000Y-78700000D02*
X212800000Y-78700000D01*
D12*
X211300000Y-79300000D02*
X211300000Y-78600000D01*
D15*
X213100000Y-80200000D02*
X219800000Y-80200000D01*
D10*
X211300000Y-81650000D02*
X211100000Y-81650000D01*
X211100000Y-81650000D02*
X211100000Y-82000000D01*
X211100000Y-82000000D02*
X219500001Y-82000000D01*
X216100000Y-78400000D02*
G75*
G03*
X218316318Y-76521471I65001J2169999D01*
G01*
D13*
X216500000Y-78800000D02*
G75*
G03*
X218716318Y-76921471I65001J2169999D01*
G01*
D10*
X219500001Y-82000001D02*
G75*
G03*
X221600000Y-80099999I100000J1999999D01*
G01*
D11*
X126300000Y-91900001D02*
X126300000Y-92800000D01*
D10*
X126400000Y-91800000D02*
X126200000Y-91800000D01*
D11*
X124200000Y-82700000D02*
X121870600Y-82700000D01*
X121870600Y-81250000D02*
X124200000Y-81250000D01*
D10*
X126400000Y-89200000D02*
X123120000Y-89200000D01*
D12*
X116100000Y-92000000D02*
X116100000Y-91300000D01*
D10*
X115900000Y-91100000D02*
X115900000Y-92100000D01*
X126400000Y-92800000D02*
X126400000Y-91800000D01*
X115900000Y-94350000D02*
X115900000Y-94700000D01*
D15*
X117900000Y-92900000D02*
X124600000Y-92900000D01*
D14*
X126200000Y-89400000D02*
X123500000Y-89400000D01*
D10*
X126400000Y-89200000D02*
X126400000Y-89560000D01*
D14*
X116200000Y-91400000D02*
X117600000Y-91400000D01*
D10*
X115900000Y-92100000D02*
X116100000Y-92100000D01*
X120900000Y-91100000D02*
X115900000Y-91100000D01*
D11*
X124200000Y-81250000D02*
X124200000Y-82700000D01*
D10*
X115900000Y-94700000D02*
X124300001Y-94700000D01*
X126200000Y-89560000D02*
X126400000Y-89560000D01*
D11*
X121870600Y-82700000D02*
X121870600Y-81250000D01*
D13*
X116600000Y-94100000D02*
X116600000Y-91600000D01*
D10*
X116120000Y-92100000D02*
X116120000Y-94350000D01*
X116100000Y-94350000D02*
X115900000Y-94350000D01*
X126170000Y-91800000D02*
X126170000Y-89560000D01*
D17*
X125800000Y-89700000D02*
X125800000Y-91499999D01*
D16*
X124670000Y-93200000D02*
X124670000Y-90960000D01*
D12*
X116100000Y-94500000D02*
X117500000Y-94500000D01*
D13*
X121300000Y-91500000D02*
G75*
G03*
X123516318Y-89621471I65001J2169999D01*
G01*
D10*
X120900000Y-91100000D02*
G75*
G03*
X123116318Y-89221471I65001J2169999D01*
G01*
X124300001Y-94700001D02*
G75*
G03*
X126400000Y-92799999I100000J1999999D01*
G01*
D11*
X140870600Y-78750000D02*
X143200000Y-78750000D01*
X143200000Y-78750000D02*
X143200000Y-80200000D01*
D10*
X145200000Y-87060000D02*
X145400000Y-87060000D01*
X145400000Y-86700000D02*
X142120000Y-86700000D01*
X134900000Y-89600000D02*
X135100000Y-89600000D01*
X135100000Y-91850000D02*
X134900000Y-91850000D01*
D17*
X144800000Y-87200000D02*
X144800000Y-88999999D01*
D10*
X134900000Y-88600000D02*
X134900000Y-89600000D01*
X139900000Y-88600000D02*
X134900000Y-88600000D01*
X145400000Y-89300000D02*
X145200000Y-89300000D01*
D12*
X135100000Y-89500000D02*
X135100000Y-88800000D01*
D14*
X145200000Y-86900000D02*
X142500000Y-86900000D01*
D11*
X140870600Y-80200000D02*
X140870600Y-78750000D01*
X143200000Y-80200000D02*
X140870600Y-80200000D01*
D10*
X134900000Y-91850000D02*
X134900000Y-92200000D01*
D13*
X135600000Y-91600000D02*
X135600000Y-89100000D01*
D12*
X135100000Y-92000000D02*
X136500000Y-92000000D01*
D14*
X135200000Y-88900000D02*
X136600000Y-88900000D01*
D15*
X136900000Y-90400000D02*
X143600000Y-90400000D01*
D10*
X134900000Y-92200000D02*
X143300001Y-92200000D01*
X145400000Y-90300000D02*
X145400000Y-89300000D01*
D16*
X143670000Y-90700000D02*
X143670000Y-88460000D01*
D10*
X145400000Y-86700000D02*
X145400000Y-87060000D01*
D11*
X145300000Y-89400001D02*
X145300000Y-90300000D01*
D10*
X135120000Y-89600000D02*
X135120000Y-91850000D01*
X145170000Y-89300000D02*
X145170000Y-87060000D01*
X139900000Y-88600000D02*
G75*
G03*
X142116318Y-86721471I65001J2169999D01*
G01*
X143300001Y-92200001D02*
G75*
G03*
X145400000Y-90299999I100000J1999999D01*
G01*
D13*
X140300000Y-89000000D02*
G75*
G03*
X142516318Y-87121471I65001J2169999D01*
G01*
D11*
X164400000Y-86990001D02*
X164400000Y-87890000D01*
X162300000Y-77790000D02*
X159970600Y-77790000D01*
D10*
X154000000Y-89440000D02*
X154000000Y-89790000D01*
D13*
X154700000Y-89190000D02*
X154700000Y-86690000D01*
D12*
X154200000Y-89590000D02*
X155600000Y-89590000D01*
D15*
X156000000Y-87990000D02*
X162700000Y-87990000D01*
D10*
X154220000Y-87190000D02*
X154220000Y-89440000D01*
D14*
X154300000Y-86490000D02*
X155700000Y-86490000D01*
D10*
X164500000Y-84290000D02*
X164500000Y-84650000D01*
X159000000Y-86190000D02*
X154000000Y-86190000D01*
X164270000Y-86890000D02*
X164270000Y-84650000D01*
D16*
X162770000Y-88290000D02*
X162770000Y-86050000D01*
D11*
X159970600Y-76340000D02*
X162300000Y-76340000D01*
D10*
X164300000Y-84650000D02*
X164500000Y-84650000D01*
D11*
X159970600Y-77790000D02*
X159970600Y-76340000D01*
D10*
X164500000Y-87890000D02*
X164500000Y-86890000D01*
D17*
X163900000Y-84790000D02*
X163900000Y-86589999D01*
D10*
X154200000Y-89440000D02*
X154000000Y-89440000D01*
D12*
X154200000Y-87090000D02*
X154200000Y-86390000D01*
D11*
X162300000Y-76340000D02*
X162300000Y-77790000D01*
D14*
X164300000Y-84490000D02*
X161600000Y-84490000D01*
D10*
X154000000Y-89790000D02*
X162400001Y-89790000D01*
X154000000Y-87190000D02*
X154200000Y-87190000D01*
X154000000Y-86190000D02*
X154000000Y-87190000D01*
X164500000Y-84290000D02*
X161220000Y-84290000D01*
X164500000Y-86890000D02*
X164300000Y-86890000D01*
X162400001Y-89790001D02*
G75*
G03*
X164500000Y-87889999I100000J1999999D01*
G01*
X159000000Y-86190000D02*
G75*
G03*
X161216318Y-84311471I65001J2169999D01*
G01*
D13*
X159400000Y-86590000D02*
G75*
G03*
X161616318Y-84711471I65001J2169999D01*
G01*
D10*
X183270000Y-89300000D02*
X183270000Y-87060000D01*
D11*
X183400000Y-89400001D02*
X183400000Y-90300000D01*
D12*
X173200000Y-92000000D02*
X174600000Y-92000000D01*
X173200000Y-89500000D02*
X173200000Y-88800000D01*
D10*
X183500000Y-86700000D02*
X180220000Y-86700000D01*
D17*
X182900000Y-87200000D02*
X182900000Y-88999999D01*
D10*
X173000000Y-92200000D02*
X181400001Y-92200000D01*
D14*
X183300000Y-86900000D02*
X180600000Y-86900000D01*
X173300000Y-88900000D02*
X174700000Y-88900000D01*
D10*
X183500000Y-89300000D02*
X183300000Y-89300000D01*
X183500000Y-90300000D02*
X183500000Y-89300000D01*
X173220000Y-89600000D02*
X173220000Y-91850000D01*
D13*
X173700000Y-91600000D02*
X173700000Y-89100000D01*
D15*
X175000000Y-90400000D02*
X181700000Y-90400000D01*
D10*
X178000000Y-88600000D02*
X173000000Y-88600000D01*
X173000000Y-91850000D02*
X173000000Y-92200000D01*
D11*
X181300000Y-78750000D02*
X181300000Y-80200000D01*
D16*
X181770000Y-90700000D02*
X181770000Y-88460000D01*
D11*
X178970600Y-80200000D02*
X178970600Y-78750000D01*
D10*
X173000000Y-89600000D02*
X173200000Y-89600000D01*
X183300000Y-87060000D02*
X183500000Y-87060000D01*
X183500000Y-86700000D02*
X183500000Y-87060000D01*
D11*
X181300000Y-80200000D02*
X178970600Y-80200000D01*
D10*
X173000000Y-88600000D02*
X173000000Y-89600000D01*
D11*
X178970600Y-78750000D02*
X181300000Y-78750000D01*
D10*
X173200000Y-91850000D02*
X173000000Y-91850000D01*
D13*
X178400000Y-89000000D02*
G75*
G03*
X180616318Y-87121471I65001J2169999D01*
G01*
D10*
X181400001Y-92200001D02*
G75*
G03*
X183500000Y-90299999I100000J1999999D01*
G01*
X178000000Y-88600000D02*
G75*
G03*
X180216318Y-86721471I65001J2169999D01*
G01*
D14*
X202400000Y-95900000D02*
X199700000Y-95900000D01*
D10*
X197100000Y-97600000D02*
X192100000Y-97600000D01*
X202370000Y-98300000D02*
X202370000Y-96060000D01*
D11*
X198070600Y-87750000D02*
X200400000Y-87750000D01*
D13*
X192800000Y-100600000D02*
X192800000Y-98100000D01*
D10*
X202600000Y-95700000D02*
X199320000Y-95700000D01*
X192300000Y-100850000D02*
X192100000Y-100850000D01*
X192100000Y-98600000D02*
X192300000Y-98600000D01*
D15*
X194100000Y-99400000D02*
X200800000Y-99400000D01*
D11*
X198070600Y-89200000D02*
X198070600Y-87750000D01*
D14*
X192400000Y-97900000D02*
X193800000Y-97900000D01*
D11*
X202500000Y-98400001D02*
X202500000Y-99300000D01*
D10*
X192320000Y-98600000D02*
X192320000Y-100850000D01*
D12*
X192300000Y-101000000D02*
X193700000Y-101000000D01*
D10*
X192100000Y-100850000D02*
X192100000Y-101200000D01*
X202600000Y-95700000D02*
X202600000Y-96060000D01*
D12*
X192300000Y-98500000D02*
X192300000Y-97800000D01*
D10*
X202400000Y-96060000D02*
X202600000Y-96060000D01*
D11*
X200400000Y-89200000D02*
X198070600Y-89200000D01*
D10*
X192100000Y-97600000D02*
X192100000Y-98600000D01*
X202600000Y-98300000D02*
X202400000Y-98300000D01*
X202600000Y-99300000D02*
X202600000Y-98300000D01*
D11*
X200400000Y-87750000D02*
X200400000Y-89200000D01*
D17*
X202000000Y-96200000D02*
X202000000Y-97999999D01*
D10*
X192100000Y-101200000D02*
X200500001Y-101200000D01*
D16*
X200870000Y-99700000D02*
X200870000Y-97460000D01*
D10*
X197100000Y-97600000D02*
G75*
G03*
X199316318Y-95721471I65001J2169999D01*
G01*
X200500001Y-101200001D02*
G75*
G03*
X202600000Y-99299999I100000J1999999D01*
G01*
D13*
X197500000Y-98000000D02*
G75*
G03*
X199716318Y-96121471I65001J2169999D01*
G01*
D17*
X221000000Y-96200000D02*
X221000000Y-97999999D01*
D11*
X219400000Y-87750000D02*
X219400000Y-89200000D01*
D16*
X219870000Y-99700000D02*
X219870000Y-97460000D01*
D11*
X221500000Y-98400001D02*
X221500000Y-99300000D01*
D10*
X211300000Y-100850000D02*
X211100000Y-100850000D01*
D13*
X211800000Y-100600000D02*
X211800000Y-98100000D01*
D14*
X211400000Y-97900000D02*
X212800000Y-97900000D01*
D10*
X211320000Y-98600000D02*
X211320000Y-100850000D01*
D15*
X213100000Y-99400000D02*
X219800000Y-99400000D01*
D10*
X216100000Y-97600000D02*
X211100000Y-97600000D01*
D12*
X211300000Y-98500000D02*
X211300000Y-97800000D01*
D14*
X221400000Y-95900000D02*
X218700000Y-95900000D01*
D10*
X221600000Y-95700000D02*
X218320000Y-95700000D01*
D11*
X217070600Y-89200000D02*
X217070600Y-87750000D01*
D10*
X211100000Y-97600000D02*
X211100000Y-98600000D01*
X221400000Y-96060000D02*
X221600000Y-96060000D01*
X221600000Y-95700000D02*
X221600000Y-96060000D01*
X211100000Y-101200000D02*
X219500001Y-101200000D01*
X211100000Y-100850000D02*
X211100000Y-101200000D01*
D11*
X219400000Y-89200000D02*
X217070600Y-89200000D01*
X217070600Y-87750000D02*
X219400000Y-87750000D01*
D10*
X221370000Y-98300000D02*
X221370000Y-96060000D01*
X221600000Y-98300000D02*
X221400000Y-98300000D01*
X221600000Y-99300000D02*
X221600000Y-98300000D01*
D12*
X211300000Y-101000000D02*
X212700000Y-101000000D01*
D10*
X211100000Y-98600000D02*
X211300000Y-98600000D01*
D13*
X216500000Y-98000000D02*
G75*
G03*
X218716318Y-96121471I65001J2169999D01*
G01*
D10*
X216100000Y-97600000D02*
G75*
G03*
X218316318Y-95721471I65001J2169999D01*
G01*
X219500001Y-101200001D02*
G75*
G03*
X221600000Y-99299999I100000J1999999D01*
G01*
D14*
X126200000Y-108400000D02*
X123500000Y-108400000D01*
D10*
X126170000Y-110800000D02*
X126170000Y-108560000D01*
D11*
X121870600Y-100250000D02*
X124200000Y-100250000D01*
D17*
X125800000Y-108700000D02*
X125800000Y-110499999D01*
D16*
X124670000Y-112200000D02*
X124670000Y-109960000D01*
D12*
X116100000Y-113500000D02*
X117500000Y-113500000D01*
D10*
X126200000Y-108560000D02*
X126400000Y-108560000D01*
X115900000Y-110100000D02*
X115900000Y-111100000D01*
X126400000Y-108200000D02*
X126400000Y-108560000D01*
X120900000Y-110100000D02*
X115900000Y-110100000D01*
D11*
X121870600Y-101700000D02*
X121870600Y-100250000D01*
D10*
X126400000Y-111800000D02*
X126400000Y-110800000D01*
D11*
X124200000Y-100250000D02*
X124200000Y-101700000D01*
D10*
X116100000Y-113350000D02*
X115900000Y-113350000D01*
D14*
X116200000Y-110400000D02*
X117600000Y-110400000D01*
D10*
X115900000Y-111100000D02*
X116100000Y-111100000D01*
D12*
X116100000Y-111000000D02*
X116100000Y-110300000D01*
D10*
X116120000Y-111100000D02*
X116120000Y-113350000D01*
D13*
X116600000Y-113100000D02*
X116600000Y-110600000D01*
D15*
X117900000Y-111900000D02*
X124600000Y-111900000D01*
D10*
X115900000Y-113350000D02*
X115900000Y-113700000D01*
D11*
X126300000Y-110900001D02*
X126300000Y-111800000D01*
D10*
X126400000Y-108200000D02*
X123120000Y-108200000D01*
X126400000Y-110800000D02*
X126200000Y-110800000D01*
D11*
X124200000Y-101700000D02*
X121870600Y-101700000D01*
D10*
X115900000Y-113700000D02*
X124300001Y-113700000D01*
X124300001Y-113700001D02*
G75*
G03*
X126400000Y-111799999I100000J1999999D01*
G01*
X120900000Y-110100000D02*
G75*
G03*
X123116318Y-108221471I65001J2169999D01*
G01*
D13*
X121300000Y-110500000D02*
G75*
G03*
X123516318Y-108621471I65001J2169999D01*
G01*
D16*
X143670000Y-109800000D02*
X143670000Y-107560000D01*
D10*
X145200000Y-106160000D02*
X145400000Y-106160000D01*
X134900000Y-111300000D02*
X143300001Y-111300000D01*
D12*
X135100000Y-108600000D02*
X135100000Y-107900000D01*
D10*
X145400000Y-105800000D02*
X142120000Y-105800000D01*
X134900000Y-110950000D02*
X134900000Y-111300000D01*
D14*
X135200000Y-108000000D02*
X136600000Y-108000000D01*
D11*
X140870600Y-97850000D02*
X143200000Y-97850000D01*
D10*
X139900000Y-107700000D02*
X134900000Y-107700000D01*
D12*
X135100000Y-111100000D02*
X136500000Y-111100000D01*
D11*
X140870600Y-99300000D02*
X140870600Y-97850000D01*
D10*
X134900000Y-108700000D02*
X135100000Y-108700000D01*
D13*
X135600000Y-110700000D02*
X135600000Y-108200000D01*
D10*
X145170000Y-108400000D02*
X145170000Y-106160000D01*
X134900000Y-107700000D02*
X134900000Y-108700000D01*
D11*
X145300000Y-108500001D02*
X145300000Y-109400000D01*
D15*
X136900000Y-109500000D02*
X143600000Y-109500000D01*
D14*
X145200000Y-106000000D02*
X142500000Y-106000000D01*
D10*
X145400000Y-108400000D02*
X145200000Y-108400000D01*
X145400000Y-109400000D02*
X145400000Y-108400000D01*
D17*
X144800000Y-106300000D02*
X144800000Y-108099999D01*
D10*
X135100000Y-110950000D02*
X134900000Y-110950000D01*
X135120000Y-108700000D02*
X135120000Y-110950000D01*
X145400000Y-105800000D02*
X145400000Y-106160000D01*
D11*
X143200000Y-97850000D02*
X143200000Y-99300000D01*
X143200000Y-99300000D02*
X140870600Y-99300000D01*
D13*
X140300000Y-108100000D02*
G75*
G03*
X142516318Y-106221471I65001J2169999D01*
G01*
D10*
X139900000Y-107700000D02*
G75*
G03*
X142116318Y-105821471I65001J2169999D01*
G01*
X143300001Y-111300001D02*
G75*
G03*
X145400000Y-109399999I100000J1999999D01*
G01*
D11*
X164400000Y-105990001D02*
X164400000Y-106890000D01*
D10*
X164270000Y-105890000D02*
X164270000Y-103650000D01*
D14*
X154300000Y-105490000D02*
X155700000Y-105490000D01*
D12*
X154200000Y-106090000D02*
X154200000Y-105390000D01*
D10*
X164300000Y-103650000D02*
X164500000Y-103650000D01*
D11*
X159970600Y-95340000D02*
X162300000Y-95340000D01*
D10*
X164500000Y-105890000D02*
X164300000Y-105890000D01*
X154000000Y-108440000D02*
X154000000Y-108790000D01*
D14*
X164300000Y-103490000D02*
X161600000Y-103490000D01*
D12*
X154200000Y-108590000D02*
X155600000Y-108590000D01*
D11*
X159970600Y-96790000D02*
X159970600Y-95340000D01*
D10*
X154000000Y-108790000D02*
X162400001Y-108790000D01*
X164500000Y-103290000D02*
X161220000Y-103290000D01*
X154000000Y-106190000D02*
X154200000Y-106190000D01*
X159000000Y-105190000D02*
X154000000Y-105190000D01*
D15*
X156000000Y-106990000D02*
X162700000Y-106990000D01*
D17*
X163900000Y-103790000D02*
X163900000Y-105589999D01*
D10*
X164500000Y-103290000D02*
X164500000Y-103650000D01*
D13*
X154700000Y-108190000D02*
X154700000Y-105690000D01*
D11*
X162300000Y-96790000D02*
X159970600Y-96790000D01*
D10*
X154220000Y-106190000D02*
X154220000Y-108440000D01*
X154200000Y-108440000D02*
X154000000Y-108440000D01*
X154000000Y-105190000D02*
X154000000Y-106190000D01*
D16*
X162770000Y-107290000D02*
X162770000Y-105050000D01*
D10*
X164500000Y-106890000D02*
X164500000Y-105890000D01*
D11*
X162300000Y-95340000D02*
X162300000Y-96790000D01*
D10*
X159000000Y-105190000D02*
G75*
G03*
X161216318Y-103311471I65001J2169999D01*
G01*
D13*
X159400000Y-105590000D02*
G75*
G03*
X161616318Y-103711471I65001J2169999D01*
G01*
D10*
X162400001Y-108790001D02*
G75*
G03*
X164500000Y-106889999I100000J1999999D01*
G01*
D12*
X173200000Y-108600000D02*
X173200000Y-107900000D01*
D10*
X183500000Y-109400000D02*
X183500000Y-108400000D01*
X173000000Y-108700000D02*
X173200000Y-108700000D01*
D15*
X175000000Y-109500000D02*
X181700000Y-109500000D01*
D11*
X178970600Y-97850000D02*
X181300000Y-97850000D01*
D12*
X173200000Y-111100000D02*
X174600000Y-111100000D01*
D10*
X173220000Y-108700000D02*
X173220000Y-110950000D01*
X183270000Y-108400000D02*
X183270000Y-106160000D01*
X173000000Y-110950000D02*
X173000000Y-111300000D01*
X183300000Y-106160000D02*
X183500000Y-106160000D01*
X183500000Y-105800000D02*
X183500000Y-106160000D01*
X173000000Y-107700000D02*
X173000000Y-108700000D01*
X173200000Y-110950000D02*
X173000000Y-110950000D01*
D13*
X173700000Y-110700000D02*
X173700000Y-108200000D01*
D11*
X181300000Y-97850000D02*
X181300000Y-99300000D01*
D10*
X173000000Y-111300000D02*
X181400001Y-111300000D01*
D17*
X182900000Y-106300000D02*
X182900000Y-108099999D01*
D11*
X183400000Y-108500001D02*
X183400000Y-109400000D01*
X181300000Y-99300000D02*
X178970600Y-99300000D01*
D10*
X178000000Y-107700000D02*
X173000000Y-107700000D01*
X183500000Y-108400000D02*
X183300000Y-108400000D01*
D11*
X178970600Y-99300000D02*
X178970600Y-97850000D01*
D14*
X173300000Y-108000000D02*
X174700000Y-108000000D01*
D16*
X181770000Y-109800000D02*
X181770000Y-107560000D01*
D10*
X183500000Y-105800000D02*
X180220000Y-105800000D01*
D14*
X183300000Y-106000000D02*
X180600000Y-106000000D01*
D13*
X178400000Y-108100000D02*
G75*
G03*
X180616318Y-106221471I65001J2169999D01*
G01*
D10*
X181400001Y-111300001D02*
G75*
G03*
X183500000Y-109399999I100000J1999999D01*
G01*
X178000000Y-107700000D02*
G75*
G03*
X180216318Y-105821471I65001J2169999D01*
G01*
X202600000Y-117300000D02*
X202400000Y-117300000D01*
X192320000Y-117600000D02*
X192320000Y-119850000D01*
X192300000Y-119850000D02*
X192100000Y-119850000D01*
D11*
X200400000Y-106750000D02*
X200400000Y-108200000D01*
D12*
X192300000Y-117500000D02*
X192300000Y-116800000D01*
D17*
X202000000Y-115200000D02*
X202000000Y-116999999D01*
D10*
X202370000Y-117300000D02*
X202370000Y-115060000D01*
X192100000Y-119850000D02*
X192100000Y-120200000D01*
D11*
X202500000Y-117400001D02*
X202500000Y-118300000D01*
D15*
X194100000Y-118400000D02*
X200800000Y-118400000D01*
D10*
X192100000Y-117600000D02*
X192300000Y-117600000D01*
D11*
X198070600Y-108200000D02*
X198070600Y-106750000D01*
D10*
X202600000Y-114700000D02*
X202600000Y-115060000D01*
D12*
X192300000Y-120000000D02*
X193700000Y-120000000D01*
D10*
X192100000Y-116600000D02*
X192100000Y-117600000D01*
X192100000Y-120200000D02*
X200500001Y-120200000D01*
D14*
X192400000Y-116900000D02*
X193800000Y-116900000D01*
D16*
X200870000Y-118700000D02*
X200870000Y-116460000D01*
D11*
X198070600Y-106750000D02*
X200400000Y-106750000D01*
D13*
X192800000Y-119600000D02*
X192800000Y-117100000D01*
D10*
X197100000Y-116600000D02*
X192100000Y-116600000D01*
X202600000Y-114700000D02*
X199320000Y-114700000D01*
D11*
X200400000Y-108200000D02*
X198070600Y-108200000D01*
D10*
X202600000Y-118300000D02*
X202600000Y-117300000D01*
X202400000Y-115060000D02*
X202600000Y-115060000D01*
D14*
X202400000Y-114900000D02*
X199700000Y-114900000D01*
D10*
X200500001Y-120200001D02*
G75*
G03*
X202600000Y-118299999I100000J1999999D01*
G01*
D13*
X197500000Y-117000000D02*
G75*
G03*
X199716318Y-115121471I65001J2169999D01*
G01*
D10*
X197100000Y-116600000D02*
G75*
G03*
X199316318Y-114721471I65001J2169999D01*
G01*
D14*
X211450000Y-116900000D02*
X212850000Y-116900000D01*
D13*
X211850000Y-119600000D02*
X211850000Y-117100000D01*
D16*
X219920000Y-118700000D02*
X219920000Y-116460000D01*
D10*
X211150000Y-119850000D02*
X211150000Y-120200000D01*
X211350000Y-119850000D02*
X211150000Y-119850000D01*
D17*
X221050000Y-115200000D02*
X221050000Y-116999999D01*
D11*
X221550000Y-117400001D02*
X221550000Y-118300000D01*
D10*
X221420000Y-117300000D02*
X221420000Y-115060000D01*
X221650000Y-114700000D02*
X218370000Y-114700000D01*
D14*
X221450000Y-114900000D02*
X218750000Y-114900000D01*
D11*
X219450000Y-108200000D02*
X217120600Y-108200000D01*
X217120600Y-108200000D02*
X217120600Y-106750000D01*
D10*
X221450000Y-115060000D02*
X221650000Y-115060000D01*
X211370000Y-117600000D02*
X211370000Y-119850000D01*
X216150000Y-116600000D02*
X211150000Y-116600000D01*
D11*
X217120600Y-106750000D02*
X219450000Y-106750000D01*
D15*
X213150000Y-118400000D02*
X219850000Y-118400000D01*
D10*
X211150000Y-117600000D02*
X211350000Y-117600000D01*
X221650000Y-114700000D02*
X221650000Y-115060000D01*
X211150000Y-120200000D02*
X219550001Y-120200000D01*
X221650000Y-117300000D02*
X221450000Y-117300000D01*
D12*
X211350000Y-117500000D02*
X211350000Y-116800000D01*
D10*
X221650000Y-118300000D02*
X221650000Y-117300000D01*
X211150000Y-116600000D02*
X211150000Y-117600000D01*
D11*
X219450000Y-106750000D02*
X219450000Y-108200000D01*
D12*
X211350000Y-120000000D02*
X212750000Y-120000000D01*
D10*
X219550001Y-120200001D02*
G75*
G03*
X221650000Y-118299999I100000J1999999D01*
G01*
X216150000Y-116600000D02*
G75*
G03*
X218366318Y-114721471I65001J2169999D01*
G01*
D13*
X216550000Y-117000000D02*
G75*
G03*
X218766318Y-115121471I65001J2169999D01*
G01*
D16*
X99812821Y-138116208D02*
X99046696Y-136011297D01*
D10*
X100959661Y-136208944D02*
X100771722Y-136277348D01*
D14*
X91237988Y-139321672D02*
X92553558Y-138842844D01*
X99950874Y-134022086D02*
X97413704Y-134945540D01*
D12*
X91349231Y-139919690D02*
X91109817Y-139261905D01*
D10*
X100070409Y-133765743D02*
X100193536Y-134104032D01*
X100743532Y-136287608D02*
X99977407Y-134182697D01*
D11*
X100899894Y-136337116D02*
X101207712Y-137182838D01*
D13*
X92537320Y-141722034D02*
X91682269Y-139372803D01*
D10*
X101301681Y-137148636D02*
X100959661Y-136208944D01*
D15*
X93348496Y-140149777D02*
X99644436Y-137858242D01*
D11*
X93591034Y-129206887D02*
X93095105Y-127844333D01*
X95779954Y-128410185D02*
X93591034Y-129206887D01*
X93095105Y-127844333D02*
X95284025Y-127047631D01*
D10*
X100005597Y-134172436D02*
X100193536Y-134104032D01*
X92152978Y-142127968D02*
X91965040Y-142196372D01*
X90853474Y-139142371D02*
X91195495Y-140082063D01*
D17*
X99677603Y-134440801D02*
X100293239Y-136132247D01*
D10*
X91195495Y-140082063D02*
X91383433Y-140013659D01*
X100070409Y-133765743D02*
X96988217Y-134887569D01*
X91965040Y-142196372D02*
X92084747Y-142525264D01*
X95551937Y-137432270D02*
X90853474Y-139142371D01*
X92084747Y-142525264D02*
X99978166Y-139652294D01*
D11*
X95284025Y-127047631D02*
X95779954Y-128410185D01*
D10*
X91402227Y-140006819D02*
X92171772Y-142121127D01*
D12*
X92204281Y-142268921D02*
X93519851Y-141790093D01*
D10*
X99978166Y-139652295D02*
G75*
G03*
X101301681Y-137148636I-590070J1913586D01*
G01*
X95551937Y-137432270D02*
G75*
G03*
X96992100Y-134909005I-681102J2061364D01*
G01*
D13*
X96064623Y-137671338D02*
G75*
G03*
X97504785Y-135148074I-681103J2061363D01*
G01*
D17*
X139188212Y-126987234D02*
X139376363Y-128777373D01*
D10*
X129488785Y-129414397D02*
X129593313Y-130408919D01*
D11*
X136865277Y-120192826D02*
X134548638Y-120436315D01*
D10*
X129593313Y-130408919D02*
X129792218Y-130388013D01*
X140108963Y-130007535D02*
X140004434Y-129013013D01*
D12*
X129781765Y-130288561D02*
X129708595Y-129592395D01*
D10*
X140004434Y-129013013D02*
X139805530Y-129033919D01*
X134461394Y-128891754D02*
X129488785Y-129414397D01*
D11*
X136713711Y-118750770D02*
X136865277Y-120192826D01*
X134548638Y-120436315D02*
X134397072Y-118994258D01*
X134397072Y-118994258D02*
X136713711Y-118750770D01*
D10*
X129828502Y-132646593D02*
X129865087Y-132994675D01*
X139571386Y-126806190D02*
X139770291Y-126785284D01*
X129865087Y-132994675D02*
X138219072Y-132116636D01*
X139775694Y-129037055D02*
X139541551Y-126809326D01*
X139732660Y-126427256D02*
X139770291Y-126785284D01*
D16*
X138430251Y-130586178D02*
X138196108Y-128358449D01*
D12*
X130043086Y-132774865D02*
X131435416Y-132628526D01*
D14*
X139554662Y-126647066D02*
X136869453Y-126929293D01*
D13*
X130498535Y-132324792D02*
X130237214Y-129838488D01*
D10*
X130027407Y-132625687D02*
X129828502Y-132646593D01*
D15*
X131665980Y-130995479D02*
X138329276Y-130295138D01*
D10*
X129812108Y-130385922D02*
X130047297Y-132623597D01*
D14*
X129818500Y-129681395D02*
X131210830Y-129535055D01*
D10*
X139732660Y-126427256D02*
X136470629Y-126770110D01*
D11*
X139915435Y-129122919D02*
X140009511Y-130017988D01*
D13*
X134901014Y-129247751D02*
G75*
G03*
X136908831Y-127147845I-162181J2164905D01*
G01*
D10*
X138219072Y-132116635D02*
G75*
G03*
X140108963Y-130007534I-109602J1999493D01*
G01*
X134461394Y-128891754D02*
G75*
G03*
X136469211Y-126791848I-162182J2164906D01*
G01*
X159345674Y-128049866D02*
X159267499Y-125811230D01*
X149183139Y-131306517D02*
X157578023Y-131013361D01*
X159484795Y-125443423D02*
X159497359Y-125803204D01*
D11*
X154680704Y-117656340D02*
X157008685Y-117575045D01*
D14*
X149367788Y-127998058D02*
X150766935Y-127949198D01*
D11*
X157008685Y-117575045D02*
X157059289Y-119024161D01*
X154731308Y-119105456D02*
X154680704Y-117656340D01*
D10*
X159297481Y-125810183D02*
X159497359Y-125803204D01*
X149092400Y-128708101D02*
X149292278Y-128701121D01*
X154054455Y-127534213D02*
X149057501Y-127708710D01*
X149312266Y-128700423D02*
X149390790Y-130949052D01*
X159575534Y-128041839D02*
X159375656Y-128048819D01*
X149370802Y-130949750D02*
X149170924Y-130956730D01*
D15*
X151119101Y-129437815D02*
X157815020Y-129203988D01*
D16*
X157895447Y-129501362D02*
X157817272Y-127262727D01*
D12*
X149288788Y-128601182D02*
X149264359Y-127901608D01*
D11*
X157059289Y-119024161D02*
X154731308Y-119105456D01*
D10*
X159484795Y-125443423D02*
X156206793Y-125557893D01*
D11*
X159479085Y-128145269D02*
X159510494Y-129044720D01*
D12*
X149376037Y-131099659D02*
X150775184Y-131050800D01*
D10*
X159610434Y-129041230D02*
X159575534Y-128041839D01*
D17*
X158902611Y-125964058D02*
X158965430Y-127762960D01*
D10*
X149170924Y-130956730D02*
X149183139Y-131306517D01*
D13*
X149861773Y-130682453D02*
X149774524Y-128183976D01*
D14*
X159291897Y-125650281D02*
X156593542Y-125744510D01*
D10*
X149057501Y-127708710D02*
X149092400Y-128708101D01*
X154054455Y-127534212D02*
G75*
G03*
X156203863Y-125579480I-10771J2170945D01*
G01*
X157578023Y-131013362D02*
G75*
G03*
X159610433Y-129041229I30140J2002270D01*
G01*
D13*
X154468171Y-127920009D02*
G75*
G03*
X156617579Y-125965276I-10771J2170945D01*
G01*
D10*
X105080000Y-75870000D02*
X94920000Y-75870000D01*
X94920000Y-75870000D02*
X94920000Y-73330000D01*
X94920000Y-73330000D02*
X105080000Y-73330000D01*
X105080000Y-73330000D02*
X105080000Y-75870000D01*
X163700000Y-121200000D02*
X163700000Y-122200000D01*
X165900000Y-120950000D02*
X160500000Y-120950000D01*
X160500000Y-122450000D02*
X165900000Y-122450000D01*
X160500000Y-120950000D02*
X160500000Y-122450000D01*
X162700000Y-121200000D02*
X162700000Y-122200000D01*
X162800000Y-121700000D02*
X163700000Y-121200000D01*
X163700000Y-122200000D02*
X162800000Y-121700000D01*
X165900000Y-122450000D02*
X165900000Y-120950000D01*
D11*
X107760000Y-88402100D02*
X106310000Y-88402100D01*
X106310000Y-88402100D02*
X106310000Y-85982100D01*
X107760000Y-85952100D02*
X107760000Y-88402100D01*
X106310000Y-85952100D02*
X107760000Y-85952100D01*
D10*
X178950000Y-125300000D02*
X178950000Y-125660000D01*
X168450000Y-130800000D02*
X176850001Y-130800000D01*
X178950000Y-125300000D02*
X175670000Y-125300000D01*
X178950000Y-128900000D02*
X178950000Y-127900000D01*
D16*
X177220000Y-129300000D02*
X177220000Y-127060000D01*
D12*
X168650000Y-130600000D02*
X170050000Y-130600000D01*
D17*
X178350000Y-125800000D02*
X178350000Y-127599999D01*
D11*
X176750000Y-118800000D02*
X174420600Y-118800000D01*
X174420600Y-118800000D02*
X174420600Y-117350000D01*
D12*
X168650000Y-128100000D02*
X168650000Y-127400000D01*
D13*
X169150000Y-130200000D02*
X169150000Y-127700000D01*
D15*
X170450000Y-129000000D02*
X177150000Y-129000000D01*
D10*
X178950000Y-127900000D02*
X178750000Y-127900000D01*
D14*
X178750000Y-125500000D02*
X176050000Y-125500000D01*
D10*
X168450000Y-130450000D02*
X168450000Y-130800000D01*
D11*
X174420600Y-117350000D02*
X176750000Y-117350000D01*
D10*
X168450000Y-127200000D02*
X168450000Y-128200000D01*
X168650000Y-130450000D02*
X168450000Y-130450000D01*
D11*
X178850000Y-128000001D02*
X178850000Y-128900000D01*
X176750000Y-117350000D02*
X176750000Y-118800000D01*
D10*
X178750000Y-125660000D02*
X178950000Y-125660000D01*
D14*
X168750000Y-127500000D02*
X170150000Y-127500000D01*
D10*
X178720000Y-127900000D02*
X178720000Y-125660000D01*
X168670000Y-128200000D02*
X168670000Y-130450000D01*
X168450000Y-128200000D02*
X168650000Y-128200000D01*
X173450000Y-127200000D02*
X168450000Y-127200000D01*
D13*
X173850000Y-127600000D02*
G75*
G03*
X176066318Y-125721471I65001J2169999D01*
G01*
D10*
X173450000Y-127200000D02*
G75*
G03*
X175666318Y-125321471I65001J2169999D01*
G01*
X176850001Y-130800001D02*
G75*
G03*
X178950000Y-128899999I100000J1999999D01*
G01*
D16*
X118989225Y-133221561D02*
X118523503Y-131030510D01*
D10*
X120598256Y-132470615D02*
X120390344Y-131492467D01*
X110649969Y-136169816D02*
X110722738Y-136512168D01*
X119849774Y-128949283D02*
X119924622Y-129301417D01*
D11*
X116346423Y-123048730D02*
X114067926Y-123533039D01*
X113766454Y-122114725D02*
X116044951Y-121630416D01*
D10*
X119849774Y-128949283D02*
X116641450Y-129631234D01*
X120165370Y-131540287D02*
X119699648Y-129349236D01*
X109974256Y-132990837D02*
X110182168Y-133968984D01*
D15*
X112304792Y-134335679D02*
X118858381Y-132942671D01*
D11*
X120313321Y-131611074D02*
X120500441Y-132491406D01*
D12*
X110357006Y-133829587D02*
X110211468Y-133144884D01*
D13*
X111282695Y-135779741D02*
X110762915Y-133334372D01*
D10*
X119728992Y-129342999D02*
X119924622Y-129301417D01*
D14*
X110330074Y-133221907D02*
X111699481Y-132930831D01*
D10*
X110182168Y-133968984D02*
X110377797Y-133927402D01*
X110722738Y-136512168D02*
X118939179Y-134765710D01*
D17*
X119366841Y-129563104D02*
X119741082Y-131323769D01*
D11*
X114067926Y-123533039D02*
X113766454Y-122114725D01*
D14*
X119695727Y-129186495D02*
X117054728Y-129747857D01*
D10*
X110397360Y-133923244D02*
X110865162Y-136124076D01*
X110845599Y-136128234D02*
X110649969Y-136169816D01*
X114864994Y-131951278D02*
X109974256Y-132990837D01*
X120390344Y-131492467D02*
X120194715Y-131534049D01*
D12*
X110876785Y-136274956D02*
X112246192Y-135983880D01*
D11*
X116044951Y-121630416D02*
X116346423Y-123048730D01*
D10*
X114864994Y-131951277D02*
G75*
G03*
X116642312Y-129653001I-387587J2136093D01*
G01*
D13*
X115339418Y-132259373D02*
G75*
G03*
X117116736Y-129961095I-387588J2136094D01*
G01*
D10*
X118939179Y-134765710D02*
G75*
G03*
X120598256Y-132470614I-318008J1977085D01*
G01*
X216100000Y-59500000D02*
X211100000Y-59500000D01*
X221600000Y-61200000D02*
X221600000Y-60200000D01*
X211100000Y-59500000D02*
X211100000Y-60500000D01*
X211100000Y-62750000D02*
X211100000Y-63100000D01*
D11*
X219400000Y-49650000D02*
X219400000Y-51100000D01*
X217070600Y-49650000D02*
X219400000Y-49650000D01*
D15*
X213100000Y-61300000D02*
X219800000Y-61300000D01*
D10*
X221600000Y-60200000D02*
X221400000Y-60200000D01*
D11*
X217070600Y-51100000D02*
X217070600Y-49650000D01*
X221500000Y-60300001D02*
X221500000Y-61200000D01*
D12*
X211300000Y-60400000D02*
X211300000Y-59700000D01*
D13*
X211800000Y-62500000D02*
X211800000Y-60000000D01*
D14*
X221400000Y-57800000D02*
X218700000Y-57800000D01*
D10*
X221600000Y-57600000D02*
X218320000Y-57600000D01*
X221370000Y-60200000D02*
X221370000Y-57960000D01*
X211100000Y-63100000D02*
X219500001Y-63100000D01*
X221400000Y-57960000D02*
X221600000Y-57960000D01*
D12*
X211300000Y-62900000D02*
X212700000Y-62900000D01*
D17*
X221000000Y-58100000D02*
X221000000Y-59899999D01*
D16*
X219870000Y-61600000D02*
X219870000Y-59360000D01*
D10*
X211300000Y-62750000D02*
X211100000Y-62750000D01*
X211320000Y-60500000D02*
X211320000Y-62750000D01*
D11*
X219400000Y-51100000D02*
X217070600Y-51100000D01*
D10*
X221600000Y-57600000D02*
X221600000Y-57960000D01*
D14*
X211400000Y-59800000D02*
X212800000Y-59800000D01*
D10*
X211100000Y-60500000D02*
X211300000Y-60500000D01*
D13*
X216500000Y-59900000D02*
G75*
G03*
X218716318Y-58021471I65001J2169999D01*
G01*
D10*
X216100000Y-59500000D02*
G75*
G03*
X218316318Y-57621471I65001J2169999D01*
G01*
X219500001Y-63100001D02*
G75*
G03*
X221600000Y-61199999I100000J1999999D01*
G01*
X96900000Y-115850000D02*
X96700000Y-115850000D01*
D16*
X105470000Y-114700000D02*
X105470000Y-112460000D01*
D11*
X105000000Y-104200000D02*
X102670600Y-104200000D01*
X107100000Y-113400001D02*
X107100000Y-114300000D01*
D10*
X96700000Y-113600000D02*
X96900000Y-113600000D01*
D11*
X102670600Y-102750000D02*
X105000000Y-102750000D01*
X102670600Y-104200000D02*
X102670600Y-102750000D01*
D15*
X98700000Y-114400000D02*
X105400000Y-114400000D01*
D10*
X96700000Y-115850000D02*
X96700000Y-116200000D01*
D12*
X96900000Y-116000000D02*
X98300000Y-116000000D01*
D10*
X107200000Y-113300000D02*
X107000000Y-113300000D01*
X107000000Y-111060000D02*
X107200000Y-111060000D01*
D14*
X107000000Y-110900000D02*
X104300000Y-110900000D01*
D11*
X105000000Y-102750000D02*
X105000000Y-104200000D01*
D17*
X106600000Y-111200000D02*
X106600000Y-112999999D01*
D10*
X96700000Y-116200000D02*
X105100001Y-116200000D01*
X96920000Y-113600000D02*
X96920000Y-115850000D01*
X101700000Y-112600000D02*
X96700000Y-112600000D01*
D12*
X96900000Y-113500000D02*
X96900000Y-112800000D01*
D10*
X107200000Y-114300000D02*
X107200000Y-113300000D01*
D14*
X97000000Y-112900000D02*
X98400000Y-112900000D01*
D13*
X97400000Y-115600000D02*
X97400000Y-113100000D01*
D10*
X106970000Y-113300000D02*
X106970000Y-111060000D01*
X107200000Y-110700000D02*
X107200000Y-111060000D01*
X107200000Y-110700000D02*
X103920000Y-110700000D01*
X96700000Y-112600000D02*
X96700000Y-113600000D01*
X101700000Y-112600000D02*
G75*
G03*
X103916318Y-110721471I65001J2169999D01*
G01*
D13*
X102100000Y-113000000D02*
G75*
G03*
X104316318Y-111121471I65001J2169999D01*
G01*
D10*
X105100001Y-116200001D02*
G75*
G03*
X107200000Y-114299999I100000J1999999D01*
G01*
D18*
X89140000Y-92280000D02*
X88190000Y-92280000D01*
X89140000Y-83120000D02*
X88190000Y-83120000D01*
X93115000Y-92280000D02*
X92260000Y-92280000D01*
X88190000Y-92280000D02*
X88190000Y-83120000D01*
X93115000Y-83120000D02*
X92260000Y-83120000D01*
D19*
X108208815Y-42425745D03*
X108208815Y-44965745D03*
X108208815Y-47505745D03*
X108208815Y-50045745D03*
X108208815Y-52585745D03*
X108208815Y-55125745D03*
X108208815Y-57665745D03*
X108208815Y-60205745D03*
X108208815Y-62745745D03*
X108208815Y-65285745D03*
X108208815Y-67825745D03*
X108208815Y-70365745D03*
X92968815Y-70365745D03*
X92968815Y-67825745D03*
X92968815Y-65285745D03*
X92968815Y-62745745D03*
X92968815Y-60205745D03*
X92968815Y-57665745D03*
X92968815Y-55125745D03*
X92968815Y-52585745D03*
X92968815Y-50045745D03*
X92968815Y-47505745D03*
X92968815Y-44965745D03*
X92968815Y-42425745D03*
M02*
