M48
; DRILL file {KiCad (6.0.8)} date Tue 04 Oct 2022 10:09:15 PM CEST
; FORMAT={-:-/ absolute / inch / decimal}
; #@! TF.CreationDate,2022-10-04T22:09:15+02:00
; #@! TF.GenerationSoftware,Kicad,Pcbnew,(6.0.8)
; #@! TF.FileFunction,NonPlated,1,2,NPTH
FMAT,2
INCH
; #@! TA.AperFunction,NonPlated,NPTH,ComponentDrill
T1C0.0236
; #@! TA.AperFunction,NonPlated,NPTH,ComponentDrill
T2C0.0669
; #@! TA.AperFunction,NonPlated,NPTH,ComponentDrill
T3C0.0748
; #@! TA.AperFunction,NonPlated,NPTH,ComponentDrill
T4C0.1181
; #@! TA.AperFunction,NonPlated,NPTH,ComponentDrill
T5C0.1614
%
G90
G05
T1
X3.6949Y-3.3346
X3.6949Y-3.5709
T2
X3.5402Y-5.3657
X3.811Y-4.315
X3.8732Y-5.2445
X4.1654Y-4.315
X4.309Y-5.1195
X4.5669Y-1.9685
X4.5669Y-2.7205
X4.5669Y-3.4685
X4.5669Y-4.2165
X4.6556Y-5.0458
X4.9213Y-1.9685
X4.9213Y-2.7205
X4.9213Y-3.4685
X4.9213Y-4.2165
X5.0896Y-4.9772
X5.315Y-1.8701
X5.315Y-2.622
X5.315Y-3.3701
X5.315Y-4.122
X5.4419Y-4.9401
X5.6693Y-1.8701
X5.6693Y-2.622
X5.6693Y-3.3701
X5.6693Y-4.122
X5.8682Y-4.9097
X6.0669Y-1.7717
X6.0669Y-2.5232
X6.0669Y-3.2752
X6.0669Y-4.0232
X6.2223Y-4.8974
X6.4213Y-1.7717
X6.4213Y-2.5232
X6.4213Y-3.2752
X6.4213Y-4.0232
X6.6358Y-4.8898
X6.815Y-1.8701
X6.815Y-2.6181
X6.815Y-3.3701
X6.815Y-4.122
X6.9902Y-4.8898
X7.1693Y-1.8701
X7.1693Y-2.6181
X7.1693Y-3.3701
X7.1693Y-4.122
X7.5669Y-2.2244
X7.5669Y-2.9685
X7.5669Y-3.7244
X7.5669Y-4.4724
X7.9213Y-2.2244
X7.9213Y-2.9685
X7.9213Y-3.7244
X7.9213Y-4.4724
X8.315Y-2.2244
X8.315Y-2.9685
X8.315Y-3.7244
X8.3169Y-4.4724
X8.6693Y-2.2244
X8.6693Y-2.9685
X8.6693Y-3.7244
X8.6713Y-4.4724
T3
X3.5188Y-5.3735
X3.7882Y-4.315
X3.8946Y-5.2367
X4.1882Y-4.315
X4.2867Y-5.1243
X4.5441Y-1.9685
X4.5441Y-2.7205
X4.5441Y-3.4685
X4.5441Y-4.2165
X4.6779Y-5.0411
X4.9441Y-1.9685
X4.9441Y-2.7205
X4.9441Y-3.4685
X4.9441Y-4.2165
X5.0668Y-4.9796
X5.2921Y-1.8701
X5.2921Y-2.622
X5.2921Y-3.3701
X5.2921Y-4.122
X5.4647Y-4.9378
X5.6921Y-1.8701
X5.6921Y-2.622
X5.6921Y-3.3701
X5.6921Y-4.122
X5.8454Y-4.9105
X6.0441Y-1.7717
X6.0441Y-2.5232
X6.0441Y-3.2752
X6.0441Y-4.0232
X6.2452Y-4.8966
X6.4441Y-1.7717
X6.4441Y-2.5232
X6.4441Y-3.2752
X6.4441Y-4.0232
X6.613Y-4.8898
X6.7921Y-1.8701
X6.7921Y-2.6181
X6.7921Y-3.3701
X6.7921Y-4.122
X7.013Y-4.8898
X7.1921Y-1.8701
X7.1921Y-2.6181
X7.1921Y-3.3701
X7.1921Y-4.122
X7.5441Y-2.2244
X7.5441Y-2.9685
X7.5441Y-3.7244
X7.5441Y-4.4724
X7.9441Y-2.2244
X7.9441Y-2.9685
X7.9441Y-3.7244
X7.9441Y-4.4724
X8.2921Y-2.2244
X8.2921Y-2.9685
X8.2921Y-3.7244
X8.2941Y-4.4724
X8.6921Y-2.2244
X8.6921Y-2.9685
X8.6921Y-3.7244
X8.6941Y-4.4724
T4
X3.5999Y-5.4504
X3.6811Y-5.5273
X3.8382Y-4.415
X3.8691Y-5.4589
X3.8818Y-5.3478
X3.8882Y-4.515
X4.0882Y-4.515
X4.1382Y-4.415
X4.3564Y-5.2117
X4.4261Y-5.2991
X4.5941Y-2.0685
X4.5941Y-2.8205
X4.5941Y-3.5685
X4.5941Y-4.3165
X4.6217Y-5.2575
X4.6441Y-2.1685
X4.6441Y-2.9205
X4.6441Y-3.6685
X4.6441Y-4.4165
X4.6498Y-5.1493
X4.8441Y-2.1685
X4.8441Y-2.9205
X4.8441Y-3.6685
X4.8441Y-4.4165
X4.8941Y-2.0685
X4.8941Y-2.8205
X4.8941Y-3.5685
X4.8941Y-4.3165
X5.127Y-5.0738
X5.1872Y-5.168
X5.3421Y-1.9701
X5.3421Y-2.722
X5.3421Y-3.4701
X5.3421Y-4.222
X5.3861Y-5.1471
X5.3921Y-2.0701
X5.3921Y-2.822
X5.3921Y-3.5701
X5.3921Y-4.322
X5.4254Y-5.0424
X5.5921Y-2.0701
X5.5921Y-2.822
X5.5921Y-3.5701
X5.5921Y-4.322
X5.6421Y-1.9701
X5.6421Y-2.722
X5.6421Y-3.4701
X5.6421Y-4.222
X5.8989Y-5.0087
X5.9523Y-5.1069
X6.0941Y-1.8717
X6.0941Y-2.6232
X6.0941Y-3.3752
X6.0941Y-4.1232
X6.1441Y-1.9717
X6.1441Y-2.7232
X6.1441Y-3.4752
X6.1441Y-4.2232
X6.1522Y-5.0999
X6.1987Y-4.9982
X6.3441Y-1.9717
X6.3441Y-2.7232
X6.3441Y-3.4752
X6.3441Y-4.2232
X6.3941Y-1.8717
X6.3941Y-2.6232
X6.3941Y-3.3752
X6.3941Y-4.1232
X6.663Y-4.9898
X6.713Y-5.0898
X6.8421Y-1.9701
X6.8421Y-2.7181
X6.8421Y-3.4701
X6.8421Y-4.222
X6.8921Y-2.0701
X6.8921Y-2.8181
X6.8921Y-3.5701
X6.8921Y-4.322
X6.913Y-5.0898
X6.963Y-4.9898
X7.0921Y-2.0701
X7.0921Y-2.8181
X7.0921Y-3.5701
X7.0921Y-4.322
X7.1421Y-1.9701
X7.1421Y-2.7181
X7.1421Y-3.4701
X7.1421Y-4.222
X7.5941Y-2.3244
X7.5941Y-3.0685
X7.5941Y-3.8244
X7.5941Y-4.5724
X7.6441Y-2.4244
X7.6441Y-3.1685
X7.6441Y-3.9244
X7.6441Y-4.6724
X7.8441Y-2.4244
X7.8441Y-3.1685
X7.8441Y-3.9244
X7.8441Y-4.6724
X7.8941Y-2.3244
X7.8941Y-3.0685
X7.8941Y-3.8244
X7.8941Y-4.5724
X8.3421Y-2.3244
X8.3421Y-3.0685
X8.3421Y-3.8244
X8.3441Y-4.5724
X8.3921Y-2.4244
X8.3921Y-3.1685
X8.3921Y-3.9244
X8.3941Y-4.6724
X8.5921Y-2.4244
X8.5921Y-3.1685
X8.5921Y-3.9244
X8.5941Y-4.6724
X8.6421Y-2.3244
X8.6421Y-3.0685
X8.6421Y-3.8244
X8.6441Y-4.5724
T5
X3.7067Y-5.3051
X3.9882Y-4.315
X4.4823Y-5.0827
X4.7441Y-1.9685
X4.7441Y-2.7205
X4.7441Y-3.4685
X4.7441Y-4.2165
X5.2657Y-4.9587
X5.4921Y-1.8701
X5.4921Y-2.622
X5.4921Y-3.3701
X5.4921Y-4.122
X6.0453Y-4.9035
X6.2441Y-1.7717
X6.2441Y-2.5232
X6.2441Y-3.2752
X6.2441Y-4.0232
X6.813Y-4.8898
X6.9921Y-1.8701
X6.9921Y-2.6181
X6.9921Y-3.3701
X6.9921Y-4.122
X7.7441Y-2.2244
X7.7441Y-2.9685
X7.7441Y-3.7244
X7.7441Y-4.4724
X8.4921Y-2.2244
X8.4921Y-2.9685
X8.4921Y-3.7244
X8.4941Y-4.4724
T1
G00X3.6949Y-3.3396
M15
G01X3.6949Y-3.3297
M16
G05
G00X3.6949Y-3.5659
M15
G01X3.6949Y-3.5758
M16
G05
T0
M30
