G04 #@! TF.GenerationSoftware,KiCad,Pcbnew,(6.0.8)*
G04 #@! TF.CreationDate,2022-10-04T22:09:12+02:00*
G04 #@! TF.ProjectId,SofleKeyboard,536f666c-654b-4657-9962-6f6172642e6b,rev?*
G04 #@! TF.SameCoordinates,Original*
G04 #@! TF.FileFunction,Profile,NP*
%FSLAX46Y46*%
G04 Gerber Fmt 4.6, Leading zero omitted, Abs format (unit mm)*
G04 Created by KiCad (PCBNEW (6.0.8)) date 2022-10-04 22:09:12*
%MOMM*%
%LPD*%
G01*
G04 APERTURE LIST*
G04 #@! TA.AperFunction,Profile*
%ADD10C,0.100000*%
G04 #@! TD*
G04 #@! TA.AperFunction,Profile*
%ADD11C,0.150000*%
G04 #@! TD*
G04 APERTURE END LIST*
D10*
X225283881Y-46326846D02*
X225370281Y-46507711D01*
X87900000Y-147200000D02*
X81300000Y-129300000D01*
X187200000Y-37600000D02*
X224475441Y-45774185D01*
X88297257Y-38245261D02*
X88364377Y-38029014D01*
X225443181Y-46910941D02*
X225470181Y-123700000D01*
X88611259Y-37662831D02*
X88781752Y-37522160D01*
X225424381Y-46703610D02*
X225443181Y-46910941D01*
X88781752Y-37522160D02*
X88977436Y-37415945D01*
X225370281Y-46507711D02*
X225424381Y-46703610D01*
X81430000Y-127910000D02*
X88000000Y-115650000D01*
X88364377Y-38029014D02*
X88470590Y-37833327D01*
X88273857Y-38477435D02*
X88297257Y-38245261D01*
X224677111Y-45825815D02*
X224861871Y-45910505D01*
X224475441Y-45774185D02*
X224677111Y-45825815D01*
X88470590Y-37833327D02*
X88611259Y-37662831D01*
X163500000Y-134300000D02*
X182700000Y-134300000D01*
X149000000Y-35000000D02*
X89425853Y-37325405D01*
X88275257Y-114400000D02*
X88200000Y-115050000D01*
X81300000Y-129300000D02*
X81230000Y-128900000D01*
X81310000Y-128230000D02*
X81430000Y-127910000D01*
X81250000Y-128560000D02*
X81310000Y-128230000D01*
X88200000Y-115050000D02*
X88000000Y-115650000D01*
X81230000Y-128900000D02*
X81250000Y-128560000D01*
X225470181Y-123700000D02*
X182700000Y-134300000D01*
X88275257Y-114400000D02*
X88273857Y-38477435D01*
X225168321Y-46164621D02*
X225283881Y-46326846D01*
X224861871Y-45910505D02*
X225026621Y-46024639D01*
X149000000Y-35000000D02*
X170950000Y-35000000D01*
X88977436Y-37415945D02*
X89193680Y-37348815D01*
X89193680Y-37348815D02*
X89425853Y-37325405D01*
X225026621Y-46024639D02*
X225168321Y-46164621D01*
X106600000Y-141000000D02*
X88700000Y-147600000D01*
X125300000Y-137000000D02*
X144400000Y-135000000D01*
X87900058Y-147199979D02*
G75*
G03*
X88700000Y-147600000I609642J219279D01*
G01*
X106600000Y-141000000D02*
X125300000Y-137000000D01*
X170950000Y-35000000D02*
X187200000Y-37600000D01*
X144400000Y-135000000D02*
X163500000Y-134300000D01*
D11*
X122250000Y-46400000D02*
X122250000Y-42800000D01*
X118750000Y-46400000D02*
X118750000Y-42800000D01*
X122250000Y-46400000D02*
X118750000Y-46400000D01*
X118750000Y-42800000D02*
X122250000Y-42800000D01*
X137750000Y-43900000D02*
X137750000Y-40300000D01*
X141250000Y-43900000D02*
X141250000Y-40300000D01*
X141250000Y-43900000D02*
X137750000Y-43900000D01*
X137750000Y-40300000D02*
X141250000Y-40300000D01*
X160350000Y-41400000D02*
X160350000Y-37800000D01*
X156850000Y-41400000D02*
X156850000Y-37800000D01*
X156850000Y-37800000D02*
X160350000Y-37800000D01*
X160350000Y-41400000D02*
X156850000Y-41400000D01*
X179350000Y-43900000D02*
X175850000Y-43900000D01*
X179350000Y-43900000D02*
X179350000Y-40300000D01*
X175850000Y-43900000D02*
X175850000Y-40300000D01*
X175850000Y-40300000D02*
X179350000Y-40300000D01*
X198450000Y-52900000D02*
X194950000Y-52900000D01*
X198450000Y-52900000D02*
X198450000Y-49300000D01*
X194950000Y-49300000D02*
X198450000Y-49300000D01*
X194950000Y-52900000D02*
X194950000Y-49300000D01*
X118750000Y-61900000D02*
X122250000Y-61900000D01*
X122250000Y-65500000D02*
X122250000Y-61900000D01*
X118750000Y-65500000D02*
X118750000Y-61900000D01*
X122250000Y-65500000D02*
X118750000Y-65500000D01*
X141250000Y-63000000D02*
X141250000Y-59400000D01*
X137750000Y-63000000D02*
X137750000Y-59400000D01*
X141250000Y-63000000D02*
X137750000Y-63000000D01*
X137750000Y-59400000D02*
X141250000Y-59400000D01*
X160350000Y-60490000D02*
X160350000Y-56890000D01*
X156850000Y-60490000D02*
X156850000Y-56890000D01*
X160350000Y-60490000D02*
X156850000Y-60490000D01*
X156850000Y-56890000D02*
X160350000Y-56890000D01*
X179350000Y-62900000D02*
X179350000Y-59300000D01*
X179350000Y-62900000D02*
X175850000Y-62900000D01*
X175850000Y-59300000D02*
X179350000Y-59300000D01*
X175850000Y-62900000D02*
X175850000Y-59300000D01*
X198450000Y-71800000D02*
X194950000Y-71800000D01*
X194950000Y-71800000D02*
X194950000Y-68200000D01*
X198450000Y-71800000D02*
X198450000Y-68200000D01*
X194950000Y-68200000D02*
X198450000Y-68200000D01*
X217450000Y-71800000D02*
X217450000Y-68200000D01*
X213950000Y-68200000D02*
X217450000Y-68200000D01*
X213950000Y-71800000D02*
X213950000Y-68200000D01*
X217450000Y-71800000D02*
X213950000Y-71800000D01*
X122250000Y-84500000D02*
X122250000Y-80900000D01*
X122250000Y-84500000D02*
X118750000Y-84500000D01*
X118750000Y-84500000D02*
X118750000Y-80900000D01*
X118750000Y-80900000D02*
X122250000Y-80900000D01*
X141250000Y-82000000D02*
X141250000Y-78400000D01*
X141250000Y-82000000D02*
X137750000Y-82000000D01*
X137750000Y-82000000D02*
X137750000Y-78400000D01*
X137750000Y-78400000D02*
X141250000Y-78400000D01*
X156850000Y-75990000D02*
X160350000Y-75990000D01*
X160350000Y-79590000D02*
X156850000Y-79590000D01*
X160350000Y-79590000D02*
X160350000Y-75990000D01*
X156850000Y-79590000D02*
X156850000Y-75990000D01*
X175850000Y-78400000D02*
X179350000Y-78400000D01*
X179350000Y-82000000D02*
X175850000Y-82000000D01*
X175850000Y-82000000D02*
X175850000Y-78400000D01*
X179350000Y-82000000D02*
X179350000Y-78400000D01*
X198450000Y-91000000D02*
X198450000Y-87400000D01*
X198450000Y-91000000D02*
X194950000Y-91000000D01*
X194950000Y-91000000D02*
X194950000Y-87400000D01*
X194950000Y-87400000D02*
X198450000Y-87400000D01*
X217450000Y-91000000D02*
X217450000Y-87400000D01*
X213950000Y-91000000D02*
X213950000Y-87400000D01*
X213950000Y-87400000D02*
X217450000Y-87400000D01*
X217450000Y-91000000D02*
X213950000Y-91000000D01*
X122250000Y-103500000D02*
X118750000Y-103500000D01*
X118750000Y-99900000D02*
X122250000Y-99900000D01*
X122250000Y-103500000D02*
X122250000Y-99900000D01*
X118750000Y-103500000D02*
X118750000Y-99900000D01*
X137750000Y-97500000D02*
X141250000Y-97500000D01*
X141250000Y-101100000D02*
X137750000Y-101100000D01*
X137750000Y-101100000D02*
X137750000Y-97500000D01*
X141250000Y-101100000D02*
X141250000Y-97500000D01*
X160350000Y-98590000D02*
X156850000Y-98590000D01*
X160350000Y-98590000D02*
X160350000Y-94990000D01*
X156850000Y-98590000D02*
X156850000Y-94990000D01*
X156850000Y-94990000D02*
X160350000Y-94990000D01*
X175850000Y-97500000D02*
X179350000Y-97500000D01*
X179350000Y-101100000D02*
X175850000Y-101100000D01*
X175850000Y-101100000D02*
X175850000Y-97500000D01*
X179350000Y-101100000D02*
X179350000Y-97500000D01*
X194950000Y-110000000D02*
X194950000Y-106400000D01*
X198450000Y-110000000D02*
X198450000Y-106400000D01*
X198450000Y-110000000D02*
X194950000Y-110000000D01*
X194950000Y-106400000D02*
X198450000Y-106400000D01*
X214000000Y-110000000D02*
X214000000Y-106400000D01*
X214000000Y-106400000D02*
X217500000Y-106400000D01*
X217500000Y-110000000D02*
X214000000Y-110000000D01*
X217500000Y-110000000D02*
X217500000Y-106400000D01*
X90042993Y-128582748D02*
X93331917Y-127385678D01*
X91274265Y-131965642D02*
X90042993Y-128582748D01*
X94563190Y-130768571D02*
X93331917Y-127385678D01*
X94563190Y-130768571D02*
X91274265Y-131965642D01*
X131256982Y-118972367D02*
X134737808Y-118606518D01*
X135114111Y-122186796D02*
X134737808Y-118606518D01*
X131633284Y-122552646D02*
X131256982Y-118972367D01*
X135114111Y-122186796D02*
X131633284Y-122552646D01*
X155173296Y-120891119D02*
X151675428Y-121013267D01*
X151549790Y-117415460D02*
X155047658Y-117293312D01*
X151675428Y-121013267D02*
X151549790Y-117415460D01*
X155173296Y-120891119D02*
X155047658Y-117293312D01*
X174800000Y-120600000D02*
X174800000Y-117000000D01*
X174800000Y-120600000D02*
X171300000Y-120600000D01*
X171300000Y-120600000D02*
X171300000Y-117000000D01*
X171300000Y-117000000D02*
X174800000Y-117000000D01*
X114813276Y-125214823D02*
X111389760Y-125942514D01*
X111389760Y-125942514D02*
X110641278Y-122421183D01*
X114813276Y-125214823D02*
X114064794Y-121693492D01*
X110641278Y-122421183D02*
X114064794Y-121693492D01*
X213950000Y-49300000D02*
X217450000Y-49300000D01*
X213950000Y-52900000D02*
X213950000Y-49300000D01*
X217450000Y-52900000D02*
X217450000Y-49300000D01*
X217450000Y-52900000D02*
X213950000Y-52900000D01*
X99550000Y-102400000D02*
X103050000Y-102400000D01*
X103050000Y-106000000D02*
X99550000Y-106000000D01*
X103050000Y-106000000D02*
X103050000Y-102400000D01*
X99550000Y-106000000D02*
X99550000Y-102400000D01*
M02*
