G04 #@! TF.GenerationSoftware,KiCad,Pcbnew,(6.0.8)*
G04 #@! TF.CreationDate,2022-10-04T22:09:12+02:00*
G04 #@! TF.ProjectId,SofleKeyboard,536f666c-654b-4657-9962-6f6172642e6b,rev?*
G04 #@! TF.SameCoordinates,Original*
G04 #@! TF.FileFunction,Soldermask,Bot*
G04 #@! TF.FilePolarity,Negative*
%FSLAX46Y46*%
G04 Gerber Fmt 4.6, Leading zero omitted, Abs format (unit mm)*
G04 Created by KiCad (PCBNEW (6.0.8)) date 2022-10-04 22:09:12*
%MOMM*%
%LPD*%
G01*
G04 APERTURE LIST*
G04 Aperture macros list*
%AMRoundRect*
0 Rectangle with rounded corners*
0 $1 Rounding radius*
0 $2 $3 $4 $5 $6 $7 $8 $9 X,Y pos of 4 corners*
0 Add a 4 corners polygon primitive as box body*
4,1,4,$2,$3,$4,$5,$6,$7,$8,$9,$2,$3,0*
0 Add four circle primitives for the rounded corners*
1,1,$1+$1,$2,$3*
1,1,$1+$1,$4,$5*
1,1,$1+$1,$6,$7*
1,1,$1+$1,$8,$9*
0 Add four rect primitives between the rounded corners*
20,1,$1+$1,$2,$3,$4,$5,0*
20,1,$1+$1,$4,$5,$6,$7,0*
20,1,$1+$1,$6,$7,$8,$9,0*
20,1,$1+$1,$8,$9,$2,$3,0*%
G04 Aperture macros list end*
%ADD10C,5.100000*%
%ADD11C,1.924000*%
%ADD12C,2.400000*%
%ADD13RoundRect,0.200000X-0.475000X0.650000X-0.475000X-0.650000X0.475000X-0.650000X0.475000X0.650000X0*%
%ADD14RoundRect,0.200000X-0.650000X-0.475000X0.650000X-0.475000X0.650000X0.475000X-0.650000X0.475000X0*%
%ADD15C,4.500000*%
%ADD16C,3.400000*%
%ADD17C,2.100000*%
%ADD18C,2.300000*%
%ADD19RoundRect,0.200000X0.900000X0.410000X-0.900000X0.410000X-0.900000X-0.410000X0.900000X-0.410000X0*%
%ADD20RoundRect,0.200000X-1.150000X-1.000000X1.150000X-1.000000X1.150000X1.000000X-1.150000X1.000000X0*%
%ADD21RoundRect,0.200000X0.705495X0.693092X-0.985952X0.077456X-0.705495X-0.693092X0.985952X-0.077456X0*%
%ADD22RoundRect,0.200000X-0.738626X-1.333016X1.422667X-0.546369X0.738626X1.333016X-1.422667X0.546369X0*%
%ADD23RoundRect,0.200000X0.852213X0.501830X-0.937926X0.313678X-0.852213X-0.501830X0.937926X-0.313678X0*%
%ADD24RoundRect,0.200000X-1.039172X-1.114730X1.248229X-0.874314X1.039172X1.114730X-1.248229X0.874314X0*%
%ADD25RoundRect,0.200000X0.885143X0.441160X-0.913761X0.378341X-0.885143X-0.441160X0.913761X-0.378341X0*%
%ADD26RoundRect,0.200000X-1.114400X-1.039525X1.184199X-0.959256X1.114400X1.039525X-1.184199X0.959256X0*%
%ADD27C,4.400000*%
%ADD28C,1.797000*%
%ADD29RoundRect,0.200000X0.500000X-1.000000X0.500000X1.000000X-0.500000X1.000000X-0.500000X-1.000000X0*%
%ADD30RoundRect,0.200000X0.795089X0.588161X-0.965577X0.213920X-0.795089X-0.588161X0.965577X-0.213920X0*%
%ADD31RoundRect,0.200000X-0.916958X-1.217246X1.332781X-0.739049X0.916958X1.217246X-1.332781X0.739049X0*%
%ADD32C,1.000000*%
%ADD33O,1.000000X1.250000*%
%ADD34O,2.700000X1.700000*%
%ADD35O,3.000000X1.700000*%
%ADD36RoundRect,0.200000X1.000000X-0.500000X1.000000X0.500000X-1.000000X0.500000X-1.000000X-0.500000X0*%
%ADD37RoundRect,0.200000X0.500000X-0.260000X0.500000X0.260000X-0.500000X0.260000X-0.500000X-0.260000X0*%
%ADD38RoundRect,0.200000X0.500000X-0.135000X0.500000X0.135000X-0.500000X0.135000X-0.500000X-0.135000X0*%
G04 APERTURE END LIST*
D10*
X130000000Y-57000000D03*
X206000000Y-65600000D03*
X130000000Y-97500000D03*
X206000000Y-104100000D03*
X90700000Y-122100000D03*
D11*
X91670000Y-41230000D03*
X108208815Y-42425745D03*
X108208815Y-44965745D03*
X91670000Y-43770000D03*
X108208815Y-47505745D03*
X91670000Y-46310000D03*
X91670000Y-48850000D03*
X108208815Y-50045745D03*
X108208815Y-52585745D03*
X91670000Y-51390000D03*
X108208815Y-55125745D03*
X91670000Y-53930000D03*
X91670000Y-56470000D03*
X108208815Y-57665745D03*
X108208815Y-60205745D03*
X91670000Y-59010000D03*
X91670000Y-61550000D03*
X108208815Y-62745745D03*
X91670000Y-64090000D03*
X108208815Y-65285745D03*
X108208815Y-67825745D03*
X91670000Y-66630000D03*
X91670000Y-69170000D03*
X108208815Y-70365745D03*
X106910000Y-69170000D03*
X92968815Y-70365745D03*
X92968815Y-67825745D03*
X106910000Y-66630000D03*
X92968815Y-65285745D03*
X106910000Y-64090000D03*
X92968815Y-62745745D03*
X106910000Y-61550000D03*
X92968815Y-60205745D03*
X106910000Y-59010000D03*
X92968815Y-57665745D03*
X106910000Y-56470000D03*
X92968815Y-55125745D03*
X106910000Y-53930000D03*
X92968815Y-52585745D03*
X106910000Y-51390000D03*
X92968815Y-50045745D03*
X106910000Y-48850000D03*
X106910000Y-46310000D03*
X92968815Y-47505745D03*
X92968815Y-44965745D03*
X106910000Y-43770000D03*
X106910000Y-41230000D03*
X92968815Y-42425745D03*
D12*
X90000000Y-79750000D03*
X90000000Y-73250000D03*
D13*
X128750000Y-44000000D03*
X128750000Y-47550000D03*
X131000000Y-44005500D03*
X131000000Y-47555500D03*
X150500000Y-41265000D03*
X150500000Y-44815000D03*
X169250000Y-43650000D03*
X169250000Y-47200000D03*
X188000000Y-52575000D03*
X188000000Y-56125000D03*
X207750000Y-52350000D03*
X207750000Y-55900000D03*
X128000000Y-63140000D03*
X128000000Y-66690000D03*
X129800000Y-63165000D03*
X129800000Y-66715000D03*
X150250000Y-59290000D03*
X150250000Y-62840000D03*
X169500000Y-61875000D03*
X169500000Y-65425000D03*
X188250000Y-69100000D03*
X188250000Y-72650000D03*
X207750000Y-71900000D03*
X207750000Y-75450000D03*
X128500000Y-82000000D03*
X128500000Y-85550000D03*
X131250000Y-81900000D03*
X131250000Y-85450000D03*
X149750000Y-79790000D03*
X149750000Y-83340000D03*
X169725000Y-81650000D03*
X169725000Y-85200000D03*
X188500000Y-90200000D03*
X188500000Y-93750000D03*
X207750000Y-90500000D03*
X207750000Y-94050000D03*
X112000000Y-100975000D03*
X112000000Y-104525000D03*
X130000000Y-102425000D03*
X130000000Y-105975000D03*
X150000000Y-96790000D03*
X150000000Y-100340000D03*
X169250000Y-100375000D03*
X169250000Y-103925000D03*
X188500000Y-109075000D03*
X188500000Y-112625000D03*
X208200000Y-109600000D03*
X208200000Y-113150000D03*
X92900000Y-103725000D03*
X92900000Y-107275000D03*
X86900000Y-131425000D03*
X86900000Y-134975000D03*
D14*
X102525000Y-128800000D03*
X106075000Y-128800000D03*
X122425000Y-125000000D03*
X125975000Y-125000000D03*
X142325000Y-123400000D03*
X145875000Y-123400000D03*
D15*
X120500000Y-50000000D03*
D16*
X124310000Y-52540000D03*
X123040000Y-55080000D03*
X117960000Y-55080000D03*
D17*
X125000000Y-50000000D03*
D18*
X125580000Y-50000000D03*
X115420000Y-50000000D03*
D16*
X116690000Y-52540001D03*
D17*
X116000000Y-50000000D03*
D19*
X123000000Y-43875000D03*
X118000000Y-43875000D03*
X118000000Y-45375000D03*
X123000000Y-45375000D03*
D20*
X114800000Y-55120000D03*
X127500000Y-52580000D03*
D16*
X135690000Y-50040001D03*
X142040000Y-52580000D03*
D17*
X144000000Y-47500000D03*
D16*
X136960000Y-52580000D03*
D18*
X134420000Y-47500000D03*
D15*
X139500000Y-47500000D03*
D17*
X135000000Y-47500000D03*
D18*
X144580000Y-47500000D03*
D16*
X143310000Y-50040000D03*
D19*
X142000000Y-41375000D03*
X137000000Y-41375000D03*
X137000000Y-42875000D03*
X142000000Y-42875000D03*
D20*
X133800000Y-52620000D03*
X146500000Y-50080000D03*
D16*
X162410000Y-47540000D03*
D15*
X158600000Y-45000000D03*
D16*
X156060000Y-50080000D03*
D18*
X163680000Y-45000000D03*
X153520000Y-45000000D03*
D16*
X161140000Y-50080000D03*
X154790000Y-47540001D03*
D17*
X154100000Y-45000000D03*
X163100000Y-45000000D03*
D19*
X161100000Y-38875000D03*
X156100000Y-38875000D03*
X156100000Y-40375000D03*
X161100000Y-40375000D03*
D20*
X152900000Y-50120000D03*
X165600000Y-47580000D03*
D18*
X172520000Y-47500000D03*
X182680000Y-47500000D03*
D16*
X181410000Y-50040000D03*
D17*
X182100000Y-47500000D03*
D15*
X177600000Y-47500000D03*
D16*
X173790000Y-50040001D03*
D17*
X173100000Y-47500000D03*
D16*
X180140000Y-52580000D03*
X175060000Y-52580000D03*
D19*
X180100000Y-41375000D03*
X175100000Y-41375000D03*
X175100000Y-42875000D03*
X180100000Y-42875000D03*
D20*
X171900000Y-52620000D03*
X184600000Y-50080000D03*
D16*
X200510000Y-59040000D03*
X199240000Y-61580000D03*
X194160000Y-61580000D03*
D18*
X191620000Y-56500000D03*
D16*
X192890000Y-59040001D03*
D18*
X201780000Y-56500000D03*
D17*
X201200000Y-56500000D03*
X192200000Y-56500000D03*
D15*
X196700000Y-56500000D03*
D19*
X199200000Y-50375000D03*
X194200000Y-50375000D03*
X194200000Y-51875000D03*
X199200000Y-51875000D03*
D20*
X191000000Y-61620000D03*
X203700000Y-59080000D03*
D16*
X123040000Y-74180000D03*
X124310000Y-71640000D03*
D18*
X125580000Y-69100000D03*
D16*
X117960000Y-74180000D03*
D17*
X116000000Y-69100000D03*
X125000000Y-69100000D03*
D18*
X115420000Y-69100000D03*
D16*
X116690000Y-71640001D03*
D15*
X120500000Y-69100000D03*
D19*
X123000000Y-62975000D03*
X118000000Y-62975000D03*
X118000000Y-64475000D03*
X123000000Y-64475000D03*
D20*
X114800000Y-74220000D03*
X127500000Y-71680000D03*
D16*
X135690000Y-69140001D03*
D18*
X134420000Y-66600000D03*
D16*
X136960000Y-71680000D03*
D18*
X144580000Y-66600000D03*
D17*
X135000000Y-66600000D03*
D15*
X139500000Y-66600000D03*
D16*
X142040000Y-71680000D03*
D17*
X144000000Y-66600000D03*
D16*
X143310000Y-69140000D03*
D19*
X142000000Y-60475000D03*
X137000000Y-60475000D03*
X137000000Y-61975000D03*
X142000000Y-61975000D03*
D20*
X133800000Y-71720000D03*
X146500000Y-69180000D03*
D18*
X153520000Y-64090000D03*
X163680000Y-64090000D03*
D16*
X154790000Y-66630001D03*
D17*
X163100000Y-64090000D03*
D15*
X158600000Y-64090000D03*
D16*
X156060000Y-69170000D03*
D17*
X154100000Y-64090000D03*
D16*
X161140000Y-69170000D03*
X162410000Y-66630000D03*
D19*
X161100000Y-57965000D03*
X156100000Y-57965000D03*
X156100000Y-59465000D03*
X161100000Y-59465000D03*
D20*
X152900000Y-69210000D03*
X165600000Y-66670000D03*
D16*
X173790000Y-69040001D03*
X181410000Y-69040000D03*
X175060000Y-71580000D03*
D18*
X182680000Y-66500000D03*
D15*
X177600000Y-66500000D03*
D18*
X172520000Y-66500000D03*
D16*
X180140000Y-71580000D03*
D17*
X182100000Y-66500000D03*
X173100000Y-66500000D03*
D19*
X180100000Y-60375000D03*
X175100000Y-60375000D03*
X175100000Y-61875000D03*
X180100000Y-61875000D03*
D20*
X171900000Y-71620000D03*
X184600000Y-69080000D03*
D16*
X192890000Y-77940001D03*
X200510000Y-77940000D03*
D17*
X192200000Y-75400000D03*
D18*
X201780000Y-75400000D03*
D17*
X201200000Y-75400000D03*
D16*
X194160000Y-80480000D03*
D18*
X191620000Y-75400000D03*
D16*
X199240000Y-80480000D03*
D15*
X196700000Y-75400000D03*
D19*
X199200000Y-69275000D03*
X194200000Y-69275000D03*
X194200000Y-70775000D03*
X199200000Y-70775000D03*
D20*
X191000000Y-80520000D03*
X203700000Y-77980000D03*
D17*
X220200000Y-75400000D03*
D15*
X215700000Y-75400000D03*
D16*
X211890000Y-77940001D03*
D17*
X211200000Y-75400000D03*
D16*
X213160000Y-80480000D03*
X218240000Y-80480000D03*
D18*
X210620000Y-75400000D03*
D16*
X219510000Y-77940000D03*
D18*
X220780000Y-75400000D03*
D19*
X218200000Y-69275000D03*
X213200000Y-69275000D03*
X213200000Y-70775000D03*
X218200000Y-70775000D03*
D20*
X210000000Y-80520000D03*
X222700000Y-77980000D03*
D16*
X116690000Y-90640001D03*
D15*
X120500000Y-88100000D03*
D18*
X115420000Y-88100000D03*
D16*
X117960000Y-93180000D03*
D17*
X125000000Y-88100000D03*
D16*
X123040000Y-93180000D03*
X124310000Y-90640000D03*
D18*
X125580000Y-88100000D03*
D17*
X116000000Y-88100000D03*
D19*
X123000000Y-81975000D03*
X118000000Y-81975000D03*
X118000000Y-83475000D03*
X123000000Y-83475000D03*
D20*
X114800000Y-93220000D03*
X127500000Y-90680000D03*
D18*
X134420000Y-85600000D03*
D16*
X143310000Y-88140000D03*
D17*
X135000000Y-85600000D03*
D15*
X139500000Y-85600000D03*
D16*
X142040000Y-90680000D03*
X136960000Y-90680000D03*
X135690000Y-88140001D03*
D17*
X144000000Y-85600000D03*
D18*
X144580000Y-85600000D03*
D19*
X142000000Y-79475000D03*
X137000000Y-79475000D03*
X137000000Y-80975000D03*
X142000000Y-80975000D03*
D20*
X133800000Y-90720000D03*
X146500000Y-88180000D03*
D18*
X163680000Y-83190000D03*
D16*
X161140000Y-88270000D03*
D18*
X153520000Y-83190000D03*
D16*
X154790000Y-85730001D03*
X162410000Y-85730000D03*
D15*
X158600000Y-83190000D03*
D16*
X156060000Y-88270000D03*
D17*
X154100000Y-83190000D03*
X163100000Y-83190000D03*
D19*
X161100000Y-77065000D03*
X156100000Y-77065000D03*
X156100000Y-78565000D03*
X161100000Y-78565000D03*
D20*
X152900000Y-88310000D03*
X165600000Y-85770000D03*
D18*
X182680000Y-85600000D03*
D16*
X173790000Y-88140001D03*
X181410000Y-88140000D03*
D15*
X177600000Y-85600000D03*
D17*
X182100000Y-85600000D03*
D18*
X172520000Y-85600000D03*
D17*
X173100000Y-85600000D03*
D16*
X175060000Y-90680000D03*
X180140000Y-90680000D03*
D19*
X180100000Y-79475000D03*
X175100000Y-79475000D03*
X175100000Y-80975000D03*
X180100000Y-80975000D03*
D20*
X171900000Y-90720000D03*
X184600000Y-88180000D03*
D17*
X201200000Y-94600000D03*
D16*
X194160000Y-99680000D03*
X200510000Y-97140000D03*
D18*
X201780000Y-94600000D03*
D16*
X199240000Y-99680000D03*
D17*
X192200000Y-94600000D03*
D18*
X191620000Y-94600000D03*
D15*
X196700000Y-94600000D03*
D16*
X192890000Y-97140001D03*
D19*
X199200000Y-88475000D03*
X194200000Y-88475000D03*
X194200000Y-89975000D03*
X199200000Y-89975000D03*
D20*
X191000000Y-99720000D03*
X203700000Y-97180000D03*
D17*
X211200000Y-94600000D03*
X220200000Y-94600000D03*
D16*
X219510000Y-97140000D03*
D15*
X215700000Y-94600000D03*
D16*
X211890000Y-97140001D03*
D18*
X220780000Y-94600000D03*
D16*
X213160000Y-99680000D03*
X218240000Y-99680000D03*
D18*
X210620000Y-94600000D03*
D19*
X218200000Y-88475000D03*
X213200000Y-88475000D03*
X213200000Y-89975000D03*
X218200000Y-89975000D03*
D20*
X210000000Y-99720000D03*
X222700000Y-97180000D03*
D16*
X116690000Y-109640001D03*
D17*
X116000000Y-107100000D03*
D15*
X120500000Y-107100000D03*
D18*
X115420000Y-107100000D03*
D16*
X117960000Y-112180000D03*
X123040000Y-112180000D03*
X124310000Y-109640000D03*
D17*
X125000000Y-107100000D03*
D18*
X125580000Y-107100000D03*
D19*
X123000000Y-100975000D03*
X118000000Y-100975000D03*
X118000000Y-102475000D03*
X123000000Y-102475000D03*
D20*
X114800000Y-112220000D03*
X127500000Y-109680000D03*
D17*
X135000000Y-104700000D03*
D15*
X139500000Y-104700000D03*
D17*
X144000000Y-104700000D03*
D16*
X142040000Y-109780000D03*
D18*
X134420000Y-104700000D03*
X144580000Y-104700000D03*
D16*
X143310000Y-107240000D03*
X135690000Y-107240001D03*
X136960000Y-109780000D03*
D19*
X142000000Y-98575000D03*
X137000000Y-98575000D03*
X137000000Y-100075000D03*
X142000000Y-100075000D03*
D20*
X133800000Y-109820000D03*
X146500000Y-107280000D03*
D16*
X161140000Y-107270000D03*
X154790000Y-104730001D03*
D15*
X158600000Y-102190000D03*
D18*
X153520000Y-102190000D03*
D16*
X156060000Y-107270000D03*
D18*
X163680000Y-102190000D03*
D16*
X162410000Y-104730000D03*
D17*
X163100000Y-102190000D03*
X154100000Y-102190000D03*
D19*
X161100000Y-96065000D03*
X156100000Y-96065000D03*
X156100000Y-97565000D03*
X161100000Y-97565000D03*
D20*
X152900000Y-107310000D03*
X165600000Y-104770000D03*
D16*
X180140000Y-109780000D03*
X173790000Y-107240001D03*
D15*
X177600000Y-104700000D03*
D16*
X181410000Y-107240000D03*
D17*
X173100000Y-104700000D03*
D18*
X172520000Y-104700000D03*
D16*
X175060000Y-109780000D03*
D18*
X182680000Y-104700000D03*
D17*
X182100000Y-104700000D03*
D19*
X180100000Y-98575000D03*
X175100000Y-98575000D03*
X175100000Y-100075000D03*
X180100000Y-100075000D03*
D20*
X171900000Y-109820000D03*
X184600000Y-107280000D03*
D16*
X192890000Y-116140001D03*
D15*
X196700000Y-113600000D03*
D18*
X201780000Y-113600000D03*
X191620000Y-113600000D03*
D17*
X201200000Y-113600000D03*
X192200000Y-113600000D03*
D16*
X200510000Y-116140000D03*
X199240000Y-118680000D03*
X194160000Y-118680000D03*
D19*
X199200000Y-107475000D03*
X194200000Y-107475000D03*
X194200000Y-108975000D03*
X199200000Y-108975000D03*
D20*
X191000000Y-118720000D03*
X203700000Y-116180000D03*
D17*
X211250000Y-113600000D03*
D16*
X219560000Y-116140000D03*
D15*
X215750000Y-113600000D03*
D18*
X220830000Y-113600000D03*
D16*
X213210000Y-118680000D03*
D17*
X220250000Y-113600000D03*
D18*
X210670000Y-113600000D03*
D16*
X211940000Y-116140001D03*
X218290000Y-118680000D03*
D19*
X218250000Y-107475000D03*
X213250000Y-107475000D03*
X213250000Y-108975000D03*
X218250000Y-108975000D03*
D20*
X210050000Y-118720000D03*
X222750000Y-116180000D03*
D16*
X98274282Y-138654907D03*
X98598960Y-135833723D03*
D17*
X98378617Y-133210909D03*
D15*
X94150000Y-134750000D03*
D16*
X93500643Y-140392370D03*
D17*
X89921383Y-136289091D03*
D16*
X91438503Y-138439917D03*
D18*
X89376361Y-136487462D03*
X98923639Y-133012538D03*
D21*
X94404358Y-128139332D03*
X89705895Y-129849433D03*
X90218925Y-131258972D03*
X94917388Y-129548871D03*
D22*
X90544895Y-141510741D03*
X101610260Y-134780266D03*
D15*
X133750000Y-125950000D03*
D17*
X129274651Y-126420378D03*
D16*
X130226374Y-128874340D03*
X137804631Y-128077832D03*
D18*
X138802171Y-125418995D03*
D16*
X136807090Y-130736669D03*
X131754919Y-131267674D03*
D17*
X138225349Y-125479622D03*
D18*
X128697829Y-126481005D03*
D23*
X135596068Y-119597232D03*
X130623458Y-120119875D03*
X130780251Y-121611657D03*
X135752861Y-121089015D03*
D24*
X128616411Y-131637764D03*
X140981337Y-127784167D03*
D17*
X149052741Y-124707048D03*
D16*
X151188837Y-129715550D03*
X157446324Y-126955486D03*
D17*
X158047259Y-124392952D03*
D15*
X153550000Y-124550000D03*
D16*
X149830966Y-127221421D03*
D18*
X158626905Y-124372711D03*
X148473095Y-124727289D03*
D16*
X156265742Y-129538261D03*
D25*
X155834718Y-118341482D03*
X150837764Y-118515980D03*
X150890113Y-120015066D03*
X155887067Y-119840569D03*
D26*
X148032158Y-129865808D03*
X160635776Y-126884132D03*
D27*
X91500000Y-96500000D03*
D28*
X96190000Y-74600000D03*
X98730000Y-74600000D03*
X101270000Y-74600000D03*
X103810000Y-74600000D03*
D14*
X161425000Y-121700000D03*
X164975000Y-121700000D03*
D27*
X107000000Y-96500000D03*
D29*
X107035000Y-87187900D03*
X105285000Y-87187900D03*
X105285000Y-82787900D03*
X107035000Y-82787900D03*
D17*
X168550000Y-124200000D03*
D18*
X178130000Y-124200000D03*
X167970000Y-124200000D03*
D16*
X169240000Y-126740001D03*
X175590000Y-129280000D03*
X170510000Y-129280000D03*
X176860000Y-126740000D03*
D15*
X173050000Y-124200000D03*
D17*
X177550000Y-124200000D03*
D19*
X175550000Y-118075000D03*
X170550000Y-118075000D03*
X170550000Y-119575000D03*
X175550000Y-119575000D03*
D20*
X167350000Y-129320000D03*
X180050000Y-126780000D03*
D18*
X118818990Y-128043809D03*
D16*
X118104838Y-130792351D03*
D17*
X109448336Y-130035603D03*
D16*
X112421696Y-134597086D03*
X110651354Y-132376639D03*
D18*
X108881010Y-130156191D03*
D16*
X117390686Y-133540894D03*
D15*
X113850000Y-129100000D03*
D17*
X118251664Y-128164397D03*
D30*
X115021910Y-122589067D03*
X110131172Y-123628625D03*
X110443039Y-125095847D03*
X115333777Y-124056288D03*
D31*
X109339067Y-135293212D03*
X121233445Y-130168239D03*
D16*
X213160000Y-61580000D03*
D18*
X210620000Y-56500000D03*
D17*
X211200000Y-56500000D03*
D18*
X220780000Y-56500000D03*
D16*
X219510000Y-59040000D03*
D17*
X220200000Y-56500000D03*
D16*
X211890000Y-59040001D03*
D15*
X215700000Y-56500000D03*
D16*
X218240000Y-61580000D03*
D19*
X218200000Y-50375000D03*
X213200000Y-50375000D03*
X213200000Y-51875000D03*
X218200000Y-51875000D03*
D20*
X210000000Y-61620000D03*
X222700000Y-59080000D03*
D32*
X93850000Y-84700000D03*
D33*
X93850000Y-90700000D03*
D34*
X94575000Y-83380000D03*
D35*
X90750000Y-92020000D03*
D34*
X94575000Y-92020000D03*
D35*
X90750000Y-83380000D03*
D16*
X103840000Y-114680000D03*
D17*
X96800000Y-109600000D03*
D16*
X98760000Y-114680000D03*
X97490000Y-112140001D03*
D18*
X106380000Y-109600000D03*
D16*
X105110000Y-112140000D03*
D17*
X105800000Y-109600000D03*
D18*
X96220000Y-109600000D03*
D15*
X101300000Y-109600000D03*
D19*
X103800000Y-103475000D03*
X98800000Y-103475000D03*
X98800000Y-104975000D03*
X103800000Y-104975000D03*
D20*
X95600000Y-114720000D03*
X108300000Y-112180000D03*
D32*
X93850000Y-90700000D03*
D36*
X90750000Y-86300000D03*
D33*
X93850000Y-84700000D03*
D36*
X90750000Y-89100000D03*
D37*
X94950000Y-90800000D03*
X94950000Y-90050000D03*
D38*
X94950000Y-89450000D03*
X94950000Y-87950000D03*
X94950000Y-86950000D03*
X94950000Y-85950000D03*
D37*
X94950000Y-85350000D03*
X94950000Y-84600000D03*
X94950000Y-84600000D03*
X94950000Y-85350000D03*
D38*
X94950000Y-86450000D03*
X94950000Y-87450000D03*
X94950000Y-88450000D03*
X94950000Y-88950000D03*
D37*
X94950000Y-90050000D03*
X94950000Y-90800000D03*
D34*
X94575000Y-83380000D03*
D35*
X90750000Y-83380000D03*
D34*
X94575000Y-92020000D03*
D35*
X90750000Y-92020000D03*
M02*
